<?xml version="1.0" encoding="UTF-8" standalone="no"?>
<svg
   xmlns:dc="http://purl.org/dc/elements/1.1/"
   xmlns:cc="http://creativecommons.org/ns#"
   xmlns:rdf="http://www.w3.org/1999/02/22-rdf-syntax-ns#"
   xmlns:svg="http://www.w3.org/2000/svg"
   xmlns="http://www.w3.org/2000/svg"
   xmlns:sodipodi="http://sodipodi.sourceforge.net/DTD/sodipodi-0.dtd"
   xmlns:inkscape="http://www.inkscape.org/namespaces/inkscape"
   width="70mm"
   height="70mm"
   viewBox="0 0 69.999998 69.999999"
   version="1.1"
   id="svg8"
   inkscape:version="1.0 (4035a4fb49, 2020-05-01)"
   sodipodi:docname="astronaut.svg">
  <defs
     id="defs2" />
  <sodipodi:namedview
     id="base"
     pagecolor="#ffffff"
     bordercolor="#666666"
     borderopacity="1.0"
     inkscape:pageopacity="0.0"
     inkscape:pageshadow="2"
     inkscape:zoom="0.98994949"
     inkscape:cx="255.33884"
     inkscape:cy="253.97873"
     inkscape:document-units="mm"
     inkscape:current-layer="layer2"
     inkscape:document-rotation="0"
     showgrid="false"
     inkscape:window-width="1920"
     inkscape:window-height="1027"
     inkscape:window-x="-8"
     inkscape:window-y="-8"
     inkscape:window-maximized="1"
     units="mm"
     inkscape:snap-nodes="true"
     inkscape:object-paths="true"
     inkscape:object-nodes="false"
     inkscape:snap-others="false" />
  <metadata
     id="metadata5">
    <rdf:RDF>
      <cc:Work
         rdf:about="">
        <dc:format>image/svg+xml</dc:format>
        <dc:type
           rdf:resource="http://purl.org/dc/dcmitype/StillImage" />
        <dc:title></dc:title>
      </cc:Work>
    </rdf:RDF>
  </metadata>
  <g
     inkscape:groupmode="layer"
     id="layer2"
     inkscape:label="earth"
     style="display:inline;opacity:1">
    <path
       style="fill:#ffffff;stroke:#000000;stroke-width:0;stroke-linecap:butt;stroke-linejoin:miter;stroke-miterlimit:4;stroke-dasharray:none;stroke-opacity:1"
       d="m 15.469706,40.496754 c -1.2847,1.43993 -2.19712,2.69372 -3.01307,3.89928 l -2.4813707,3.5448 c 0,0 -1.1116599,0.35006 -1.4179199,0.79757 -0.23594,0.34476 -0.17723,1.2407 -0.17723,1.2407 -0.75926,1.10178 -0.94899,2.37221 -1.46922,2.83368 l -3.88516,3.44653 c -1.7489401,1.80652 -1.5966501,2.96262 -1.1279401,4.01048 0.6760401,1.14212 1.6021801,1.72151 2.5065501,2.34989 1.14421,0.48016 1.99088,0.43965 2.6632,0.094 l 1.37862,-1.97391 c 1.3461399,-1.45171 2.6125806,-2.90342 4.6997706,-4.35514 0.66568,-0.55481 1.0979,-1.07071 1.40994,-1.5666 1.21996,-0.73108 2.10174,-1.46214 2.85121,-2.19322 1.39839,-1.04417 2.10848,-1.95069 2.94519,-2.88253 l 1.84857,-1.78593 c 1.60496,-1.40762 2.42832,-2.68498 3.35253,-3.97915 l 0.81462,-0.15664 c 0.8694,-1.03896 1.5587,-1.47761 2.25591,-1.94259 l 0.37596,-0.28199 c 0.54823,-0.15483 0.75613,-0.34116 0.90865,-0.53263 l 2.03657,-2.3499 c -0.0141,0.35859 -0.0891,0.74165 -0.25066,1.15928 -0.48003,1.05427 -0.78844,1.86832 -1.12796,2.72587 l -0.40731,1.22196 -0.21932,1.06528 -1.12794,1.31594 0.094,0.25064 c -0.68285,0.63259 -0.9057,1.1425 -1.15928,1.66061 -1.57099,0.86683 -2.78415,1.73368 -4.01048,2.60053 -0.12438,0.32813 -0.35817,0.49989 -0.6893,0.53265 l -4.10638,3.03283 c -1.11888,0.58457 -1.10537,1.00139 -1.50202,1.47895 l -0.45543,0.73139 c -1.4417,0.79374 -2.49815,1.58748 -2.81987,2.38122 -0.78534,0.98859 -1.45584,1.9772 -1.80049,2.96579 l -1.00262,1.97391 c -0.883771,1.82512 -0.29342,2.69034 0.0314,3.72849 0.32205,0.70578 0.74202,1.38543 1.50393,1.97391 0.82005,0.32588 1.62864,0.68039 2.85121,0 0.86847,-0.90862 1.38848,-1.81725 1.91125,-2.72587 0.64186,-0.9504 1.13092,-1.90081 1.59791,-2.85121 0.43865,-0.607 0.8773,-1.09597 1.31594,-1.3786 1.64515,-0.49086 2.2735,-0.94713 3.6345,-1.40993 1.2683,-0.9237 2.0465,-1.77305 2.91387,-2.55356 1.06648,-0.42362 1.87577,-0.81941 2.38122,-1.3316 1.66322,-0.42725 2.04497,-0.82324 2.5379,-1.22194 0.77981,-0.41565 1.63473,-0.78289 2.22455,-1.31594 0.32795,-0.15434 0.5802,-0.41277 0.78001,-0.7152 0.24926,-0.37726 0.56316,-0.64907 0.75525,-0.94539 0.83316,-0.50451 1.53723,-1.0413 2.03659,-1.62926 l 2.94519,-2.88254 c 0.72961,-1.14882 1.5598,-2.29767 2.09924,-3.4465 l 0.72062,-1.37862 c 1.94601,-2.30738 1.11821,-3.50527 1.37862,-5.13841 0.15154,1.02294 1.16639,-0.19873 2.12789,-1.28169 1.24719,-1.34839 2.31242,-2.67496 2.52567,-3.89928 1.02689,-0.50068 2.06004,-0.97632 2.92447,-2.12688 0,0 1.32693,-0.14486 1.79121,-0.56481 0.51563,-0.466407 0.82306,-1.91656 0.82306,-1.91656 0.17793,0.576137 0.37666,1.155229 0.8419,1.7724 0.062,0.54623 0.0661,1.11092 1.01912,1.37362 0.17107,0.86327 0.1631,1.70416 0,2.52566 -0.12532,0.55295 -0.3799,1.03204 -0.79756,1.41792 0,0 -0.31636,1.45001 -0.32362,2.18685 -0.004,0.50099 0.19068,1.49089 0.19068,1.49089 l -0.39876,1.01912 c 0.19315,0.54382 0.53892,0.73155 1.10776,0.39879 0.59226,-0.8286 1.00007,-1.4315 1.68377,-1.46223 0.38758,-0.0175 0.3413,0.70351 0.22154,1.15207 l -0.53174,0.84188 -0.9305,1.63947 c 0,0 -0.44367,1.42165 0.0443,1.72809 0.69978,0.43946 2.2598,-1.01912 2.2598,-1.01912 0.67176,-0.98567 1.36068,-1.74854 1.99393,-3.23463 0.69949,-0.46103 0.99344,-1.05725 1.19639,-1.68379 0.84421,-1.36164 1.42696,-2.66295 1.72809,-3.89928 l -0.0443,-0.4874 1.55083,-2.34844 c -0.7197,-0.76804 -1.10025,-1.53606 -2.30409,-2.304116 0.42211,-0.986671 0.7524,-1.984818 0.84188,-3.01307 0.0961,-0.228171 -2.75308,-6.24573 -3.11244,-6.018101 -0.54115,-0.496188 -1.01833,-1.002212 -2.08257,-1.417921 0.29113,-0.735021 0.97868,-1.419967 0.80831,-2.578041 l 1.28499,0.930499 c 0,0 1.72809,-1.240666 1.99395,-1.506528 0.26588,-0.265863 1.72809,-1.772405 1.72809,-1.772405 l -0.39877,-0.841879 c 0.55576,-0.452995 1.11044,-0.907941 1.46221,-1.728101 l 1.37362,0.797575 c 0.41629,-0.467181 0.58898,-0.922716 0.66465,-1.373606 v -0.797557 l -0.88615,-0.6646478 c 0.13304,-2.022008 0.10378,-4.253631 -1.69183,-6.083448 -2.46162,-2.508509 -4.3863,-2.090686 -6.28396,-2.113904 l -0.53173,0.22155 c -0.463,-0.568878 -0.74674,-1.20790802 -2.12687,-1.41791603 -1.22037,0.35033101 -1.40687,0.78626203 -1.90533,1.19636603 l 1.06345,1.152061 -1.15206,-0.398792 c 0,0 -0.64928,0.438839 -0.93051,0.708963 -0.40098,0.385152 -1.06345,1.284987 -1.06345,1.284987 l 0.79757,1.06344 c 0.0908,0.451563 0.0952,0.859996 -0.31015,1.063449 l -1.10775,-1.019144 c 0,0 -0.51851,0.14023 -0.75326,0.265866 -0.32557,0.174241 -0.62857,0.400142 -0.88623,0.664646 -0.39174,0.4022 -0.9748,1.373609 -0.9748,1.373609 l -2.70292,-1.905328 c -1.4595,-1.452258 -2.83069,-1.62385 -4.20946,-1.905329 -1.79381,-0.354041 -3.58404,-0.701339 -5.05132,-0.443098 -1.71959,-0.134036 -2.98222,-0.02203 -4.16514,0.132924 -1.58459,0.135404 -2.73522,0.838275 -3.23463,2.392744 -0.9192,1.160568 -1.08825,2.243526 -0.79758,3.278937 -1.83347,1.3028058 -2.34297,2.5467638 -2.30413,3.7663488 0,0 0.10229,1.332186 0.60737,1.405402 0.28029,0.04065 0.54469,-0.652131 0.54469,-0.652131 0,0 0.0619,1.017427 0.44312,1.063451 0.34607,0.04173 0.62033,-0.841892 0.62033,-0.841892 0,0 0.24664,1.162667 0.70894,1.196362 0.39802,0.02913 0.75329,-0.930513 0.75329,-0.930513 0,0 -0.003,1.190035 0.4431,1.3293 0.49344,0.154128 1.24068,-0.930513 1.24068,-0.930513 0,0 0.51494,1.116589 0.97482,1.019134 0.76785,-0.162704 0.89158,-2.184158 0.89158,-2.184158 l 0.12763,-1.537866 c 1.06314,-0.526878 1.63348,-0.543905 2.30409,-0.664656 0.48106,0.400595 -0.0236,0.969484 1.99398,1.107747 l 1.55084,0.310166 c 0.98589,0.270619 0.68857,0.724535 0.8862,1.107755 -1.4618,0.464782 -2.43859,1.150013 -3.45619,1.816695 0,0 -1.26035,1.663421 -2.03827,2.348448 -0.87926,0.774271 -2.92445,1.949633 -2.92445,1.949633 0,0 -0.64354,1.737098 -1.13592,2.513618 -0.62633,0.987789 -2.27595,2.670652 -2.27595,2.670652 0,0 -2.14755,1.236832 -3.19032,1.90533 -1.25197,0.802614 -3.67771,2.525662 -3.67771,2.525662 0,0 -0.41846,1.632721 -0.84189,2.348431 -0.26107,0.44126 -1.11778,0.86399 -1.01914,1.15206 0.27613,0.80634 -0.23364,0.60088 -0.35447,0.84189 -0.31113,0.62061 -0.3547,1.2555 -0.4431,1.86103 -0.47118,-0.32414 -0.55855,0.41782 -0.66467,1.10775 -1.81611,0.64987 -2.16073,1.29975 -2.34842,1.94964 -0.31295,0.44448 -0.62606,0.88904 -1.28503,1.50653 z"
       id="path1120"
       sodipodi:nodetypes="cccscsccccccccccccccccccccccccccccccccccccccccccscccccccccscccccscccscccsccccccccccccscccccccsccccccsccccssccccccccscscscscscccccccscscscssscccc" />
    <path
       style="fill:#ff0000;stroke:#000000;stroke-width:0;stroke-linecap:butt;stroke-linejoin:miter;stroke-miterlimit:4;stroke-dasharray:none;stroke-opacity:1"
       d="m 20.720446,32.941904 0.75327,-0.73112 c 2.05413,-0.28137 2.93218,0.22133 3.96575,0.62035 0.93621,0.39414 2.00335,1.06882 3.146,1.90532 0.78146,0.86832 1.46961,1.75361 1.9275,2.68075 0.28564,0.92123 0.28005,1.81008 0.31015,2.70292 l -0.62033,0.64249 c -0.12112,-1.04288 0.0144,-2.10716 -0.42095,-3.12385 -0.48001,-0.80926 -0.96005,-1.50195 -1.44008,-2.0161 -1.19345,-1.0164 -2.3054,-1.54387 -3.41185,-2.03826 -0.88157,-0.34977 -2.51044,-0.90729 -3.3565,-0.77544 z"
       id="path1137"
       sodipodi:nodetypes="ccccccccccsc" />
    <path
       style="fill:#ff0000;fill-opacity:1;stroke:#000000;stroke-width:0;stroke-linecap:butt;stroke-linejoin:miter;stroke-miterlimit:4;stroke-dasharray:none;stroke-opacity:1"
       d="m 30.409816,42.990254 0.26631,-0.61097 c 0.45385,-0.31271 0.53884,-0.60494 1.67627,-0.95562 2.0502,0.12099 3.26137,0.57744 4.2768,1.11228 1.81447,1.008 2.54524,2.01544 3.68148,3.02353 0.54885,0.75035 0.48742,1.85668 0.56399,2.88252 l -0.75196,0.78331 c 0,0 0.30026,-1.88267 -0.0626,-2.71021 -0.49244,-1.12288 -1.61755,-1.77612 -2.64755,-2.55356 -0.93416,-0.46574 -1.39598,-0.98705 -2.96085,-1.37859 -0.67602,-0.15409 -1.76042,-0.53691 -2.63189,-0.37598 -0.52869,0.0977 -1.40992,0.78329 -1.40992,0.78329 z"
       id="path1139"
       sodipodi:nodetypes="cccccccaccac" />
    <path
       style="fill:#333333;fill-opacity:1;stroke:#000000;stroke-width:0;stroke-linecap:butt;stroke-linejoin:miter;stroke-miterlimit:4;stroke-dasharray:none;stroke-opacity:1"
       d="m 55.648116,4.8772382 c -0.35814,0.522328 -0.75944,1.028472 -1.58273,1.376372 l -0.59531,0.501315 c -0.38969,1.733476 -0.24495,3.5025848 0.25067,5.2950908 1.32676,1.810611 2.74323,3.467461 4.48045,4.574444 2.18877,-0.353536 4.2824,-1.230369 6.23505,-2.882518 0.7693,-1.088732 1.67366,-1.800355 1.72326,-3.8851668 0.0331,-1.389265 -0.007,-2.796521 -1.2571,-4.241207 -1.2166,-1.405128 -3.10445,-1.945989 -5.09252,-2.274245 -2.019,-0.333367 -3.46875,0.08072 -4.49123,1.032368 z"
       id="path1162"
       sodipodi:nodetypes="ccccccssscc" />
    <path
       style="opacity:1;fill:#000080;fill-opacity:1;stroke:#000000;stroke-width:0;stroke-linecap:butt;stroke-linejoin:miter;stroke-miterlimit:4;stroke-dasharray:none;stroke-opacity:1"
       d="m 41.438636,3.8723782 c 1.09992,0.245514 2.08073,0.300426 3.36818,0.845962 1.14914,0.659982 0.8537,1.529338 0.282,1.362941 -0.20285,0.100354 -2.34469,-0.311282 -2.55356,-0.736294 l -0.5013,0.313318 c -0.23364,0.06513 -0.36005,-0.08404 -0.46998,-0.266322 z"
       id="path1164"
       sodipodi:nodetypes="ccccccc" />
    <path
       style="fill:#999999;fill-opacity:1;stroke:#000000;stroke-width:0;stroke-linecap:butt;stroke-linejoin:miter;stroke-miterlimit:4;stroke-dasharray:none;stroke-opacity:1"
       d="m 31.757086,24.582764 c 3.79447,4.266634 8.14733,8.28509 12.68942,12.21944 0.5652,-0.40026 1.59622,-0.10175 1.40992,-1.62926 -3.77388,-4.23267 -8.04881,-8.195573 -12.90874,-11.843453 -0.98155,0.258296 -1.11064,0.749091 -1.1906,1.253273 z"
       id="path1166"
       sodipodi:nodetypes="ccccc" />
    <path
       id="path1168"
       style="fill:#cccccc;fill-opacity:1;stroke:#000000;stroke-width:0;stroke-linecap:butt;stroke-linejoin:miter;stroke-miterlimit:4;stroke-dasharray:none;stroke-opacity:1"
       d="m 52.446276,13.068987 -0.79746,0.686748 -0.99687,-0.598344 -2.76931,2.813853 -1.01916,-0.731309 -1.24089,0.952692 -2.19325,2.481427 1.41807,1.440005 0.81971,-0.686761 4.27579,3.81074 -0.73098,0.775525 2.3262,1.883096 3.54483,-3.168208 2.85804,-3.123979 -2.57018,-2.702823 0.64254,-0.686748 z m -0.0229,0.645967 2.97284,2.608918 -0.66618,0.571612 2.46533,2.779576 -2.49275,2.722698 -3.06434,2.93825 -1.72307,-1.206958 0.74296,-0.913963 -4.91491,-4.490646 -0.95232,0.815255 -0.73851,-0.846105 2.22853,-2.322421 0.58496,-0.535641 0.99177,0.74296 2.88169,-2.764496 0.86187,0.516782 z" />
    <path
       style="opacity:1;fill:#ff0000;fill-opacity:1;stroke:#000000;stroke-width:0;stroke-linecap:butt;stroke-linejoin:miter;stroke-miterlimit:4;stroke-dasharray:none;stroke-opacity:1"
       d="m 46.526786,16.576538 -1.12901,1.219341 3.17578,2.890578 1.16981,-1.266909 z"
       id="path1186" />
    <path
       style="fill:#cccccc;fill-opacity:1;stroke:#000000;stroke-width:0;stroke-linecap:butt;stroke-linejoin:miter;stroke-miterlimit:4;stroke-dasharray:none;stroke-opacity:1"
       d="m 53.344756,7.2248962 -2.09924,1.53526 c -0.92658,-0.09027 -1.34649,-0.433811 -1.81725,-0.751959 0.68105,-1.005899 1.24561,-2.137225 2.66322,-2.349892 l 1.44127,1.127949 z"
       id="path1188"
       sodipodi:nodetypes="cccccc" />
    <path
       style="fill:#cccccc;fill-opacity:1;stroke:#000000;stroke-width:0;stroke-linecap:butt;stroke-linejoin:miter;stroke-miterlimit:4;stroke-dasharray:none;stroke-opacity:1"
       d="m 52.038416,8.1461932 c 0.9086,1.9464868 1.403,3.9567028 3.02226,5.8310328 2.03007,2.34983 4.08131,3.059 5.06242,3.112775 0.0409,0.536535 -0.22069,0.861361 -0.94158,0.753271 -2.13617,-0.786479 -3.54125,-1.769045 -4.6747,-3.090623 -1.59072,-1.854753 -2.70963,-4.082934 -3.32327,-5.9596868 z"
       id="path1190"
       sodipodi:nodetypes="csccscc" />
    <path
       style="fill:#666666;stroke:#000000;stroke-width:0;stroke-linecap:butt;stroke-linejoin:miter;stroke-miterlimit:4;stroke-dasharray:none;stroke-opacity:1"
       d="m 51.914686,8.2390852 c 0.68153,1.8733218 1.81213,3.8327168 2.981,5.6125058 1.53066,2.330645 3.2037,2.521855 4.85645,3.399515 l 0.18798,-0.203661 c -2.10569,-0.92359 -3.7945,-1.835812 -4.8486,-3.329009 -1.22081,-1.729375 -2.34246,-3.7349768 -3.0627,-5.6162468 z"
       id="path1192"
       sodipodi:nodetypes="csccscc" />
    <path
       style="fill:#000080;fill-opacity:1;stroke:#000000;stroke-width:0;stroke-linecap:butt;stroke-linejoin:miter;stroke-miterlimit:4;stroke-dasharray:none;stroke-opacity:1"
       d="m 63.147256,23.603584 -1.44008,-0.210483 c 0,0 0.91763,1.306437 1.12991,2.060413 0.14826,0.526631 0.0775,1.639467 0.0775,1.639467 0.46954,0.348143 0.94348,0.731539 1.38468,0.852974 0,0 0.21617,-0.782088 0.16616,-1.174223 -0.14472,-1.134622 -1.31823,-3.168148 -1.31823,-3.168148 z"
       id="path1194"
       sodipodi:nodetypes="ccsccsc" />
    <path
       style="fill:#000000;stroke:#000000;stroke-width:0;stroke-linecap:butt;stroke-linejoin:miter;stroke-miterlimit:4;stroke-dasharray:none;stroke-opacity:1"
       d="m 59.266476,3.6530622 4.63714,1.033947 c 2.05275,1.827699 1.86986,3.655386 2.28722,5.4830838 l -5.92174,1.409938 c -0.75152,0.68588 -1.3123,1.283736 -2.41254,2.13056 -0.22574,-0.271526 -0.36286,-0.543079 -0.72064,-0.814619 l -0.25066,0.06259 -0.50131,-1.127943 h -0.282 l -0.0626,-0.344658 0.65797,-0.469984 c 0.0603,-0.302868 0.13722,-0.605746 -0.0314,-0.908614 l -0.37599,0.37598 c -0.48639,-0.5933208 -1.02295,-1.0528538 -1.59792,-1.4099368 l -0.97129,-0.689309 0.0626,-0.344638 c 0.86434,-0.121855 0.80455,-0.229932 1.19062,-0.344659 l 0.68931,-0.971286 0.93995,-0.313318 0.15665,-0.37598 -0.75196,0.313318 0.59986,-0.634136 0.49676,-0.525144 -0.37598,-0.375991 0.62663,-0.250646 c 0,0 0.87729,-0.187994 1.19062,-0.187994 0.31332,0 0.72063,-0.720639 0.72063,-0.720639 z"
       id="path1196"
       sodipodi:nodetypes="cccccccccccccccccccccccccscc" />
    <path
       style="fill:#999999;fill-opacity:1;stroke:#000000;stroke-width:0;stroke-linecap:butt;stroke-linejoin:miter;stroke-miterlimit:4;stroke-dasharray:none;stroke-opacity:1"
       d="m 19.725636,36.520224 4.26114,2.75719 3.57184,3.38385 -2.88253,-3.32119 z"
       id="path1238" />
    <path
       style="fill:#999999;fill-opacity:1;stroke:#000000;stroke-width:0;stroke-linecap:butt;stroke-linejoin:miter;stroke-miterlimit:4;stroke-dasharray:none;stroke-opacity:1"
       d="m 17.344416,38.776124 c 0,0 2.007,3.21274 3.38384,4.48045 0.99117,0.91259 3.41519,2.1619 3.41519,2.1619 0,0 -2.35663,-1.41686 -3.35252,-2.3499 -1.3391,-1.25455 -3.44651,-4.29245 -3.44651,-4.29245 z"
       id="path1240"
       sodipodi:nodetypes="cscsc" />
    <path
       style="fill:#999999;fill-opacity:1;stroke:#000000;stroke-width:0;stroke-linecap:butt;stroke-linejoin:miter;stroke-miterlimit:4;stroke-dasharray:none;stroke-opacity:1"
       d="m 17.064856,43.908614 c 0,0 1.57713,1.6738 2.57,2.21551 0.77742,0.42416 2.54782,0.75327 2.54782,0.75327 0,0 -1.72257,-0.53651 -2.50352,-0.97483 -0.95571,-0.53641 -2.6143,-1.99395 -2.6143,-1.99395 z"
       id="path1242"
       sodipodi:nodetypes="cscsc" />
    <path
       style="fill:#999999;fill-opacity:1;stroke:#000000;stroke-width:0;stroke-linecap:butt;stroke-linejoin:miter;stroke-miterlimit:4;stroke-dasharray:none;stroke-opacity:1"
       d="m 15.425396,44.152324 c 0,0 2.286,2.39148 3.61126,3.36757 0.62323,0.45901 2.01612,1.15206 2.01612,1.15206 0,0 -1.60353,-0.50164 -2.28197,-0.97482 -1.3326,-0.92946 -3.34541,-3.54481 -3.34541,-3.54481 z"
       id="path1244"
       sodipodi:nodetypes="cscsc" />
    <path
       style="fill:#999999;fill-opacity:1;stroke:#000000;stroke-width:0;stroke-linecap:butt;stroke-linejoin:miter;stroke-miterlimit:4;stroke-dasharray:none;stroke-opacity:1"
       d="m 14.982316,46.057654 c 0,0 1.81669,1.17421 1.90533,1.17421 0.0886,0 1.21228,1.21232 1.97177,1.57301 0.40956,0.1945 1.32931,0.28802 1.32931,0.28802 0,0 -1.12989,-0.57603 -1.30714,-0.66465 -0.17725,-0.0886 -1.28652,-1.03931 -1.99394,-1.46223 -0.60391,-0.36103 -1.90533,-0.90836 -1.90533,-0.90836 z"
       id="path1246"
       sodipodi:nodetypes="csscssc" />
    <path
       style="fill:#999999;fill-opacity:1;stroke:#000000;stroke-width:0;stroke-linecap:butt;stroke-linejoin:miter;stroke-miterlimit:4;stroke-dasharray:none;stroke-opacity:1"
       d="m 8.9339754,50.998224 5.4944506,3.1017 c 0,0 -1.92194,-0.7191 -2.81368,-1.21853 -0.95277,-0.53362 -2.6807706,-1.88317 -2.6807706,-1.88317 z"
       id="path1248"
       sodipodi:nodetypes="ccsc" />
    <path
       sodipodi:nodetypes="ccsc"
       id="path1248-7"
       d="m 8.8750454,52.755204 5.2524906,3.49582 c 0,0 -1.86411,-0.85793 -2.71686,-1.42133 -0.911141,-0.60198 -2.5356306,-2.07449 -2.5356306,-2.07449 z"
       style="display:inline;opacity:1;fill:#999999;fill-opacity:1;stroke:#000000;stroke-width:0;stroke-linecap:butt;stroke-linejoin:miter;stroke-miterlimit:4;stroke-dasharray:none;stroke-opacity:1" />
    <path
       style="fill:#999999;fill-opacity:1;stroke:#000000;stroke-width:0;stroke-linecap:butt;stroke-linejoin:miter;stroke-miterlimit:4;stroke-dasharray:none;stroke-opacity:1"
       d="m 31.155446,46.434294 c 0,0 2.58111,0.93243 3.58912,1.8167 1.10251,0.96718 2.48136,3.63344 2.48136,3.63344 0,0 -0.80779,-2.77969 -1.81673,-3.72204 -1.11847,-1.04469 -4.25375,-1.7281 -4.25375,-1.7281 z"
       id="path1265"
       sodipodi:nodetypes="cscsc" />
    <path
       style="fill:#999999;fill-opacity:1;stroke:#000000;stroke-width:0;stroke-linecap:butt;stroke-linejoin:miter;stroke-miterlimit:4;stroke-dasharray:none;stroke-opacity:1"
       d="m 35.875586,53.117034 -1.08672,-2.25174 c 0.62449,0.17443 1.28099,0.46095 2.15284,1.50116 z"
       id="path1267"
       sodipodi:nodetypes="cccc" />
    <path
       style="fill:#999999;fill-opacity:1;stroke:#000000;stroke-width:0;stroke-linecap:butt;stroke-linejoin:miter;stroke-miterlimit:4;stroke-dasharray:none;stroke-opacity:1"
       d="m 33.073016,50.243594 c 0,0 1.11147,0.76331 1.5666,1.25327 0.45248,0.48709 1.12796,1.64492 1.12796,1.64492 0,0 -0.47356,-1.36829 -0.95564,-1.87991 -0.46065,-0.48888 -1.73892,-1.01828 -1.73892,-1.01828 z"
       id="path1269"
       sodipodi:nodetypes="cacac" />
    <path
       style="fill:#999999;fill-opacity:1;stroke:#000000;stroke-width:0;stroke-linecap:butt;stroke-linejoin:miter;stroke-miterlimit:4;stroke-dasharray:none;stroke-opacity:1"
       d="m 29.673496,50.118254 c 0,0 1.87639,2.23038 3.03922,3.08619 0.61508,0.45269 2.09922,1.08095 2.03658,1.04962 -0.0626,-0.0313 -1.5861,-0.38851 -2.24025,-0.84595 -1.18642,-0.82966 -2.83555,-3.28986 -2.83555,-3.28986 z"
       id="path1273"
       sodipodi:nodetypes="casac" />
    <path
       style="fill:#999999;fill-opacity:1;stroke:#000000;stroke-width:0;stroke-linecap:butt;stroke-linejoin:miter;stroke-miterlimit:4;stroke-dasharray:none;stroke-opacity:1"
       d="m 14.472736,51.596414 c 0,0 2.01039,-1.12191 3.12385,-1.30716 0.54758,-0.0911 1.66163,0.11083 1.66163,0.11083 -0.51675,0.67128 -0.10934,0.70894 -2.02718,2.28195 l -2.69183,2.21551 c -0.0905,-0.42833 -0.34418,-0.85666 -0.11082,-1.285 l 2.4149,-1.573 c -0.35419,-0.27849 -1.46675,-0.32948 -2.37059,-0.44309 z"
       id="path1275"
       sodipodi:nodetypes="cscccccc" />
    <path
       style="fill:#999999;fill-opacity:1;stroke:#000000;stroke-width:0;stroke-linecap:butt;stroke-linejoin:miter;stroke-miterlimit:4;stroke-dasharray:none;stroke-opacity:1"
       d="m 8.1641654,53.032124 c 0,0 1.0742602,2.034 1.9112496,2.78855 0.617851,0.55699 2.193241,1.1906 2.193241,1.1906 0,0 -1.28203,-0.88117 -1.848581,-1.40994 -0.8331897,-0.77762 -2.2559096,-2.56921 -2.2559096,-2.56921 z"
       id="path1277"
       sodipodi:nodetypes="cscsc" />
    <path
       style="opacity:1;fill:#999999;fill-opacity:1;stroke:#000000;stroke-width:0;stroke-linecap:butt;stroke-linejoin:miter;stroke-miterlimit:4;stroke-dasharray:none;stroke-opacity:1"
       d="m 3.1499554,61.659354 c 0,0 3.15301,0.66993 3.54084,0.32775 l 3.0518399,-2.64477 -1.3012799,1.40988 -1.37946,1.96046 c -0.53949,0.25025 -1.1544,0.40495 -2.13243,0.0997 0,0 -0.2323,-0.0749 -0.53966,-0.19845 -0.36948,-0.23933 -1.09204,-0.76388 -1.23985,-0.95455 z"
       id="path1279"
       sodipodi:nodetypes="cscccccc" />
    <path
       style="fill:#999999;fill-opacity:1;stroke:#000000;stroke-width:0;stroke-linecap:butt;stroke-linejoin:miter;stroke-miterlimit:4;stroke-dasharray:none;stroke-opacity:1"
       d="m 20.565366,62.651744 c 1.55735,-0.56226 2.60519,-1.16765 3.64328,-1.50852 1.30709,-0.80497 2.00112,-1.66269 2.91459,-2.50153 1.23423,-0.47195 1.73474,-0.90721 2.41489,-1.35146 1.11726,-0.34955 1.99305,-0.75522 2.52567,-1.24068 1.01733,-0.56139 2.11711,-1.11645 2.76936,-1.70593 0.81481,-1.09173 1.81003,-1.68019 2.41492,-2.25981 l 2.85799,-2.88015 c 0,0 0.14496,-1.4965 -0.15509,-2.14903 -0.47779,-1.03903 -2.43705,-2.41489 -2.43705,-2.41489 0,0 1.88335,1.52138 2.21551,2.61427 0.20962,0.6898 -0.24371,2.14906 -0.24371,2.14906 l -0.8862,0.81972 c 0,0 0.32676,-1.16444 0.11083,-1.68378 -0.26333,-0.63311 -1.55085,-1.35144 -1.55085,-1.35144 0,0 0.88576,0.889 1.08559,1.46221 0.0755,0.2163 0.0221,0.68682 0.0221,0.68682 l -0.4431,0.35448 c -0.23624,-0.16986 -0.0149,-0.33971 -0.70895,-0.50957 l -0.13291,0.42094 c 0,0 0.52407,0.727 0.55389,1.15206 0.0238,0.34016 -0.31018,0.97483 -0.31018,0.97483 l -0.37664,0.39877 c 0,0 -1.12646,0.31896 -1.70593,0.37663 -0.38955,0.0389 -1.17422,-0.0221 -1.17422,-0.0221 l 0.70898,0.55388 -1.15206,-0.15508 -1.0413,1.08559 -2.03824,-1.12991 2.45919,2.28197 -0.13291,0.15509 -2.23765,-0.13291 0.62035,0.77541 c 0,0 -1.2748,-0.33197 -1.92748,-0.39879 -0.25714,-0.0263 -0.77544,0 -0.77544,0 l -0.95266,-1.01912 1.10775,2.30412 c 0,0 -0.72174,0.11679 -1.06344,0.0221 -0.29422,-0.0814 -0.52713,-0.30976 -0.77542,-0.48739 -0.61065,-0.4369 -1.75025,-1.41794 -1.75025,-1.41794 l 2.12689,2.17119 -0.53173,0.1994 1.06344,0.95266 c 0,0 -0.32437,0.14509 -0.48741,0.11083 -0.27895,-0.0587 -0.6868,-0.50956 -0.6868,-0.50956 l -0.73111,1.72809 -0.64251,0.35447 -0.95266,-0.81973 -0.64249,0.39879 0.77541,0.57603 c 0,0 -1.34178,0.4562 -1.97179,0.77542 -0.14803,0.0751 -0.42093,0.26586 -0.42093,0.26586 l -0.62036,-0.73112 -0.28802,0.24371 0.31019,0.39879 -0.0665,0.17726 -1.30713,-1.2407 c 0,0 1.28498,1.55085 1.26283,1.63948 -0.0221,0.0886 -0.22155,0.11083 -0.22155,0.11083 l -1.90534,-1.52869 0.88621,1.3736 -1.90532,-1.3293 z"
       id="path1281"
       sodipodi:nodetypes="ccccccccscsccscsccccsccscccccccccscccssccccsccccccsccccccsccccc" />
    <path
       style="fill:#999999;fill-opacity:1;stroke:#000000;stroke-width:0;stroke-linecap:butt;stroke-linejoin:miter;stroke-miterlimit:4;stroke-dasharray:none;stroke-opacity:1"
       d="m 17.830056,61.319404 c 0.0313,0.11395 2.69456,1.2907 2.69456,1.26895 -0.23061,0.13587 -0.68542,0.63637 -1.03397,1.04961 -0.49238,0.87303 -0.99589,1.79111 -1.47258,2.60055 -0.48699,0.78443 -0.98125,1.63243 -1.45695,2.31856 -0.28643,0.36031 -0.75749,0.99199 -0.86162,0.97129 -0.11991,0.10189 -0.27994,0.15563 -0.45185,0.21389 -0.63848,0.21643 -0.76692,0.12655 -1.06774,0.17776 l 1.33159,-1.72325 0.45432,0.10961 c 0,0 0.15666,-0.79897 0.21932,-0.79897 0.0626,0 0.72064,-0.094 0.72064,-0.094 l -0.26633,-0.84596 c 0.007,0.10107 1.2428,-2.29292 1.22194,-2.52222 -0.007,-0.0625 0.17233,1.30027 0.17233,1.30027 0,0 0.17232,-1.22194 0.23498,-1.26893 0.10812,-0.66149 0.4974,-0.90962 0.86162,-1.22194 -0.52636,-0.51176 -0.9191,-1.02351 -1.30026,-1.53527 z"
       id="path1283"
       sodipodi:nodetypes="ccccccscccsccscccc" />
    <path
       style="fill:#ececec;stroke:#000000;stroke-width:0.0066315;stroke-linecap:butt;stroke-linejoin:miter;stroke-miterlimit:4;stroke-dasharray:none;stroke-opacity:1"
       d="m 59.026426,35.312494 0.70897,-1.94965 2.92446,-3.899277 c 1.68884,0.501322 2.38414,1.711217 3.32328,2.747217 l -2.5257,3.76635 h -0.1994 l -0.35449,1.17422 z"
       id="path1384"
       sodipodi:nodetypes="cccccccc" />
    <path
       style="fill:#999999;fill-opacity:1;stroke:#000000;stroke-width:0;stroke-linecap:butt;stroke-linejoin:miter;stroke-miterlimit:4;stroke-dasharray:none;stroke-opacity:1"
       d="m 59.380526,35.480424 c 1.11112,0.527 2.17553,1.03183 3.52302,1.67093 0.11624,-0.39624 0.25608,-0.80103 0.34116,-1.18603 0.055,0.0152 0.11489,0.0256 0.23152,-0.0228 0.31224,-0.46615 0.7052,-1.09549 0.95606,-1.38338 0.11693,1.09621 -0.63661,2.23992 -1.09499,3.36754 l -0.58878,1.01916 c -0.20801,0.68163 -0.54561,1.24501 -1.19639,1.68377 -0.57891,1.37326 -1.1124,1.92049 -1.66212,2.76313 -0.59338,0.76608 -1.28537,1.36455 -2.20839,1.5703 0,0 1.22455,-1.20522 1.25588,-1.26789 0.0313,-0.0626 0.003,-0.65188 0.21931,-0.84597 0.19101,-0.17063 0.76069,-0.10811 0.76069,-0.10811 l 1.4858,-2.20547 0.15081,-1.7909 1.13885,-0.13508 -0.0893,-0.55423 -0.87731,0.047 c 0,0 -0.61096,-0.91505 -1.03396,-1.25326 -0.42499,-0.33981 -1.45693,-0.73631 -1.45693,-0.73631 0.003,-0.20316 0.0191,-0.40873 0.14499,-0.6325 z"
       id="path1401"
       sodipodi:nodetypes="ccccccccccssccccccscc" />
    <path
       style="fill:#999999;fill-opacity:1;stroke:#000000;stroke-width:0;stroke-linecap:butt;stroke-linejoin:miter;stroke-miterlimit:4;stroke-dasharray:none;stroke-opacity:1"
       d="m 56.636396,31.793084 c 0,0 2.13323,-1.557265 3.36486,-1.975034 1.24403,-0.421996 3.91105,-0.48463 3.91105,-0.48463 0,0 -2.89369,-0.513734 -4.22124,-0.04701 -1.24263,0.436805 -3.05467,2.506734 -3.05467,2.506734 z"
       id="path1403"
       sodipodi:nodetypes="cscsc" />
    <path
       style="fill:#999999;fill-opacity:1;stroke:#000000;stroke-width:0;stroke-linecap:butt;stroke-linejoin:miter;stroke-miterlimit:4;stroke-dasharray:none;stroke-opacity:1"
       d="m 59.292286,28.821068 c 0,0 1.97809,-0.46321 2.96876,-0.354483 0.61314,0.06734 1.74606,0.612691 1.74606,0.612691 0,0 -1.10226,-0.878608 -1.7682,-0.967161 -1.00141,-0.133182 -2.94662,0.708953 -2.94662,0.708953 z"
       id="path1405"
       sodipodi:nodetypes="cscsc" />
    <path
       style="fill:#999999;fill-opacity:1;stroke:#000000;stroke-width:0;stroke-linecap:butt;stroke-linejoin:miter;stroke-miterlimit:4;stroke-dasharray:none;stroke-opacity:1"
       d="m 55.651396,30.009464 c 0,0 1.90278,-2.110779 3.17562,-2.628469 1.2671,-0.515345 4.09014,-0.332684 4.09014,-0.332684 0,0 -2.74523,0.258316 -4.0015,0.775789 -1.21074,0.498708 -3.26426,2.185364 -3.26426,2.185364 z"
       id="path1407"
       sodipodi:nodetypes="cscsc" />
    <path
       style="fill:#999999;fill-opacity:1;stroke:#000000;stroke-width:0;stroke-linecap:butt;stroke-linejoin:miter;stroke-miterlimit:4;stroke-dasharray:none;stroke-opacity:1"
       d="m 59.668926,24.190683 c 0,0 1.33855,-0.648758 2.05993,-0.794412 0.44747,-0.09037 1.36885,-0.04159 1.36885,-0.04159 0,0 -0.9715,-0.502001 -1.47913,-0.426874 -0.76597,0.113401 -1.94965,1.262865 -1.94965,1.262865 z"
       id="path1409"
       sodipodi:nodetypes="cscsc" />
    <path
       style="fill:#999999;fill-opacity:1;stroke:#000000;stroke-width:0;stroke-linecap:butt;stroke-linejoin:miter;stroke-miterlimit:4;stroke-dasharray:none;stroke-opacity:1"
       d="m 35.454246,21.543578 c 0,0 5.61247,2.423418 7.9583,4.323789 2.33699,1.893204 5.85908,6.861697 5.85908,6.861697 0,0 -3.06143,-5.415351 -5.42045,-7.331668 -2.39036,-1.941802 -8.39693,-3.853818 -8.39693,-3.853818 z"
       id="path1411"
       sodipodi:nodetypes="cscsc" />
    <path
       style="fill:#d38d5f;stroke:#000000;stroke-width:0;stroke-linecap:butt;stroke-linejoin:miter;stroke-miterlimit:4;stroke-dasharray:none;stroke-opacity:1"
       d="m 44.419916,19.926412 c -0.0413,0.496134 0.009,0.908822 0.24592,1.460491 1.3105,1.997012 2.32851,3.952234 3.22717,5.890419 l 3.00787,4.543122 0.33748,0.71186 c 0.40962,-0.36369 0.66989,-0.42103 1.28674,-1.20972 l 0.48614,-0.11204 c -1.27182,-1.274676 -1.73213,-2.798479 -2.643,-4.058519 l -1.87992,-2.600545 -1.12796,-2.161905 c -1.05482,-1.107904 -1.36565,-2.342635 -1.73474,-3.564455 z"
       id="path1413"
       sodipodi:nodetypes="cccccccscccc" />
    <path
       style="fill:#ffffff;stroke:#000000;stroke-width:0;stroke-linecap:butt;stroke-linejoin:miter;stroke-miterlimit:4;stroke-dasharray:none;stroke-opacity:1"
       d="m 49.349286,28.631782 0.94807,-0.78553 c 0.56009,0.594265 1.16088,1.453107 1.83886,2.813692 l -1.10774,0.81972 c -0.50609,-0.9493 -0.89957,-1.898591 -1.67919,-2.847882 z"
       id="path1415"
       sodipodi:nodetypes="ccccc" />
    <path
       style="opacity:1;fill:#999999;fill-opacity:1;stroke:#000000;stroke-width:0;stroke-linecap:butt;stroke-linejoin:miter;stroke-miterlimit:4;stroke-dasharray:none;stroke-opacity:1"
       d="m 37.412496,16.671459 0.83028,0.986956 2.25592,-0.01572 c 0,0 1.48722,0.348902 2.20889,0.595309 0.83518,0.285156 2.44387,1.01828 2.44387,1.01828 -0.054,-0.05718 -0.56253,1.151408 -0.73628,1.018294 0,0 -1.39016,-1.134242 -2.17756,-1.347279 -0.68588,-0.185574 -1.87992,0.125324 -1.87992,0.125324 l -2.89821,0.610984 -1.73893,0.09403 c 0,0 0.15668,-0.485661 0.62665,-0.657984 0.46997,-0.172324 1.75458,-0.391634 1.67626,-0.40731 -0.0783,-0.01572 -1.26895,-1.488265 -1.26895,-1.488265 z"
       id="path1417"
       sodipodi:nodetypes="cccscsscccsscc" />
    <path
       style="fill:#999999;fill-opacity:1;stroke:#000000;stroke-width:0;stroke-linecap:butt;stroke-linejoin:miter;stroke-miterlimit:4;stroke-dasharray:none;stroke-opacity:1"
       d="m 59.924446,23.219829 1.59794,-0.610984 0.89296,-0.125324 -1.09662,-0.125324 z"
       id="path1129" />
    <path
       style="fill:#999999;fill-opacity:1;stroke:#000000;stroke-width:0;stroke-linecap:butt;stroke-linejoin:miter;stroke-miterlimit:4;stroke-dasharray:none;stroke-opacity:1"
       d="m 60.953906,20.524024 c -0.27091,-0.03848 -0.91668,0.647105 -0.86403,0.664664 0.32378,-0.177391 0.58476,-0.36264 1.06343,-0.520657 z"
       id="path1131"
       sodipodi:nodetypes="cccc" />
    <path
       style="fill:#b3b3b3;stroke:#000000;stroke-width:0.0066315;stroke-linecap:butt;stroke-linejoin:miter;stroke-miterlimit:4;stroke-dasharray:none;stroke-opacity:1"
       d="m 56.180296,21.433916 0.23498,0.563971 0.48566,-0.250648 2.33422,6.438688 -0.40732,1.315941 -1.00261,0.516985 -1.11228,-0.469985 -0.34466,-1.15928 -0.57965,-0.751956 0.67364,-0.109608 -0.67364,-2.412559 -0.26631,-1.378604 -0.29766,-1.347272 z"
       id="path1133" />
    <path
       style="fill:#cccccc;stroke:#000000;stroke-width:0.0066315;stroke-linecap:butt;stroke-linejoin:miter;stroke-miterlimit:4;stroke-dasharray:none;stroke-opacity:1"
       d="m 56.910636,22.540126 c 0.76228,-0.273084 1.20347,0.149549 1.6173,0.631416 0,0 -0.75898,1.146754 -0.84189,1.805646 -0.10229,0.812655 0.45418,2.41489 0.45418,2.41489 l -1.57301,0.531712 c 0,0 -0.73979,-1.314045 -0.75327,-2.038254 -0.0218,-1.173303 1.09669,-3.34541 1.09669,-3.34541 z"
       id="path1135"
       sodipodi:nodetypes="ccsccsc" />
    <path
       style="fill:#d3bc5f;stroke:#000000;stroke-width:0.0066315;stroke-linecap:butt;stroke-linejoin:miter;stroke-miterlimit:4;stroke-dasharray:none;stroke-opacity:1"
       d="m 51.684176,25.084086 1.59792,-1.394265 0.89297,-0.04701 1.17493,1.582252 0.21932,0.673632 c 0,0 -1.37859,1.754589 -1.44127,1.754589 -0.0626,0 -1.3316,-0.156662 -1.3316,-0.156662 l -1.1436,-1.253266 z"
       id="path1138" />
    <path
       id="path1142"
       style="fill:#333333;fill-opacity:0.858824;fill-rule:evenodd;stroke:#333333;stroke-width:0;stroke-miterlimit:4;stroke-dasharray:none"
       inkscape:transform-center-x="-0.010621604"
       inkscape:transform-center-y="0.0036192414"
       d="m 53.456966,24.394141 -0.50821,0.18025 -0.39102,0.371148 -0.20595,0.498274 0.0145,0.539055 0.23235,0.486284 0.41018,0.349877 0.51712,0.152841 0.53426,-0.07059 0.45957,-0.282027 0.30533,-0.444473 0.0977,-0.53014 -0.12613,-0.523976 -0.32831,-0.427686 -0.47394,-0.257016 z m 0.13776,0.234051 0.43387,0.09186 0.35911,0.260443 0.22206,0.384155 0.0466,0.441045 -0.13675,0.421861 -0.29642,0.330001 -0.40506,0.180955 -0.4438,3.38e-4 -0.40539,-0.180263 -0.29713,-0.329324 -0.13742,-0.421847 0.0463,-0.441045 0.22138,-0.384507 0.35879,-0.261121 z" />
    <path
       style="fill:#333333;stroke:#000000;stroke-width:0;stroke-linecap:butt;stroke-linejoin:miter;stroke-miterlimit:4;stroke-dasharray:none;stroke-opacity:1"
       d="m 52.501776,25.231968 0.93052,0.254794 0.16617,-0.941596 c 0,0 0.2437,-0.05541 0.25478,0.02208 0.0108,0.0775 0,0.952665 0,0.952665 l 0.86403,-0.02208 c 0,0 0.0997,0.443091 -0.0108,0.443091 -0.11083,0 -0.89728,0.01084 -0.89728,0.01084 l -0.0997,0.91943 -0.36557,-0.03319 0.0665,-0.908361 -0.9859,-0.310166 z"
       id="path1149"
       sodipodi:nodetypes="cccsccscccccc" />
    <path
       style="opacity:1;fill:#999999;fill-opacity:1;stroke:#000000;stroke-width:0;stroke-linecap:butt;stroke-linejoin:miter;stroke-miterlimit:4;stroke-dasharray:none;stroke-opacity:1"
       d="m 28.075906,13.977226 c 0.0187,-0.978881 0.18849,-1.901116 0.44311,-2.791531 -0.18197,0.945287 -0.29803,1.890554 -0.33235,2.835835 z"
       id="path1151"
       sodipodi:nodetypes="cccc" />
    <path
       sodipodi:nodetypes="cccc"
       id="path1151-2"
       d="m 29.252346,13.914036 c 0.0187,-0.978881 0.1885,-1.901116 0.4431,-2.791542 -0.18197,0.945284 -0.29803,1.890565 -0.33234,2.835845 z"
       style="display:inline;opacity:1;fill:#999999;fill-opacity:1;stroke:#000000;stroke-width:0;stroke-linecap:butt;stroke-linejoin:miter;stroke-miterlimit:4;stroke-dasharray:none;stroke-opacity:1" />
    <path
       style="display:inline;opacity:1;fill:#999999;fill-opacity:1;stroke:#000000;stroke-width:0;stroke-linecap:butt;stroke-linejoin:miter;stroke-miterlimit:4;stroke-dasharray:none;stroke-opacity:1"
       d="m 30.602926,14.423908 c 0.0187,-0.978882 0.18849,-1.90113 0.44311,-2.791541 -0.18197,0.945283 -0.29803,1.890563 -0.33234,2.835844 z"
       id="path1151-2-0"
       sodipodi:nodetypes="cccc" />
    <path
       style="opacity:1;fill:#999999;fill-opacity:1;stroke:#000000;stroke-width:0;stroke-linecap:butt;stroke-linejoin:miter;stroke-miterlimit:4;stroke-dasharray:none;stroke-opacity:1"
       d="m 32.429346,14.874504 c 0,0 -0.16932,-0.344037 -0.0665,-0.365552 0.0444,-0.0095 0.64441,-1.815395 0.6536,-2.005034 0.0149,-0.306847 -0.50391,-0.954137 -0.50958,-0.886198 0,0 0.53171,-0.841891 0.5428,-0.775427 0.0108,0.06648 0.18832,1.639474 0.18832,1.639474 l -0.0775,1.207458 c 0,0 -0.3877,1.650536 -0.4431,1.617301 -0.0554,-0.03319 -0.28802,-0.432022 -0.28802,-0.432022 z"
       id="path1183"
       sodipodi:nodetypes="csscsccscc" />
    <path
       style="opacity:1;fill:#999999;fill-opacity:1;stroke:#000000;stroke-width:0;stroke-linecap:butt;stroke-linejoin:miter;stroke-miterlimit:4;stroke-dasharray:none;stroke-opacity:1"
       d="m 33.337716,10.365962 0.66463,1.008051 0.32125,0.797587 0.21048,-0.188324 -0.4874,-0.841886 z"
       id="path1185" />
    <path
       style="opacity:1;fill:#999999;fill-opacity:1;stroke:#000000;stroke-width:0;stroke-linecap:butt;stroke-linejoin:miter;stroke-miterlimit:4;stroke-dasharray:none;stroke-opacity:1"
       d="m 33.681116,9.5905372 0.94158,1.1963758 0.45419,1.052355 c 0,0 0.23261,-0.06648 0.23261,-0.110772 0,-0.04425 -0.5871,-0.974828 -0.5871,-0.974828 z"
       id="path1187" />
    <path
       style="opacity:1;fill:#999999;fill-opacity:1;stroke:#000000;stroke-width:0;stroke-linecap:butt;stroke-linejoin:miter;stroke-miterlimit:4;stroke-dasharray:none;stroke-opacity:1"
       d="m 29.767516,8.8228172 c 0.12532,-0.07832 1.63743,-0.460456 2.4282,-0.266322 0.51903,0.127424 1.33162,0.89296 1.33162,0.89296 0,0 -0.73551,-0.922223 -1.26894,-1.065279 -0.81429,-0.21839 -2.49088,0.438641 -2.49088,0.438641 z"
       id="path1189"
       sodipodi:nodetypes="cscsc" />
    <path
       style="opacity:1;fill:#999999;fill-opacity:1;stroke:#000000;stroke-width:0;stroke-linecap:butt;stroke-linejoin:miter;stroke-miterlimit:4;stroke-dasharray:none;stroke-opacity:1"
       d="m 40.639676,9.2301392 c 0,0 -0.66985,1.6284948 -1.2846,2.2245578 -0.4596,0.445635 -1.69193,0.908628 -1.69193,0.908628 l 0.95563,0.187986 c 0,0 1.00265,-0.513205 1.31594,-0.955614 0.4755,-0.671483 0.70496,-2.3655578 0.70496,-2.3655578 z"
       id="path1191"
       sodipodi:nodetypes="caccsc" />
    <path
       style="opacity:1;fill:#999999;fill-opacity:1;stroke:#000000;stroke-width:0;stroke-linecap:butt;stroke-linejoin:miter;stroke-miterlimit:4;stroke-dasharray:none;stroke-opacity:1"
       d="m 41.140996,13.976914 c 0,0 0.82965,0.198879 1.25326,0.219338 0.47605,0.0229 0.96269,0.0041 1.4256,-0.109743 0.56809,-0.139157 1.6136,-0.689295 1.6136,-0.689295 0,0 -1.08603,0.671356 -1.69192,0.845956 -0.46385,0.133724 -1.37859,0.172324 -1.44127,0.141 -0.0626,-0.0313 -1.40994,-0.250662 -1.40994,-0.250662 z"
       id="path1193"
       sodipodi:nodetypes="csscsscc" />
    <path
       style="opacity:1;fill:#999999;fill-opacity:1;stroke:#000000;stroke-width:0;stroke-linecap:butt;stroke-linejoin:miter;stroke-miterlimit:4;stroke-dasharray:none;stroke-opacity:1"
       d="m 45.699786,14.384237 c 0.141,-0.06259 1.31705,-0.537388 1.98957,-0.767632 0.61897,-0.211899 1.87991,-0.563971 1.87991,-0.563971 0,0 -1.24367,0.516917 -1.87991,0.736295 -0.65443,0.225637 -1.98957,0.595308 -1.98957,0.595308 z"
       id="path1195"
       sodipodi:nodetypes="cscsc" />
    <path
       style="opacity:1;fill:#999999;fill-opacity:1;stroke:#000000;stroke-width:0;stroke-linecap:butt;stroke-linejoin:miter;stroke-miterlimit:4;stroke-dasharray:none;stroke-opacity:1"
       d="m 43.475206,6.3319382 c 0,0 -0.10473,1.012173 -0.14098,1.519595 -0.0595,0.834442 -0.16471,1.670918 -0.12533,2.5065548 0.0153,0.326793 0.14099,0.971287 0.14099,0.971287 0,0 -0.0588,-0.741374 -0.047,-1.112285 0.0267,-0.8397918 0.25045,-1.6664748 0.26633,-2.5065458 0.008,-0.46052 -0.094,-1.378606 -0.094,-1.378606 z"
       id="path1197"
       sodipodi:nodetypes="csscssc" />
    <path
       style="opacity:1;fill:#999999;fill-opacity:1;stroke:#000000;stroke-width:0;stroke-linecap:butt;stroke-linejoin:miter;stroke-miterlimit:4;stroke-dasharray:none;stroke-opacity:1"
       d="m 45.449106,7.2248962 c 0,0 -0.3255,1.13813 -0.53263,1.691924 -0.20154,0.538836 -0.6893,1.5822568 -0.6893,1.5822568 0,0 0.63716,-1.0325648 0.84597,-1.5979218 0.19837,-0.537173 0.37596,-1.676259 0.37596,-1.676259 z"
       id="path1199"
       sodipodi:nodetypes="cscsc" />
    <path
       style="opacity:1;fill:#999999;fill-opacity:1;stroke:#000000;stroke-width:0;stroke-linecap:butt;stroke-linejoin:miter;stroke-miterlimit:4;stroke-dasharray:none;stroke-opacity:1"
       d="m 46.953046,6.3789342 c 0,0 0.35588,1.841773 0.141,2.725881 -0.19567,0.805013 -1.25326,2.1462328 -1.25326,2.1462328 0,0 1.17686,-1.2755878 1.37859,-2.0835708 0.22616,-0.905944 -0.26633,-2.788543 -0.26633,-2.788543 z"
       id="path1201"
       sodipodi:nodetypes="cscsc" />
    <path
       style="opacity:1;fill:#999999;fill-opacity:1;stroke:#000000;stroke-width:0;stroke-linecap:butt;stroke-linejoin:miter;stroke-miterlimit:4;stroke-dasharray:none;stroke-opacity:1"
       d="m 46.310766,11.783681 1.53525,-1.080943 0.92428,-1.4725988 -0.87729,1.8015828 z"
       id="path1203" />
    <path
       style="fill:none;stroke:#000000;stroke-width:0;stroke-linecap:butt;stroke-linejoin:miter;stroke-miterlimit:4;stroke-dasharray:none;stroke-opacity:1"
       d="m 46.309456,12.692229 c 0,0 2.2535,-0.488979 2.99093,-1.284984 0.62058,-0.669862 0.88619,-2.5921348 0.88619,-2.5921348 0,0 0.0756,2.0267978 -0.53172,2.7250618 -0.77407,0.889839 -3.3454,1.152057 -3.3454,1.152057 z"
       id="path1205"
       sodipodi:nodetypes="cscsc" />
    <path
       style="opacity:1;fill:#999999;fill-opacity:1;stroke:#000000;stroke-width:0;stroke-linecap:butt;stroke-linejoin:miter;stroke-miterlimit:4;stroke-dasharray:none;stroke-opacity:1"
       d="m 37.334146,7.0212362 c 0,0 -0.0222,0.996403 -0.094,1.488264 -0.0604,0.413636 -0.28199,1.221941 -0.28199,1.221941 0,0 0.46893,-0.857804 0.53265,-1.331599 0.0616,-0.458368 -0.15668,-1.378606 -0.15668,-1.378606 z"
       id="path1207"
       sodipodi:nodetypes="cscsc" />
    <path
       sodipodi:nodetypes="cscsc"
       id="path1207-8"
       d="m 37.954696,6.2607372 c 0,0 -0.0217,1.341686 -0.0916,2.003996 -0.0589,0.556974 -0.275,1.645376 -0.275,1.645376 0,0 0.45733,-1.155053 0.51946,-1.793034 0.0602,-0.617214 -0.1528,-1.856338 -0.1528,-1.856338 z"
       style="display:inline;opacity:1;fill:#999999;fill-opacity:1;stroke:#000000;stroke-width:0;stroke-linecap:butt;stroke-linejoin:miter;stroke-miterlimit:4;stroke-dasharray:none;stroke-opacity:1" />
    <path
       sodipodi:nodetypes="cscsc"
       id="path1207-9"
       d="m 38.439166,7.0338262 c 0,0 -0.0222,0.996393 -0.094,1.488264 -0.0603,0.413637 -0.28198,1.221942 -0.28198,1.221942 0,0 0.46891,-0.857805 0.53263,-1.331599 0.0617,-0.458369 -0.15667,-1.378607 -0.15667,-1.378607 z"
       style="display:inline;opacity:1;fill:#999999;fill-opacity:1;stroke:#000000;stroke-width:0;stroke-linecap:butt;stroke-linejoin:miter;stroke-miterlimit:4;stroke-dasharray:none;stroke-opacity:1" />
    <path
       style="fill:#999999;fill-opacity:1;stroke:#000000;stroke-width:0;stroke-linecap:butt;stroke-linejoin:miter;stroke-miterlimit:4;stroke-dasharray:none;stroke-opacity:1"
       d="m 28.247906,28.937897 c 0,0 2.93512,1.293018 3.88515,2.506547 1.15034,1.46936 1.81725,5.2951 1.81725,5.2951 0,0 -0.21897,-4.07426 -1.40992,-5.57707 -1.00093,-1.263038 -4.29248,-2.224577 -4.29248,-2.224577 z"
       id="path1458"
       sodipodi:nodetypes="cscsc" />
    <path
       style="fill:#999999;fill-opacity:1;stroke:#000000;stroke-width:0;stroke-linecap:butt;stroke-linejoin:miter;stroke-miterlimit:4;stroke-dasharray:none;stroke-opacity:1"
       d="m 30.202786,27.092981 c 0,0 0.87106,-0.07736 1.17421,0.177242 0.88892,0.746334 1.10775,3.301101 1.10775,3.301101 0.12032,0.0172 -0.0977,-3.609385 -0.84189,-3.699889 -0.11001,-0.01355 -1.44007,0.221546 -1.44007,0.221546 z"
       id="path1460"
       sodipodi:nodetypes="cscsc" />
    <path
       style="fill:#999999;fill-opacity:1;stroke:#000000;stroke-width:0;stroke-linecap:butt;stroke-linejoin:miter;stroke-miterlimit:4;stroke-dasharray:none;stroke-opacity:1"
       d="m 33.261026,27.543632 c 0,0 0.88458,1.980199 1.04961,3.039192 0.17212,1.10448 -0.0783,3.35252 -0.0783,3.35252 0,0 0.74274,-2.40739 0.53263,-3.60317 -0.18274,-1.040145 -1.50392,-2.788542 -1.50392,-2.788542 z"
       id="path1462"
       sodipodi:nodetypes="cscsc" />
    <path
       style="fill:#999999;fill-opacity:1;stroke:#000000;stroke-width:0;stroke-linecap:butt;stroke-linejoin:miter;stroke-miterlimit:4;stroke-dasharray:none;stroke-opacity:1"
       d="m 36.143546,30.441824 c 0,0 2.26968,3.13345 3.69718,4.4178 1.28124,1.15277 4.29245,2.88254 4.29245,2.88254 0,0 -2.93442,-2.2341 -4.29245,-3.47784 -1.30725,-1.19724 -3.69718,-3.8225 -3.69718,-3.8225 z"
       id="path1464"
       sodipodi:nodetypes="cscsc" />
    <path
       style="fill:#999999;fill-opacity:1;stroke:#000000;stroke-width:0;stroke-linecap:butt;stroke-linejoin:miter;stroke-miterlimit:4;stroke-dasharray:none;stroke-opacity:1"
       d="m 36.406166,37.284274 c 0,0 2.88775,0.22469 4.25378,0.66465 1.38637,0.44652 3.89928,1.9718 3.89928,1.9718 0,0 -2.50178,-1.16735 -3.81066,-1.59516 -1.41484,-0.46243 -4.3424,-1.04129 -4.3424,-1.04129 z"
       id="path1466"
       sodipodi:nodetypes="cscsc" />
    <path
       style="fill:#999999;fill-opacity:1;stroke:#000000;stroke-width:0;stroke-linecap:butt;stroke-linejoin:miter;stroke-miterlimit:4;stroke-dasharray:none;stroke-opacity:1"
       d="m 30.224936,43.731384 c 0,0 1.04312,-0.87411 1.68377,-0.97483 1.10468,-0.17365 3.27895,0.70897 3.27895,0.70897 0,0 -2.1293,-1.08846 -3.23463,-0.90835 -0.68736,0.11205 -1.72809,1.17421 -1.72809,1.17421 z"
       id="path1468"
       sodipodi:nodetypes="cscsc" />
    <path
       style="fill:#999999;fill-opacity:1;stroke:#000000;stroke-width:0;stroke-linecap:butt;stroke-linejoin:miter;stroke-miterlimit:4;stroke-dasharray:none;stroke-opacity:1"
       d="m 34.655946,36.242994 -0.81976,0.86404 -1.26281,1.06345 -0.66467,0.59817 c -0.20354,1.17753 -0.72868,2.41022 -1.24824,3.64195 l 0.86162,-0.64229 c 0,0 0.235,-0.60314 0.24283,-0.63448 0.008,-0.0313 0.32116,-1.07311 0.32116,-1.07311 l 0.46214,-0.64231 0.56397,-0.76763 0.97912,-1.48827 z"
       id="path1470"
       sodipodi:nodetypes="cccccccccccc" />
    <path
       style="fill:#999999;fill-opacity:1;stroke:#000000;stroke-width:0;stroke-linecap:butt;stroke-linejoin:miter;stroke-miterlimit:4;stroke-dasharray:none;stroke-opacity:1"
       d="m 40.876436,48.401754 1.99712,-3.28304 c 0.30726,-0.61401 0.54773,-1.02107 0.80802,-1.48955 1.10793,-1.1366 1.11135,-2.06661 1.25376,-2.92673 l -0.61416,1.1442 c -0.22231,-0.20619 -0.41966,-0.41737 -0.78329,-0.59531 l 0.59273,0.99673 -1.48569,-0.7304 c 0.4202,0.442 0.86559,0.87942 0.97127,1.3786 l -0.84594,-0.29766 c 0.1404,0.28215 0.53411,0.50096 0.36032,0.86164 l -0.26634,0.7363 -0.34466,-0.12532 -0.141,1.26892 c 0,0 -0.094,-0.81461 -0.094,-0.87728 0,-0.0626 0.071,-0.54985 -0.047,-0.78329 -0.0737,-0.14561 -0.37598,-0.31334 -0.37598,-0.31334 l 0.23498,0.84597 c 0,0 -0.0942,0.45859 -0.0783,0.68931 0.0173,0.25271 0.18799,0.7363 0.18799,0.7363 l -0.29765,0.43863 -0.29768,-1.00261 c 0,0 -0.0663,0.66003 -0.17231,0.9713 -0.0436,0.12817 -0.0721,0.29015 -0.18798,0.36031 -0.16216,0.0982 -0.5687,-6.7e-4 -0.5687,-6.7e-4 l 0.003,0.009 0.15097,2.0689 z"
       id="path1472"
       sodipodi:nodetypes="ccccccccccccccssccscccascccc" />
    <path
       style="fill:#999999;fill-opacity:1;stroke:#000000;stroke-width:0;stroke-linecap:butt;stroke-linejoin:miter;stroke-miterlimit:4;stroke-dasharray:none;stroke-opacity:1"
       d="m 42.629256,30.817814 c 0,0 1.46428,1.19246 2.06789,1.91125 0.83092,0.98944 2.06792,3.66582 2.09924,3.25851 0.0314,-0.40731 -0.60155,-2.75596 -1.50393,-3.75982 -0.67149,-0.74703 -2.6632,-1.40994 -2.6632,-1.40994 z"
       id="path1474"
       sodipodi:nodetypes="csssc" />
    <path
       style="fill:#b3b3b3;stroke:#000000;stroke-width:0;stroke-linecap:butt;stroke-linejoin:miter;stroke-miterlimit:4;stroke-dasharray:none;stroke-opacity:1"
       d="m 55.193616,3.9410132 c 0.4498,-0.420941 0.8574,-0.841891 1.56193,-1.26283 2.43682,-1.201416 4.97908,-0.841901 6.45874,-0.168736 1.391,0.733417 2.15266,1.405169 2.76859,2.217152 0.74208,1.032357 1.2135,2.316763 1.27482,3.563045 l 0.13768,0.881978 -0.68757,0.418831 c -0.009,-1.174239 0.15117,-2.222834 -0.93996,-4.19847 -1.06604,-1.521122 -2.22156,-1.968147 -3.36817,-2.522221 l -2.45956,-0.422977 -0.30533,0.86729 c -0.33276,-0.04945 -0.62853,-0.06201 -0.93363,-0.08384 l -0.37463,-0.376156 -0.68931,-0.109662 -0.3421,0.606961 -1.80636,0.872265 -0.16292,0.143346 z"
       id="path1476"
       sodipodi:nodetypes="cccccccccccccccccc" />
    <path
       style="fill:#000000;stroke:#000000;stroke-width:0;stroke-linecap:butt;stroke-linejoin:miter;stroke-miterlimit:4;stroke-dasharray:none;stroke-opacity:1"
       d="m 59.517126,3.3084132 0.36034,-0.830297 c 2.78345,0.06014 3.98668,0.91708 5.10709,1.926906 1.49043,1.343359 1.57511,2.771527 1.73891,4.167149 0.0675,0.684084 0.0606,1.368156 -0.20366,2.0522398 l -0.93994,1.535266 c 0.35565,-0.895364 0.83213,-1.74542 0.87729,-2.7572198 0.0662,-1.61528 -0.467,-3.358594 -1.83291,-4.778109 -1.27984,-1.330052 -2.97878,-1.552869 -4.54313,-1.754586 l -0.26633,0.485647 z"
       id="path1478"
       sodipodi:nodetypes="ccsccccsccc" />
    <path
       style="fill:#b3b3b3;fill-opacity:1;stroke:#000000;stroke-width:0;stroke-linecap:butt;stroke-linejoin:miter;stroke-miterlimit:4;stroke-dasharray:none;stroke-opacity:1"
       d="m 52.834126,4.5945862 0.4763,0.708962 c 0.57458,-0.119186 0.93268,-0.547623 1.30716,-0.952669 l 0.80864,-0.808648 -0.67572,-0.58712 -1.00805,0.95267 c -0.24219,0.350113 -0.58088,0.507214 -0.90833,0.686805 z"
       id="path1480"
       sodipodi:nodetypes="ccccccc" />
    <path
       sodipodi:nodetypes="ccccccc"
       id="path1480-7"
       d="m 60.915636,17.089716 0.47631,0.708967 c 0.57457,-0.119227 0.97185,-0.547631 1.34632,-0.952664 0.39647,-0.253006 0.65733,-0.514181 0.93398,-0.77732 l -0.5974,-0.61845 -1.25087,0.952665 c -0.2422,0.350108 -0.58089,0.50723 -0.90834,0.686802 z"
       style="display:inline;opacity:1;fill:#b3b3b3;fill-opacity:1;stroke:#000000;stroke-width:0;stroke-linecap:butt;stroke-linejoin:miter;stroke-miterlimit:4;stroke-dasharray:none;stroke-opacity:1" />
    <path
       style="fill:#999999;fill-opacity:1;stroke:#000000;stroke-width:0;stroke-linecap:butt;stroke-linejoin:miter;stroke-miterlimit:4;stroke-dasharray:none;stroke-opacity:1"
       d="m 29.360526,7.5579312 c 0,0 2.19551,-1.942976 3.46184,-1.71163 1.44659,0.264264 3.00786,3.227174 3.00786,3.227174 0,0 -1.2368,-3.256749 -2.69454,-3.571834 -1.4006,-0.302732 -3.77516,2.05629 -3.77516,2.05629 z"
       id="path1506"
       sodipodi:nodetypes="cscsc" />
  </g>
</svg>
