<?xml version="1.0" encoding="UTF-8" standalone="no"?>
<svg
   xmlns:dc="http://purl.org/dc/elements/1.1/"
   xmlns:cc="http://creativecommons.org/ns#"
   xmlns:rdf="http://www.w3.org/1999/02/22-rdf-syntax-ns#"
   xmlns:svg="http://www.w3.org/2000/svg"
   xmlns="http://www.w3.org/2000/svg"
   xmlns:sodipodi="http://sodipodi.sourceforge.net/DTD/sodipodi-0.dtd"
   xmlns:inkscape="http://www.inkscape.org/namespaces/inkscape"
   sodipodi:docname="logo.svg"
   inkscape:version="1.0 (4035a4fb49, 2020-05-01)"
   id="svg8"
   version="1.1"
   viewBox="0 0 52.916666 52.916668"
   height="200"
   width="200">
  <defs
     id="defs2" />
  <sodipodi:namedview
     inkscape:snap-nodes="false"
     inkscape:window-maximized="1"
     inkscape:window-y="-8"
     inkscape:window-x="-8"
     inkscape:window-height="1027"
     inkscape:window-width="1920"
     units="px"
     showgrid="false"
     inkscape:document-rotation="0"
     inkscape:current-layer="layer4"
     inkscape:document-units="cm"
     inkscape:cy="33.25"
     inkscape:cx="97.443131"
     inkscape:zoom="2"
     inkscape:pageshadow="2"
     inkscape:pageopacity="0.0"
     borderopacity="1.0"
     bordercolor="#666666"
     pagecolor="#ffffff"
     id="base" />
  <metadata
     id="metadata5">
    <rdf:RDF>
      <cc:Work
         rdf:about="">
        <dc:format>image/svg+xml</dc:format>
        <dc:type
           rdf:resource="http://purl.org/dc/dcmitype/StillImage" />
        <dc:title />
      </cc:Work>
    </rdf:RDF>
  </metadata>
  <g
     style="display:inline;opacity:1"
     inkscape:label="background"
     id="layer4"
     inkscape:groupmode="layer">
    <path
       id="path933"
       d="M -4.0037391,55.331626 -3.8721218,-5.8869779 55.766648,-5.360365 55.898265,55.463281 Z"
       style="fill:#afdde9;stroke:#000000;stroke-width:0;stroke-linecap:butt;stroke-linejoin:miter;stroke-miterlimit:4;stroke-dasharray:none;stroke-opacity:1" />
    <path
       sodipodi:nodetypes="cccccascsccc"
       id="path927"
       d="M -4.3986573,44.269306 -4.2012284,12.31075 16.336624,8.3645581 c 0.177009,-0.8171762 0.925292,-0.9589956 1.711488,-1.0560203 2.269923,-0.7864664 2.889812,-0.1797391 4.015417,0 0,0 1.161337,-1.1414423 1.974791,-1.2783391 1.002191,-0.1686682 1.954004,0.8078148 2.962192,0.6669551 1.272895,-0.1778173 1.569727,-2.1733413 5.331944,-0.6669551 5.331947,-4.1933356 11.02382,-3.6335151 15.995832,-1.8897288 3.055538,1.0716382 5.028414,1.7553404 7.10926,1.3895052 l 0.197529,46.5761599 z"
       style="opacity:1;fill:#87de87;fill-opacity:1;stroke:#000000;stroke-width:0;stroke-linecap:butt;stroke-linejoin:miter;stroke-miterlimit:4;stroke-dasharray:none;stroke-opacity:1" />
    <path
       sodipodi:nodetypes="cccsscc"
       id="path929"
       d="m -4.3986573,44.269306 60.0337343,7.836829 0.06586,-41.796269 C 55.664549,10.187846 49.105649,8.7864704 44.444615,12.421914 39.34568,16.398902 23.164925,6.8966347 21.471178,9.2538462 20.674079,10.363181 -4.2011422,12.31075 -4.2011422,12.31075 Z"
       style="opacity:1;fill:#afe9af;fill-opacity:1;stroke:#000000;stroke-width:0;stroke-linecap:butt;stroke-linejoin:miter;stroke-miterlimit:4;stroke-dasharray:none;stroke-opacity:1" />
    <path
       sodipodi:nodetypes="cscccc"
       id="path931"
       d="M -4.2011623,12.310744 C 3.7979772,9.8549614 15.287796,4.1229961 20.992234,9.4154128 29.749417,17.540092 42.251551,26.968156 55.715806,24.585633 L 55.63504,52.106135 -4.3986943,44.269306 Z"
       style="opacity:1;fill:#5fd38d;fill-opacity:1;stroke:#000000;stroke-width:0;stroke-linecap:butt;stroke-linejoin:miter;stroke-miterlimit:4;stroke-dasharray:none;stroke-opacity:1" />
  </g>
  <g
     style="display:inline;opacity:1"
     inkscape:label="human"
     id="layer2"
     inkscape:groupmode="layer">
    <path
       d="m 25.291089,15.399653 c -0.474567,-0.05286 -0.973052,0.193235 -1.404978,0.859857 -0.307314,0.685014 -0.01164,1.818956 -0.03488,1.820517 0.04953,0.192375 -0.08077,0.430492 0.246861,0.553352 0.160227,0.218454 0.35063,0.431956 0.222146,0.693228 l -0.246863,0.05958 c -0.124188,0.168467 -0.173873,0.335519 -0.222144,0.503984 l -0.117263,0.01207 c 0,-0.05707 0.05762,0.297053 -0.02478,0.273601 -0.147441,-0.04196 -1.775988,0.892155 -1.727941,0.973002 0.01517,0.02528 -0.403853,2.854287 -0.374386,2.826427 l 0.351743,0.135771 -0.03689,2.044734 c 0,0 -0.08223,0.234477 0.493723,2.291583 0.575984,2.057073 -0.139303,1.87361 0.164575,2.740026 0.305038,0.869854 -0.419524,4.126495 -0.469007,4.126495 0,0 -0.218101,1.196966 -0.117262,2.256616 0.117563,1.23543 -0.271529,1.551179 -0.271529,1.503717 0.443431,0.319192 0.849226,0.815629 1.481095,0.234528 0.55047,-0.823706 0.563251,-2.376957 0.777572,-3.655421 0.171195,-0.211884 0.373274,-0.399406 0.269456,-0.822832 0.303523,-1.026927 0.593555,-2.047287 0.987395,-3.114422 0.179789,0.03185 0.3478,0.08037 0.37646,0.306504 0.136315,1.017737 0.207285,2.043771 0.635643,3.019789 0.115496,1.250296 0.291139,2.512791 0.516322,3.785023 -0.07647,0.370293 -0.01718,0.681877 0.05762,0.987395 l -0.187167,0.682954 c 0.581726,0.02021 1.190271,0.156184 1.668285,-0.259196 -0.09152,-0.171043 -0.218707,-0.321717 -0.164574,-0.575974 0.337085,-0.09775 0.218911,-1.043121 0.106944,-1.974796 -0.0066,-1.067009 0.06784,-2.047571 -0.271528,-3.468234 0.09395,-0.07223 0.135914,-0.386314 0.164575,-0.763173 -0.06238,-0.252371 -0.119533,-0.506086 -0.01061,-0.822831 0.244689,-0.888955 0.06571,-1.844709 -0.09458,-2.797623 0.273903,-0.409818 0.185247,-1.094794 -0.176908,-1.98714 l -0.129562,-1.316468 c -0.06191,-0.884148 -0.16973,-1.761619 -0.152241,-2.655684 0.189088,0.323184 0.358415,0.686229 0.471079,1.162246 0.06592,1.208065 0.871193,2.478993 1.421442,3.727418 -0.05969,0.157145 -0.143701,0.316665 -0.02274,0.458746 -0.02478,0.453489 0.04346,0.716657 0.09259,1.022367 l -0.374387,0.658263 c 0.02628,0.07627 -0.0077,0.229676 0.164575,0.117263 0,0 0.514796,-0.83946 0.481339,-0.588318 -0.01718,0.128025 -0.419168,0.620915 -0.376457,0.623285 0.01516,0.150776 0.03033,0.302865 0.259194,0.224216 0.144154,-0.211883 0.158055,-0.467034 0.469005,-0.623293 -6.3e-4,-0.725219 0.03488,-1.431681 -0.12959,-2.24633 -0.216787,-0.674663 -0.380705,-1.354433 -0.456674,-2.044736 -0.142034,-0.754898 -0.391977,-1.540675 -0.800192,-2.373869 0.01062,-0.09785 0.04246,-0.178827 0.152241,-0.199552 0.05202,0.0022 -0.427863,-2.650971 -0.810488,-2.797622 -0.05636,-0.114231 -1.287628,-0.856622 -1.234252,-0.894827 -0.227907,-0.345981 -0.484678,-0.640299 -0.822832,-0.787865 -0.09638,-0.0043 0.269506,-0.387377 0.329148,-0.610942 0.10028,-0.375903 0.07627,-1.166239 0.187219,-1.1746 -3.99e-4,6.42e-4 0.443685,-0.249843 -0.02274,-1.199275 -0.338042,-0.525682 -0.788449,-0.876924 -1.263042,-0.929793 z m -2.22781,8.78989 c 0.06161,0.205566 0.05615,0.411536 0.244789,0.617125 -0.08512,0.256008 -0.0927,0.511286 -0.02274,0.76728 -0.141934,0.28937 -0.208448,0.694974 -0.292101,1.071742 -0.01207,-0.816216 -0.143748,-1.6258 0.06994,-2.456147 z"
       style="opacity:1;fill:#000000;fill-opacity:1;stroke:#000000;stroke-width:0;stroke-linecap:butt;stroke-linejoin:miter;stroke-miterlimit:4;stroke-dasharray:none;stroke-opacity:1"
       id="path848" />
  </g>
  <g
     style="display:inline;opacity:1"
     inkscape:label="mountain"
     id="layer3"
     inkscape:groupmode="layer">
    <path
       sodipodi:nodetypes="cccccsssccacasccc"
       id="path922"
       d="m -4.003729,55.0082 59.710296,-6e-6 -0.07151,-2.902059 c -2.846259,-1.921042 -3.338491,-4.368641 -10.466403,-5.331943 -0.917073,-1.710977 0.526461,-4.64507 -5.924379,-3.488803 0.06758,-0.222097 -3.324063,-1.01643 -5.397765,-0.39496 -1.96163,0.58788 -4.800408,-1.491626 -5.541761,-2.65164 -0.145417,-0.227552 -0.927395,0.215777 -1.668286,0.259197 -1.20903,0.07091 -1.679697,-1.319492 -3.433272,-1.188995 -0.176503,0.117622 -0.623295,0.17074 -1.481098,-0.234529 -2.654283,0.32278 -2.993081,-0.838294 -4.529678,-0.857733 -3.267943,-0.04145 -4.492754,1.68491 -9.676493,1.579834 C 6.997108,40.814972 7.657195,42.506581 6.79183,43.351192 6.345214,43.787091 5.3075658,44.190906 4.9486876,43.68029 3.844687,42.109601 1.5507445,40.363828 -2.9504913,41.376364 l -1.4481832,1.448185 z"
       style="opacity:1;fill:#000000;fill-opacity:1;stroke:#000000;stroke-width:0;stroke-linecap:butt;stroke-linejoin:miter;stroke-miterlimit:4;stroke-dasharray:none;stroke-opacity:1" />
  </g>
</svg>
