<?xml version="1.0" encoding="UTF-8" standalone="no"?>
<svg
   xmlns:dc="http://purl.org/dc/elements/1.1/"
   xmlns:cc="http://creativecommons.org/ns#"
   xmlns:rdf="http://www.w3.org/1999/02/22-rdf-syntax-ns#"
   xmlns:svg="http://www.w3.org/2000/svg"
   xmlns="http://www.w3.org/2000/svg"
   xmlns:sodipodi="http://sodipodi.sourceforge.net/DTD/sodipodi-0.dtd"
   xmlns:inkscape="http://www.inkscape.org/namespaces/inkscape"
   width="210mm"
   height="210mm"
   viewBox="0 0 210 210"
   version="1.1"
   id="svg8"
   inkscape:version="1.0 (4035a4fb49, 2020-05-01)"
   sodipodi:docname="marie-curie.svg">
  <defs
     id="defs2" />
  <sodipodi:namedview
     id="base"
     pagecolor="#ffffff"
     bordercolor="#666666"
     borderopacity="1.0"
     inkscape:pageopacity="0.0"
     inkscape:pageshadow="2"
     inkscape:zoom="0.64"
     inkscape:cx="236.78121"
     inkscape:cy="467.56198"
     inkscape:document-units="mm"
     inkscape:current-layer="layer5"
     inkscape:document-rotation="0"
     showgrid="false"
     inkscape:window-width="1920"
     inkscape:window-height="1027"
     inkscape:window-x="-8"
     inkscape:window-y="-8"
     inkscape:window-maximized="1"
     inkscape:object-nodes="false" />
  <metadata
     id="metadata5">
    <rdf:RDF>
      <cc:Work
         rdf:about="">
        <dc:format>image/svg+xml</dc:format>
        <dc:type
           rdf:resource="http://purl.org/dc/dcmitype/StillImage" />
        <dc:title></dc:title>
      </cc:Work>
    </rdf:RDF>
  </metadata>
  <g
     style="display:inline;opacity:1"
     inkscape:label="face"
     id="layer4"
     inkscape:groupmode="layer">
    <path
       sodipodi:nodetypes="cccccccccccccccccccscccccccccccc"
       id="path975"
       d="m 80.911684,129.54167 c 10.372987,13.42059 23.565036,18.53419 37.061156,22.75195 1.59194,0.7363 4.47155,0.89541 7.11847,1.15896 0.12328,-4.60533 0.28557,-9.18415 0.0994,-13.99708 l 0.62177,-2.30859 c 2.66069,-3.34588 3.84432,-7.32448 12.27199,-8.20169 3.16071,-0.0739 6.85954,-0.30137 10.7627,-0.58696 2.11216,-1.12098 3.8224,-2.71228 5.16708,-4.73221 0.0297,-2.4352 0.51994,-4.92654 -1.20753,-7.14716 -0.28784,-1.09708 -0.43547,-2.18501 -0.0228,-3.23548 l 1.27981,-0.77255 c 0.0572,-0.60323 0.27686,-0.74006 0.14583,-1.88335 -0.0737,-0.67888 -0.75751,-1.1984 -1.30382,-1.73864 1.32722,-0.74028 2.09761,-1.96262 2.02782,-3.91146 l -0.8107,-3.669 c 0.22694,-1.00389 0.49467,-2.015383 2.73164,-3.414809 1.83374,-0.512831 3.51576,-1.548889 4.91693,-3.551275 0.15637,-1.678341 0.20757,-3.357822 -2.32166,-5.053649 l -6.55627,-9.014501 c -1.41379,-2.167684 -1.55595,-5.132247 -0.64148,-7.924252 1.16294,-3.551234 2.17415,-4.747064 1.59765,-6.827135 -2.46562,-6.556991 -3.77376,-13.282178 -8.5733,-19.499865 l -5.49502,-6.724335 -10.61324,-2.65993 -8.81922,3.703948 1.11727,16.927229 -11.95598,27.039257 -16.992643,-5.318349 c -5.484807,1.674819 -7.094241,6.367632 -9.84712,11.48545 l 9.464628,11.081656 c -3.00858,7.723 -6.643484,14.7275 -12.178538,19.55552 3.438473,3.07236 2.653613,5.80739 0.956119,8.4683"
       style="opacity:1;fill:#ffb380;stroke:#000000;stroke-width:0;stroke-linecap:butt;stroke-linejoin:miter;stroke-miterlimit:4;stroke-dasharray:none;stroke-opacity:1" />
    <path
       style="fill:#ff7f2a;fill-opacity:0.286275;stroke:#000000;stroke-width:0;stroke-linecap:butt;stroke-linejoin:miter;stroke-miterlimit:4;stroke-dasharray:none;stroke-opacity:1"
       d="m 154.42128,90.337186 c -2.1476,0.739092 -4.26562,1.485616 -4.85537,2.614192 -1.05696,1.876167 0.65037,1.348511 1.75555,1.344514 2.05623,0.03883 4.3809,-0.663506 6.83514,-1.717857 h 2.27775 c 0.97369,0.821608 0.22533,1.643333 -0.22417,2.46496 -3.20212,1.875212 -5.5096,3.814211 -7.32027,5.788885 -0.73625,0.56928 -1.37463,1.49964 -2.39027,1.046 -2.67209,-0.32469 -4.51674,-1.31174 -4.70564,-3.623028 -0.31087,-2.427447 -0.40343,-4.786791 0.85901,-6.722539 0.29433,-1.177891 5.70999,-3.738345 7.76827,-1.195127 z"
       id="path955"
       sodipodi:nodetypes="ccccccccccc" />
    <path
       style="fill:#f9a770;fill-opacity:1;stroke:#000000;stroke-width:0;stroke-linecap:butt;stroke-linejoin:miter;stroke-miterlimit:4;stroke-dasharray:none;stroke-opacity:1"
       d="m 147.05491,71.376465 c -1.72443,0.788517 -2.94974,1.077788 -4.0405,2.007163 -1.59753,-0.121135 -3.45102,0.08102 -5.46672,0.448792 -2.47801,1.134671 -4.13811,2.607044 -5.28157,3.882083 -1.75214,1.719941 -1.9646,2.23428 -2.90498,3.829334 l 4.55615,0.427607 c 3.2239,0.219904 5.74204,0.911092 8.59009,1.381413 1.34762,-0.82706 2.43741,-1.841643 3.39866,-2.950129 l 2.94489,-2.714631 c 1.14998,-2.112651 1.44149,-4.22536 1.84838,-6.3383 l -0.0526,-1.373176 z"
       id="path868"
       sodipodi:nodetypes="cccccccccccc" />
    <path
       sodipodi:nodetypes="cccccccccccccc"
       id="path965"
       d="m 92.541246,96.438387 c -1.194421,-1.421635 -2.559713,-2.458131 -3.525279,-4.394576 0.291288,-1.50718 0.05196,-2.801986 1.159035,-4.63591 0.946695,-1.014021 1.894014,-2.027927 4.97389,-3.042053 1.790856,0.443845 2.858832,1.128884 3.283718,2.028032 0.207033,1.513204 0.114409,3.026391 -0.386306,4.539346 -0.975651,0.609018 -1.946064,1.221023 -3.235403,1.64183 -0.838429,-0.310182 -1.380403,-0.86728 -1.835064,-1.49683 1.345073,-1.124649 2.804723,-1.85413 3.428651,-3.380614 -0.553984,-0.587088 -1.703254,-0.762109 -3.090638,-0.772359 -0.996485,0.571467 -1.539393,1.200103 -2.028225,1.834808 -0.569256,1.421103 -0.586041,2.796201 -0.386032,4.153044 0.355194,0.884932 1.303612,1.68552 2.076244,2.510985 0.136906,0.902857 -0.210917,0.834022 -0.434591,1.014297 z"
       style="display:inline;opacity:1;fill:#d38d5f;fill-opacity:1;stroke:#000000;stroke-width:0;stroke-linecap:butt;stroke-linejoin:miter;stroke-miterlimit:4;stroke-dasharray:none;stroke-opacity:1" />
    <path
       sodipodi:nodetypes="cccccccccccccc"
       id="path967"
       d="m 98.38463,88.88098 c 0.381863,0.253249 0.591731,0.564544 1.327774,0.700247 0.580536,-0.135195 0.985246,-0.562927 1.376096,-1.014327 0.9527,-0.512225 0.67344,0.130574 0.65231,0.531159 -0.25012,0.874132 -0.68475,1.540114 -1.44912,1.835167 0.21971,1.231984 0.46586,2.124225 0.99029,3.307691 0.15614,0.610356 0.0597,1.136483 -0.16989,1.617892 1.61105,0.251815 2.42162,0.637546 3.28363,1.01421 0.0663,0.386641 -0.0341,0.772375 -0.48277,1.158938 -0.83392,-0.581361 -2.0801,-1.125758 -3.62192,-1.641944 -1.634135,-0.116798 -2.841108,-0.446576 -4.10454,-0.748388 1.723494,-1.359798 1.814474,-2.101973 3.0421,-4.321981 -0.502868,-0.485075 -0.72626,-1.109499 -0.84491,-1.786865 z"
       style="display:inline;opacity:1;fill:#d38d5f;stroke:#000000;stroke-width:0;stroke-linecap:butt;stroke-linejoin:miter;stroke-miterlimit:4;stroke-dasharray:none;stroke-opacity:1" />
    <path
       style="fill:#e58647;fill-opacity:1;stroke:#000000;stroke-width:0;stroke-linecap:butt;stroke-linejoin:miter;stroke-miterlimit:4;stroke-dasharray:none;stroke-opacity:1"
       d="m 143.55322,74.538867 c -1.82809,0.885953 -3.32604,2.102689 -4.55648,3.585804 -1.69316,1.712961 -3.38597,2.929143 -5.07945,3.846773 3.13673,0.114475 6.18518,1.24085 8.59009,1.381413 1.83701,-0.983186 2.50747,-1.966716 3.39866,-2.950129 0.42089,-2.401279 -1.04498,-4.195286 -2.35282,-5.863861 z"
       id="path860"
       sodipodi:nodetypes="cccccc" />
    <path
       style="fill:#f8995a;fill-opacity:1;stroke:#000000;stroke-width:0;stroke-linecap:butt;stroke-linejoin:miter;stroke-miterlimit:4;stroke-dasharray:none;stroke-opacity:1"
       d="m 143.19939,75.31154 c 0.33802,0.297144 0.48674,0.609442 0.60719,0.924142 -1.04464,0.369825 -1.63194,0.785654 -2.35008,1.188321 -0.94082,0.607498 -1.77034,1.214699 -2.42989,1.822329 l -2.3239,1.663724 c -0.27385,0.242489 -0.44094,0.44146 -0.42922,0.56828 1.40603,0.261394 3.32554,0.213672 5.05093,0.303004 1.04779,-0.140477 1.91856,-0.528808 2.61479,-1.161677 0.54245,-0.635237 0.78053,-1.453995 0.97656,-2.297617 0.0358,-0.726458 -0.22296,-1.501584 -0.60713,-2.297825 -0.12291,-0.405396 -0.57576,-0.621759 -0.92438,-0.897654 0,0 -0.13109,7.5e-4 -0.16855,0.04499 -0.0288,0.03407 -0.008,0.139199 -0.008,0.139199 z"
       id="path862"
       sodipodi:nodetypes="cccccccccccacc" />
    <path
       style="fill:#ececec;stroke:#000000;stroke-width:0;stroke-linecap:butt;stroke-linejoin:miter;stroke-miterlimit:4;stroke-dasharray:none;stroke-opacity:1"
       d="m 138.47211,80.593098 c 1.12414,0.331338 2.43335,0.454264 3.96149,0.290625 0.53349,-1.042099 0.49022,-2.092715 -0.31709,-3.16922 -1.62884,0.784729 -2.65019,1.802415 -3.6444,2.878595 z"
       id="path864"
       sodipodi:nodetypes="cccc" />
    <path
       style="fill:#1a1a1a;stroke:#000000;stroke-width:0;stroke-linecap:butt;stroke-linejoin:miter;stroke-miterlimit:4;stroke-dasharray:none;stroke-opacity:1"
       d="m 142.11651,77.714503 c 0.95546,1.206231 0.79142,2.279703 0.31709,3.16922 -0.57752,-0.988958 -1.10521,-1.985099 -0.31709,-3.16922 z"
       id="path866"
       sodipodi:nodetypes="ccc" />
    <path
       style="fill:#a05a2c;stroke:#000000;stroke-width:0;stroke-linecap:butt;stroke-linejoin:miter;stroke-miterlimit:4;stroke-dasharray:none;stroke-opacity:1"
       d="m 140.03591,77.252555 c -2.0409,2.064278 -4.03221,3.506746 -6.01579,4.844985 l 0.47381,-0.006 c 2.58574,-1.418038 4.74328,-3.436645 6.97806,-5.346706 0.66035,-1.181554 -0.15368,-0.605603 -0.71755,-0.326704 z"
       id="path950"
       sodipodi:nodetypes="cccccc" />
    <path
       style="fill:#ed9052;fill-opacity:0.439216;stroke:#000000;stroke-width:0;stroke-linecap:butt;stroke-linejoin:miter;stroke-miterlimit:4;stroke-dasharray:none;stroke-opacity:1"
       d="m 154.02653,90.311491 c -1.58308,0.006 -2.41394,-0.288221 -5.54559,0.369765 -1.1221,1.239159 -1.48195,2.547988 -1.8484,3.855157 -0.43243,2.303125 0.13806,2.873719 0.58104,3.987961 l 1.9013,1.452675 c 1.09711,0.616441 2.97621,1.386961 4.17257,-0.05256 0.10403,-1.580538 1.2178,-2.713654 3.85546,-3.168917 0.19497,-0.304672 0.57629,-0.552607 0.10433,-1.056286 -2.52085,-1.306974 -4.33632,-0.263397 -6.02153,1.214615 l -1.63743,0.950916 c -0.52081,-1.937671 -1.22291,-2.558163 -1.90103,-3.697328 0.15421,-1.003851 0.27637,-2.016778 1.32038,-2.746457 1.13218,-0.802695 3.24539,-0.819311 5.01758,-1.109305 z"
       id="path952"
       sodipodi:nodetypes="ccccccccccccc" />
    <path
       style="fill:#ff2a2a;stroke:#000000;stroke-width:0;stroke-linecap:butt;stroke-linejoin:miter;stroke-miterlimit:4;stroke-dasharray:none;stroke-opacity:1"
       d="m 144.97236,109.6087 c 1.81415,-1.43513 4.62165,-3.78661 7.65625,-4.51916 1.72931,0.49103 1.42988,1.27224 1.90463,1.94199 -0.43857,1.10219 -1.05548,1.61132 -1.7926,1.71804 -3.24095,-0.002 -5.36828,0.48857 -7.76828,0.85913 z"
       id="path1053"
       sodipodi:nodetypes="ccccc" />
    <path
       style="fill:#ff2a2a;stroke:#000000;stroke-width:0;stroke-linecap:butt;stroke-linejoin:miter;stroke-miterlimit:4;stroke-dasharray:none;stroke-opacity:1"
       d="m 144.8976,109.70212 c 2.83907,0.9281 5.20316,2.05178 9.07532,2.65162 0.72798,-1.17772 0.46056,-2.37692 -1.10134,-3.60417 -2.83466,-4.5e-4 -5.37538,0.52833 -7.97398,0.95255 z"
       id="path1055"
       sodipodi:nodetypes="cccc" />
    <path
       style="fill:#d38d5f;fill-opacity:1;stroke:#000000;stroke-width:0;stroke-linecap:butt;stroke-linejoin:miter;stroke-miterlimit:4;stroke-dasharray:none;stroke-opacity:1"
       d="m 99.146735,97.283741 c 0.736956,0.713162 1.136835,1.460072 2.315765,2.128888 0.40944,0.329918 1.02441,0.413798 1.68053,0.448144 0.82541,-0.241572 1.1946,-0.62009 1.53145,-1.008146 l -0.74732,-1.008613 0.5604,-0.746878 c 0.53092,0.42836 0.78544,0.816694 0.97076,1.195003 -0.23144,1.662261 -0.1944,2.430091 0.44845,4.033561 -0.0788,1.93069 -2.72555,3.31204 -4.10853,4.55629 -3.647104,-1.36674 -6.027764,-3.41613 -8.552391,-6.19944 -5.588489,-2.759929 -6.475508,-7.787544 -7.544312,-10.681569 0.196185,-4.960424 2.034455,-6.153256 3.884295,-7.320114 l 3.883647,-1.830351 c -5.206075,4.4495 -5.905318,4.483643 -5.900559,9.673388 1.117079,3.946033 3.130301,7.230855 6.535859,9.486316 1.756757,1.80307 3.841834,3.53591 6.983901,5.04205 0.44925,0.84214 4.37843,-2.45398 3.88425,-3.13727 -0.0901,-0.12569 -0.52274,-2.016893 -0.52274,-2.016893 -1.33312,0.986373 -2.77088,0.573523 -4.07135,-0.07398 -0.628692,-0.81248 -1.060483,-1.552748 -1.232105,-2.539927 z"
       id="path1057"
       sodipodi:nodetypes="ccccccccccccccccscccc" />
    <path
       style="fill:#ed9052;fill-opacity:0.301961;stroke:#000000;stroke-width:0;stroke-linecap:butt;stroke-linejoin:miter;stroke-miterlimit:4;stroke-dasharray:none;stroke-opacity:1"
       d="m 102.54548,107.06899 c 5.75148,6.37404 9.80343,13.31458 18.82323,18.5993 5.6357,0.93698 9.97768,1.52511 16.80643,1.26948 -5.73226,0.0662 -9.56997,4.31654 -13.8187,10.75651 -3.18825,5.14951 -6.10674,5.99186 -9.11277,8.21625 2.21741,1.91478 2.39621,4.01464 2.46505,6.12499 -11.08478,-5.38548 -16.78879,-2.01497 -37.049041,-22.33359 4.20098,-9.71422 8.881131,-19.52416 12.175382,-29.05673 2.769369,4.40707 4.298534,8.81414 5.079189,13.22116 0.127152,5.45522 -1.950312,8.70639 -3.734873,12.24993 1.620534,2.40479 3.275137,4.77167 6.648043,5.22845 3.76606,3.57374 3.86207,6.14648 5.67682,9.18822 1.16361,3.16757 3.84493,4.81924 7.39499,5.60186 1.14025,-4.33236 3.51681,-8.66495 2.68962,-12.99779 -6.9396,-8.68901 -9.5841,-17.37854 -14.04337,-26.06804 z"
       id="path1059"
       sodipodi:nodetypes="ccccccccccccccc" />
    <path
       style="fill:#ed9052;fill-opacity:0.313725;stroke:#000000;stroke-width:0;stroke-linecap:butt;stroke-linejoin:miter;stroke-miterlimit:4;stroke-dasharray:none;stroke-opacity:1"
       d="m 117.40923,87.797494 19.86942,5.079236 c 2.6166,8.78462 2.15466,15.2602 0,20.46657 6.34473,2.39618 10.52157,5.22575 13.89345,8.21676 0.75848,1.33239 1.43286,2.62982 -0.14913,2.98742 -4.66272,3.4427 -7.99723,1.90494 -11.95117,2.68938 -7.22719,-4.57837 -14.54537,-8.76957 -22.55814,-10.00919 -5.23899,-4.08362 -9.8376,-8.16679 -12.69825,-12.25028 3.15408,-1.20054 3.71732,-4.12828 2.09164,-8.514876 0.69696,-2.851887 2.5836,-5.548169 -1.04586,-8.963776 3.83693,-1.244533 8.11075,-2.329457 9.85991,-4.33224 z"
       id="path1061"
       sodipodi:nodetypes="cccccccccccc" />
    <path
       style="fill:#f9a871;fill-opacity:1;stroke:#000000;stroke-width:0;stroke-linecap:butt;stroke-linejoin:miter;stroke-miterlimit:4;stroke-dasharray:none;stroke-opacity:1"
       d="m 143.78036,110.80454 c 2.21752,-0.36759 5.28726,1.23762 8.60937,1.58461 -0.82047,0.68807 -2.03152,0.71716 -2.21858,1.532 1.43352,0.40476 1.09881,0.80977 1.2148,1.21466 l -3.01051,0.15848 -1.79595,-0.4754 c -1.70664,-1.58574 -2.37994,-1.68895 -2.74635,-2.85212 -0.2973,-0.38711 -0.31888,-0.77457 -0.0516,-1.16191 z"
       id="path1063"
       sodipodi:nodetypes="cccccccc" />
    <path
       style="fill:#ed9052;fill-opacity:0.333333;stroke:#000000;stroke-width:0;stroke-linecap:butt;stroke-linejoin:miter;stroke-miterlimit:4;stroke-dasharray:none;stroke-opacity:1"
       d="m 123.08655,53.288379 c 7.41776,2.472396 11.57921,6.2774 14.64033,10.531805 1.28808,1.390774 1.36447,3.006399 1.7926,4.556742 -4.44829,3.962746 -8.21467,6.219754 -11.87645,8.216544 -4.56173,2.019746 -8.36241,3.415059 -12.39936,5.004453 -3.75952,-10.167907 -0.5418,-19.535086 7.84288,-28.309544 z"
       id="path1065"
       sodipodi:nodetypes="cccccc" />
  </g>
  <g
     style="display:inline;opacity:1"
     inkscape:label="hair"
     id="layer3"
     inkscape:groupmode="layer">
    <path
       sodipodi:nodetypes="csccccscccccccccaccscscccccc"
       id="path25"
       d="m 144.35302,44.617171 c 1.72855,-2.385074 4.31088,-2.423135 5.20969,-3.629803 2.02498,-2.719454 4.09009,-5.153385 1.2124,-9.855355 -5.93399,-6.40089 -9.40811,-12.98389 -19.8049,-19.05392 C 126.19534,9.4737177 121.51806,6.8571606 115.33114,4.4290739 103.67672,3.3106724 94.679033,7.1074299 86.648002,12.692459 80.263586,16.439096 75.53952,20.873006 70.777807,24.552686 64.149143,29.675171 60.661804,35.008304 56.735822,40.351209 c -2.872342,9.219272 -5.667378,16.142975 -4.77061,32.445133 -0.05495,4.892847 0.02238,10.246486 2.790144,14.33555 l 8.468295,20.077818 2.936598,5.25854 c 3.459698,3.08201 7.449394,6.06451 13.795176,8.60512 0.995668,0.70241 1.932873,1.6005 2.390205,4.0975 3.796579,-7.9064 8.280093,-14.83141 10.926899,-24.38071 -4.58755,-3.404491 -5.839691,-7.005348 -7.443976,-10.58527 -0.516204,-2.619428 1.414254,-6.011243 3.824439,-7.375657 3.176013,-1.797551 4.683103,-3.165631 10.926778,0.682847 1.177,-0.249479 2.05135,1.621198 2.86841,3.892932 0,0 10.07762,-1.467305 12.0879,-5.395241 2.26821,-4.432328 0.009,-10.864598 4.30237,-16.39025 0.66194,1.13238 5.52956,-6.934027 4.78053,-7.785404 -0.61048,-0.693198 -0.51332,-11.336597 -0.20486,-11.336597 0.0206,-1.894999 0.40778,-3.658785 -1.02447,-5.190255 2.90535,-1.321312 3.87897,-4.172067 10.79029,-2.321872 1.59665,1.046589 2.6374,2.185902 3.14134,3.414687 0.58574,-1.631971 1.51649,-2.401398 2.45865,-3.141491 1.96021,1.085254 2.78637,2.715186 4.57309,5.358582 z"
       style="opacity:1;fill:#333333;fill-opacity:1;stroke:#000000;stroke-width:0;stroke-linecap:butt;stroke-linejoin:miter;stroke-miterlimit:4;stroke-dasharray:none;stroke-opacity:1" />
    <path
       sodipodi:nodetypes="acacaasaaccccccscccccccccacccccccccccccccccccccccccccccacccccccccccaccaca"
       id="path954"
       d="m 63.260238,46.568806 c 3.137528,1.904234 9.182961,6.0749 9.182961,6.0749 -5.447388,1.04942 -10.228216,1.187676 -14.204907,4.097668 -1.45715,1.066603 -3.004896,4.507549 -3.004896,4.507549 0,0 8.883654,-2.869441 13.487805,-3.005064 4.206612,-0.123727 8.25504,2.025116 12.463456,2.014705 1.661559,-0.002 3.298312,-1.194706 4.917025,-0.819543 7.627066,1.767169 14.548798,5.768008 21.853828,4.404755 3.07908,-0.57444 5.33577,-3.286363 7.92183,-5.053513 1.21074,-0.827142 3.55131,-2.595147 3.55131,-2.595147 -2.06386,-3.12359 -3.25563,-6.367632 -7.78531,-9.151342 1.08965,-2.036503 3.7395,-3.516427 7.37565,-4.643694 1.60301,-0.292117 -9.24181,-3.057984 -11.06819,-5.000979 -3.78326,-3.297152 -1.11372,-3.450726 -5.66837,-4.56033 -3.159916,-1.729737 0.7495,-3.459935 -4.29758,-5.190032 0,0 -5.608314,-2.278752 -6.146529,-2.185482 -1.504833,0.261521 -6.555387,-4.122452 -6.146247,-4.234058 -0.387027,-2.887075 2.142722,-3.61838 4.643755,-4.370798 1.918237,1.592515 3.699929,3.207878 4.09762,5.053872 0.09325,2.355134 1.375071,2.807784 2.731833,3.14153 1.281389,-3.093802 3.496158,-4.760336 6.965758,-4.50733 1.85187,1.655279 2.55261,3.406628 2.86868,5.189918 1.46635,-1.654825 3.61935,-2.520654 7.64835,-1.229051 2.50564,1.564389 5.01709,3.038816 7.649,2.45852 2.28376,-1.059597 4.67417,-2.477466 6.55611,-2.185418 1.01969,-0.67988 6.55556,1.379622 9.42434,3.00489 2.21722,1.256128 5.73664,5.053439 5.73664,5.053439 l -4.23423,6.419818 5.49509,6.724335 c 0.75356,0.489494 0.54261,-0.306491 3.911,-4.740265 1.37196,-2.001518 3.23856,-3.763956 2.84899,-6.615784 l -2.01122,-4.656063 -11.31704,-12.342248 -7.6297,-5.504845 2.51098,5.504845 -10.43068,-8.8854742 1.15906,3.4768962 -4.7325,-3.1871707 2.60795,6.1812037 -1.25589,2.318123 -1.06223,-3.960052 -6.47124,-6.084375 -0.57907,5.698153 -4.44295,0.09588 0.19439,2.897409 -3.47701,0.482871 -5.21533,-4.056492 -8.982202,0.194394 -4.250958,-0.106443 -2.316218,1.65235 -2.318089,6.470786 -3.766541,2.31797 2.245416,3.380082 0.652012,2.994341 c -1.119689,1.774908 -2.617544,2.888147 -4.249582,3.766529 -0.377945,0.491729 2.150173,1.675964 3.356132,2.293771 2.293115,1.174799 7.621883,2.43505 7.267683,2.631802 l -6.470781,0.869314 1.54542,3.090635 5.601429,5.311853 5.988091,2.993894 -6.760908,0.482989 11.58984,3.380105 c 2.989036,0.003 6.535736,-0.684326 8.595516,0.483125 2.28364,0.602808 2.39776,1.471221 3.47686,2.221443 -1.14507,1.474717 -2.88054,2.612508 -4.92535,3.573741 L 93.411726,59.54556 c 0,0 -6.901758,-2.984315 -10.567432,-3.66434 -2.932244,-0.54363 -8.941872,-0.295624 -8.941872,-0.295624 1.043602,-1.142336 1.292993,-2.171549 1.448633,-3.187203 0,0 -5.331729,-5.062306 -8.643925,-6.470886 -2.026169,-0.861506 -5.541096,-1.363113 -6.51916,-1.062271 0,0 2.0719,1.097161 3.073479,1.704799 z"
       style="fill:#666666;fill-opacity:1;stroke:#000000;stroke-width:0;stroke-linecap:butt;stroke-linejoin:miter;stroke-miterlimit:4;stroke-dasharray:none;stroke-opacity:1" />
  </g>
  <g
     inkscape:groupmode="layer"
     id="layer5"
     inkscape:label="costume"
     style="display:inline;opacity:1">
    <path
       style="fill:#000000;stroke:#000000;stroke-width:0;stroke-linecap:butt;stroke-linejoin:miter;stroke-miterlimit:4;stroke-dasharray:none;stroke-opacity:1"
       d="m 50.930997,148.07658 c -6.824895,4.54873 -9.611951,7.12989 -11.652505,10.0845 -15.054719,16.95178 -21.895889,36.46307 -19.514307,53.97808 l 158.189195,-0.24177 c -0.38165,-6.0386 -1.71353,-12.07762 -4.06724,-18.11642 -0.0565,-2.35341 -0.16608,-4.65789 -0.42265,-6.81349 -1.41547,-7.21909 -2.93522,-14.37906 -6.28511,-20.49316 -2.76711,-7.85221 -6.33988,-11.4744 -9.88144,-15.2604 -6.69756,-5.20118 -13.39526,-5.6608 -20.09287,-7.32025 l -11.23908,-6.68231 c -1.65273,1.58045 -0.12713,11.79147 -0.88882,15.76161 -25.220531,6.21691 -60.94786,-11.753 -74.145173,-4.89639 z"
       id="path871"
       sodipodi:nodetypes="cccccccccccc" />
    <path
       style="fill:#e6e6e6;stroke:#000000;stroke-width:0.540841px;stroke-linecap:butt;stroke-linejoin:miter;stroke-opacity:1"
       d="m 80.88371,129.40278 c -15.820754,4.18182 -21.573397,11.88757 -29.952713,18.6738 19.774483,12.22572 38.623153,25.20098 62.370713,34.21047 6.0854,9.83462 10.5532,19.66982 15.31266,29.50465 l 45.04085,-0.14912 -4.25736,-11.50308 c -1.84214,-5.71032 -3.7802,-11.35654 -6.79738,-16.28363 l -9.93503,-15.61124 c -4.12688,-9.1881 -8.59643,-17.99349 -16.05891,-23.45441 -4.16758,-2.25319 -8.68741,-4.37834 -10.75612,-7.39472 l -0.74717,0.97097 c 1.5723,2.01154 2.72295,4.14025 5.45282,5.82612 0.10173,2.66399 -3.24308,5.85804 -5.52744,8.88895 -19.33414,-1.4905 -33.697021,-11.50473 -44.14492,-23.6784 z"
       id="path856"
       sodipodi:nodetypes="cccccccccccccc" />
    <path
       style="fill:#1a1a1a;stroke:#000000;stroke-width:0.540841px;stroke-linecap:butt;stroke-linejoin:miter;stroke-opacity:1"
       d="m 75.117402,131.03324 -2.957673,1.58519 c 6.672885,9.92794 16.93017,15.21719 26.875022,20.91122 l 23.603659,7.91736 6.05033,12.02606 13.66937,22.85632 6.349,15.01416 1.41915,0.14913 -5.3779,-12.54897 c -3.51071,-6.49857 -7.02148,-12.70874 -10.53155,-19.49553 l -7.39577,-12.02594 -3.65965,-7.2455 -14.41625,-4.4814 -11.353815,-4.70601 C 87.412844,146.04017 79.145779,139.94976 75.117402,131.03297 Z"
       id="path858"
       sodipodi:nodetypes="ccccccccccccccc" />
    <path
       style="fill:#000000;stroke:#000000;stroke-width:0.540841px;stroke-linecap:butt;stroke-linejoin:miter;stroke-opacity:1"
       d="m 65.421852,136.34945 c 19.291922,16.52497 34.194151,25.52859 54.527618,30.99864 9.22166,14.90157 16.29492,29.49621 23.61962,44.12673 l -2.53519,0.21153 c -6.4821,-13.53922 -11.61889,-28.24226 -21.76087,-42.04292 -25.693133,-9.26334 -39.0277,-20.46122 -55.986756,-32.00738 z"
       id="path861"
       sodipodi:nodetypes="ccccccc" />
    <path
       style="fill:#000000;stroke:#000000;stroke-width:0.540841px;stroke-linecap:butt;stroke-linejoin:miter;stroke-opacity:1"
       d="m 58.110225,142.07297 -2.323966,1.95417 c 18.309201,12.16601 36.750118,24.25671 60.845851,33.11636 l 17.32411,34.64834 2.53518,-0.10398 C 129.32508,199.01752 122.68165,186.7217 117.47699,175.45388 94.309992,166.23644 74.801254,154.95079 58.110225,142.07322 Z"
       id="path863"
       sodipodi:nodetypes="ccccccc" />
    <path
       style="fill:#000000;stroke:#000000;stroke-width:0.540841px;stroke-linecap:butt;stroke-linejoin:miter;stroke-opacity:1"
       d="m 127.4598,139.80211 c 0.42246,0.89683 7.55301,8.18639 7.55301,8.18639 1.20132,4.44564 -2.28111,6.369 -4.48971,8.97864 l -1.63744,1.90178 c 3.27519,5.75751 7.10928,12.07364 10.93357,18.3804 l 7.86946,9.50689 6.86621,12.94043 4.91189,12.04229 1.74335,0.10464 c -3.11492,-7.16726 -6.35845,-15.74929 -9.29618,-20.96819 -3.73215,-5.88165 -7.46483,-12.18987 -11.19725,-16.37328 -3.76188,-6.07418 -6.28765,-11.08901 -8.08082,-15.4759 1.8816,-2.68831 4.99925,-3.96488 5.12335,-8.66171 -1.24824,-1.90331 -2.21347,-3.63818 -5.49312,-6.76043 z"
       id="path865"
       sodipodi:nodetypes="ccccccccccccccc" />
    <path
       style="fill:#000000;stroke:#000000;stroke-width:0.540841px;stroke-linecap:butt;stroke-linejoin:miter;stroke-opacity:1"
       d="m 138.49862,154.22045 c 2.8991,3.28658 2.97423,6.39664 1.3733,9.40188 3.10051,4.49594 5.36742,8.80091 7.6057,13.09842 5.80731,4.75403 6.97188,9.92989 10.45799,14.89477 3.50646,6.66371 5.44879,13.48338 7.60552,20.2818 l 1.47892,-0.21097 c -2.4777,-7.11296 -4.91917,-14.22562 -8.76783,-21.33841 -4.18458,-6.69025 -7.78841,-13.38052 -12.99291,-20.07082 l -3.69724,-6.54939 c 2.08078,-3.27472 0.15486,-6.54916 -1.90143,-9.82403 z"
       id="path867"
       sodipodi:nodetypes="ccccccccccc" />
    <path
       style="fill:#333333;stroke:#000000;stroke-width:0.540841px;stroke-linecap:butt;stroke-linejoin:miter;stroke-opacity:1"
       d="m 54.835534,159.18536 c 10.022868,8.41556 18.71582,16.83149 31.584905,25.24691 2.773962,-1.31416 7.872079,-1.92175 17.112811,-1.26785 -1.10096,-1.74283 -0.27719,-2.93625 -4.964838,-5.70409 -3.189249,-1.06217 -6.86829,-2.06933 -12.570584,-2.85197 -6.133357,-6.30121 -19.074806,-10.74561 -31.162294,-15.423 z"
       id="path873"
       sodipodi:nodetypes="cccccc" />
    <path
       style="fill:#1a1a1a;stroke:#000000;stroke-width:0.540841px;stroke-linecap:butt;stroke-linejoin:miter;stroke-opacity:1"
       d="m 106.06867,190.1368 1.58429,7.71053 3.69735,13.83902 13.94385,0.10424 -5.59871,-18.06329 c 0,0 -3.48577,-1.9019 -4.01404,-2.0076 -0.52832,-0.10408 -3.38052,-3.69718 -3.38052,-3.69718 z"
       id="path875" />
  </g>
</svg>
