<?xml version="1.0" encoding="UTF-8" standalone="no"?>
<svg
   xmlns:dc="http://purl.org/dc/elements/1.1/"
   xmlns:cc="http://creativecommons.org/ns#"
   xmlns:rdf="http://www.w3.org/1999/02/22-rdf-syntax-ns#"
   xmlns:svg="http://www.w3.org/2000/svg"
   xmlns="http://www.w3.org/2000/svg"
   xmlns:sodipodi="http://sodipodi.sourceforge.net/DTD/sodipodi-0.dtd"
   xmlns:inkscape="http://www.inkscape.org/namespaces/inkscape"
   sodipodi:docname="website.svg"
   inkscape:version="1.0 (4035a4fb49, 2020-05-01)"
   id="svg8"
   version="1.1"
   viewBox="0 0 100 100"
   height="100mm"
   width="100mm">
  <defs
     id="defs2" />
  <sodipodi:namedview
     inkscape:window-maximized="1"
     inkscape:window-y="-8"
     inkscape:window-x="-8"
     inkscape:window-height="1027"
     inkscape:window-width="1920"
     inkscape:snap-object-midpoints="false"
     showgrid="false"
     inkscape:document-rotation="0"
     inkscape:current-layer="layer2"
     inkscape:document-units="mm"
     inkscape:cy="168.15586"
     inkscape:cx="53.890522"
     inkscape:zoom="1.4"
     inkscape:pageshadow="2"
     inkscape:pageopacity="0.0"
     borderopacity="1.0"
     bordercolor="#666666"
     pagecolor="#ffffff"
     id="base" />
  <metadata
     id="metadata5">
    <rdf:RDF>
      <cc:Work
         rdf:about="">
        <dc:format>image/svg+xml</dc:format>
        <dc:type
           rdf:resource="http://purl.org/dc/dcmitype/StillImage" />
        <dc:title />
      </cc:Work>
    </rdf:RDF>
  </metadata>
  <g
     style="display:inline;opacity:1"
     inkscape:label="web"
     id="layer2"
     inkscape:groupmode="layer">
    <path
       d="M 49.506028,5.0022263e-7 46.367199,0.1297084 43.242843,0.4563034 40.145358,0.9782354 37.086629,1.693954 34.07906,2.5998418 31.134539,3.693315 28.263913,4.9692062 25.47907,6.4228643 l -2.687692,1.6257405 -2.580204,1.7911051 -2.462899,1.9497521 -2.335774,2.10013 -2.199349,2.243274 -2.053622,2.376599 -1.9006595,2.501139 -1.739945,2.615345 -1.572514,2.719214 -1.398364,2.812746 -1.218531,2.895431 -1.035078,2.965712 -0.84646,3.025137 -0.654741,3.072165 -0.460954,3.107303 -0.264583,3.130042 L 5.0022265e-7,50.494076 0.1297085,53.632902 l 0.326595,3.12384 0.521932,3.097485 0.715718,3.058729 0.905888,3.008085 1.093473,2.944524 1.275892,2.870626 1.453658,2.784324 1.62574,2.688209 1.791105,2.580203 1.9497525,2.462901 2.10013,2.335773 2.243274,2.199349 2.376599,2.053622 2.50114,1.900658 2.615344,1.739948 2.719214,1.571995 2.812746,1.398365 2.895431,1.219047 2.965712,1.035079 3.025137,0.84646 3.072165,0.654741 3.107303,0.460954 3.130042,0.264583 3.140377,0.06769 3.138826,-0.129705 3.12384,-0.326593 3.097485,-0.521933 3.058729,-0.715719 3.008084,-0.905889 2.944524,-1.093472 2.870626,-1.27589 2.784325,-1.453661 2.688209,-1.62574 2.580203,-1.791105 2.4629,-1.949751 2.335774,-2.100646 2.199349,-2.242757 2.053622,-2.376601 1.900658,-2.501138 1.739948,-2.615345 1.571995,-2.719729 1.398365,-2.812748 1.219047,-2.894915 1.035079,-2.965709 0.84646,-3.02514 0.654741,-3.072165 0.460954,-3.107303 0.264583,-3.13004 0.06769,-3.140376 L 99.870393,46.367195 99.5438,43.242839 99.021867,40.145354 98.306148,37.086625 97.400259,34.079056 96.306787,31.134535 95.030897,28.263909 93.577237,25.479066 91.951496,22.791374 90.160392,20.21117 88.21064,17.748271 86.109994,15.412496 83.867237,13.213147 81.490636,11.159526 78.989498,9.2588669 76.374152,7.5189214 73.654424,5.9464074 70.841675,4.5480433 67.946761,3.3295129 64.981052,2.2944341 61.955912,1.4479741 58.883747,0.7932338 55.776444,0.33228 52.646404,0.0676967 Z M 47.618287,5.1795293 47.782101,30.69735 C 42.277029,30.35176 36.960023,29.402027 31.842506,27.814839 35.978319,20.269638 39.390991,12.724743 47.618287,5.1795293 Z M 52.6309,5.2601444 C 60.858195,12.805359 64.270868,20.350771 68.40668,27.895971 63.289166,29.483159 57.972676,30.432376 52.467602,30.777966 Z M 39.951572,5.8797449 C 35.162529,12.160116 30.312309,18.379384 27.256221,26.392705 23.24717,24.695564 19.423539,22.850451 16.298235,20.446298 22.377459,12.206102 31.073095,8.8713436 39.951572,5.8797449 Z M 60.358593,5.936589 C 69.23707,8.928187 77.932704,12.262433 84.01193,20.502625 80.886624,22.906778 77.062971,24.752408 73.053944,26.449549 69.997855,18.436225 65.147636,12.21696 60.358593,5.936589 Z M 13.134604,24.001636 c 3.419382,2.497423 6.874546,4.987498 12.756844,6.992339 -1.94207,5.480653 -2.674397,10.961235 -3.118156,16.441891 L 4.9139165,47.247247 c 1.010008,-7.748514 2.725779,-15.497098 8.2206875,-23.245611 z m 73.538145,0.331763 c 5.494909,7.748511 7.210679,15.497098 8.220686,23.245609 L 77.03406,47.768145 c -0.443759,-5.480656 -1.176086,-10.961753 -3.118154,-16.442409 5.882296,-2.004838 9.337461,-4.494914 12.756843,-6.992337 z m -16.775721,8.167976 c 2.025724,5.198581 2.448028,10.168533 2.740403,15.119493 h -19.65513 l -0.188619,-11.90625 c 6.452418,-0.789207 12.640794,-1.67784 17.103346,-3.213243 z m -39.375373,0.0047 c 4.462555,1.535398 10.650929,2.423514 17.103349,3.212718 L 47.43587,47.625043 H 27.781255 c 0.292375,-4.95096 0.714679,-9.920393 2.7404,-15.118974 z m -7.758182,20.289718 c 0.44376,5.480653 1.176603,10.961753 3.118673,16.442406 -5.882297,2.004841 -9.337462,4.494917 -12.756844,6.992337 C 7.6303945,68.482026 5.9141075,60.733441 4.9040975,52.984927 Z m 54.636458,0 17.859376,0.189134 c -1.01001,7.748471 -2.72578,15.497056 -8.220689,23.245566 -3.419383,-2.49742 -6.874545,-4.987496 -12.756844,-6.992337 1.942071,-5.480653 2.674398,-10.961753 3.118157,-16.442406 z m -24.46104,0.03049 h 19.654614 c -0.292375,4.95096 -0.714679,9.920393 -2.7404,15.118974 C 65.39055,66.409808 59.202173,65.521695 52.749756,64.732488 Z m -25.03878,0.267168 h 19.654615 l 0.189135,11.90625 c -6.452418,0.789204 -12.641313,1.677836 -17.103865,3.21324 -2.025725,-5.198581 -2.44751,-10.168533 -2.739885,-15.11949 z M 47.757812,70.154424 47.594516,95.672246 C 39.367218,88.127033 35.954546,80.582148 31.818735,73.036935 36.936251,71.449748 42.25274,70.500018 47.757812,70.154424 Z m 4.244187,0.261999 c 5.505071,0.345593 10.821561,1.295326 15.939078,2.882513 -4.135812,7.545213 -7.547969,15.090095 -15.775264,22.635311 z M 27.904762,74.2906 C 30.96085,82.303924 35.81107,88.523188 40.600111,94.80356 31.721633,91.811962 23.026001,88.477204 16.946774,80.237007 20.072081,77.832855 23.895686,75.987741 27.904762,74.2906 Z m 44.679441,0.11679 c 4.009069,1.69714 7.832682,3.542771 10.957988,5.946923 -6.079225,8.240196 -14.77486,11.574438 -23.653336,14.566037 4.78904,-6.280372 9.639262,-12.499636 12.695348,-20.51296 z"
       inkscape:transform-center-y="0.48880556"
       inkscape:transform-center-x="-0.0578215"
       style="display:inline;opacity:1;fill:#ffffff;fill-rule:evenodd;stroke:#333333;stroke-width:0"
       id="path855" />
  </g>
</svg>
