<?xml version="1.0" encoding="UTF-8" standalone="no"?>
<svg
   xmlns:dc="http://purl.org/dc/elements/1.1/"
   xmlns:cc="http://creativecommons.org/ns#"
   xmlns:rdf="http://www.w3.org/1999/02/22-rdf-syntax-ns#"
   xmlns:svg="http://www.w3.org/2000/svg"
   xmlns="http://www.w3.org/2000/svg"
   xmlns:sodipodi="http://sodipodi.sourceforge.net/DTD/sodipodi-0.dtd"
   xmlns:inkscape="http://www.inkscape.org/namespaces/inkscape"
   width="1920"
   height="1080"
   viewBox="0 0 508 285.75001"
   version="1.1"
   id="svg8"
   inkscape:version="1.0 (4035a4fb49, 2020-05-01)"
   sodipodi:docname="earth - Copy.svg">
  <defs
     id="defs2" />
  <sodipodi:namedview
     id="base"
     pagecolor="#ffffff"
     bordercolor="#666666"
     borderopacity="1.0"
     inkscape:pageopacity="0.0"
     inkscape:pageshadow="2"
     inkscape:zoom="0.24748737"
     inkscape:cx="317.37087"
     inkscape:cy="927.65573"
     inkscape:document-units="mm"
     inkscape:current-layer="layer2"
     inkscape:document-rotation="0"
     showgrid="false"
     inkscape:window-width="1920"
     inkscape:window-height="1027"
     inkscape:window-x="-8"
     inkscape:window-y="-8"
     inkscape:window-maximized="1"
     units="px"
     inkscape:snap-nodes="true"
     inkscape:object-paths="true"
     inkscape:object-nodes="false"
     inkscape:snap-others="false" />
  <metadata
     id="metadata5">
    <rdf:RDF>
      <cc:Work
         rdf:about="">
        <dc:format>image/svg+xml</dc:format>
        <dc:type
           rdf:resource="http://purl.org/dc/dcmitype/StillImage" />
        <dc:title />
      </cc:Work>
    </rdf:RDF>
  </metadata>
  <g
     inkscape:groupmode="layer"
     id="layer2"
     inkscape:label="earth"
     style="display:inline;opacity:1">
    <path
       style="fill:#ffffff;stroke:#000000;stroke-width:0;stroke-linecap:butt;stroke-linejoin:miter;stroke-miterlimit:4;stroke-dasharray:none;stroke-opacity:1"
       d="m 224.10696,134.83624 c -1.93727,2.17135 -3.31317,4.06201 -4.54358,5.87993 l -3.74179,5.34539 c 0,0 -1.67632,0.52788 -2.13815,1.20272 -0.35578,0.51987 -0.26726,1.87088 -0.26726,1.87088 -1.14492,1.66144 -1.43103,3.57719 -2.21551,4.2731 l -5.85864,5.19718 c -2.63732,2.72415 -2.40768,4.4675 -1.70088,6.04761 1.01943,1.72228 2.416,2.59598 3.77976,3.54353 1.72541,0.72406 3.00216,0.66297 4.01598,0.14174 l 2.07888,-2.97656 c 2.02992,-2.18911 3.93965,-4.37823 7.08705,-6.56734 1.0038,-0.83663 1.65557,-1.61459 2.12611,-2.36235 1.83965,-1.10243 3.16933,-2.20486 4.29948,-3.30729 2.10873,-1.57457 3.17951,-2.94156 4.44122,-4.34673 l 2.78757,-2.69308 c 2.4202,-2.12263 3.66178,-4.04883 5.05545,-6.00037 l 1.22841,-0.23623 c 1.31101,-1.56669 2.35045,-2.22815 3.4018,-2.92932 l 0.56695,-0.42522 c 0.82668,-0.23348 1.1402,-0.51447 1.37017,-0.8032 l 3.07107,-3.54353 c -0.0211,0.54074 -0.13435,1.11837 -0.37799,1.74814 -0.72384,1.58978 -1.18894,2.81733 -1.7009,4.11049 l -0.6142,1.84264 -0.33073,1.6064 -1.7009,1.98437 0.14174,0.37798 c -1.02972,0.9539 -1.36574,1.72281 -1.74813,2.50409 -2.36898,1.30717 -4.19838,2.61433 -6.04763,3.9215 -0.18753,0.4948 -0.5401,0.75381 -1.03942,0.8032 l -6.19223,4.57338 c -1.68722,0.8815 -1.66685,1.51003 -2.26499,2.23019 l -0.68676,1.1029 c -2.17401,1.19692 -3.76708,2.39385 -4.25223,3.59077 -1.18425,1.49075 -2.19535,2.98151 -2.71504,4.47226 l -1.51191,2.97656 c -1.33269,2.7522 -0.44247,4.05691 0.0473,5.62239 0.48563,1.06428 1.11893,2.08917 2.26785,2.97657 1.2366,0.49141 2.45592,1.02599 4.29948,0 1.30963,-1.37016 2.09377,-2.74033 2.88208,-4.11049 0.96791,-1.43316 1.70537,-2.86632 2.40958,-4.29948 0.66146,-0.91534 1.32292,-1.65268 1.98438,-2.07887 2.4808,-0.7402 3.42833,-1.42822 5.48066,-2.12612 1.91251,-1.39287 3.08601,-2.67367 4.39398,-3.85063 1.60818,-0.6388 2.82856,-1.23563 3.59077,-2.008 2.50805,-0.64427 3.0837,-1.2414 3.82702,-1.84263 1.17592,-0.62676 2.46509,-1.18055 3.35451,-1.98438 0.49454,-0.23272 0.87493,-0.62244 1.17623,-1.07848 0.37587,-0.5689 0.84921,-0.97877 1.13888,-1.42561 1.25636,-0.76078 2.31808,-1.57023 3.07107,-2.45685 l 4.44122,-4.34672 c 1.1002,-1.73239 2.35211,-3.46478 3.16555,-5.19717 l 1.08667,-2.07888 c 2.93449,-3.47945 1.68621,-5.28579 2.07889,-7.74851 0.22851,1.54256 1.75886,-0.29966 3.20876,-1.93272 1.8807,-2.03332 3.48703,-4.03371 3.80859,-5.87993 1.5485,-0.755 3.10644,-1.47225 4.40995,-3.20723 0,0 2.00094,-0.21843 2.70107,-0.85172 0.77754,-0.7033 1.24114,-2.89006 1.24114,-2.89006 0.26831,0.86878 0.56799,1.74203 1.26955,2.6727 0.0936,0.82367 0.0996,1.67519 1.53678,2.07134 0.25797,1.30178 0.24594,2.5698 0,3.80859 -0.18898,0.83381 -0.57287,1.55625 -1.20269,2.13815 0,0 -0.47705,2.18653 -0.48799,3.29767 -0.007,0.75546 0.28755,2.24818 0.28755,2.24818 l -0.60134,1.5368 c 0.29127,0.82005 0.81267,1.10314 1.67045,0.60135 0.89312,-1.2495 1.50807,-2.15864 2.53904,-2.20497 0.58448,-0.0263 0.51467,1.06085 0.33409,1.73725 l -0.80182,1.26953 -1.40316,2.47224 c 0,0 -0.66904,2.14377 0.0668,2.60588 1.05524,0.66268 3.40768,-1.5368 3.40768,-1.5368 1.01299,-1.48632 2.05183,-2.6367 3.00677,-4.87767 1.05478,-0.69521 1.49804,-1.59427 1.80409,-2.53906 1.27302,-2.0533 2.15178,-4.01561 2.60588,-5.87993 l -0.0668,-0.73499 2.3386,-3.54132 c -1.08529,-1.15817 -1.65913,-2.31633 -3.47448,-3.4745 0.63652,-1.48786 1.13459,-2.99303 1.26952,-4.54359 0.14487,-0.34407 -4.15151,-9.41825 -4.69342,-9.075 -0.81602,-0.74822 -1.53559,-1.51129 -3.14042,-2.13816 0.43903,-1.10837 1.47582,-2.14125 1.21891,-3.88756 l 1.93771,1.40316 c 0,0 2.60588,-1.87088 3.00677,-2.27179 0.40093,-0.4009 2.60588,-2.6727 2.60588,-2.6727 l -0.60134,-1.26952 c 0.83806,-0.68309 1.67449,-1.36912 2.20496,-2.60588 l 2.07134,1.20271 c 0.62776,-0.70451 0.88818,-1.39143 1.00227,-2.07134 v -1.20271 l -1.33636,-1.00226 c 0.20069,-3.04909 0.15649,-6.41427 -2.55121,-9.17355 -3.712,-3.782713 -6.61432,-3.152661 -9.4759,-3.187668 l -0.80182,0.334087 c -0.6982,-0.857844 -1.12606,-1.821473 -3.20723,-2.138156 -1.84027,0.528287 -2.12149,1.185653 -2.87316,1.804069 l 1.60364,1.737252 -1.73725,-0.601356 c 0,0 -0.9791,0.66175 -1.40317,1.069082 -0.60466,0.58079 -1.60364,1.9377 -1.60364,1.9377 l 1.20272,1.60362 c 0.13688,0.68093 0.14371,1.29683 -0.4677,1.60362 l -1.67045,-1.53681 c 0,0 -0.78187,0.21145 -1.13588,0.40091 -0.49093,0.26274 -0.94785,0.60339 -1.33636,1.00226 -0.59074,0.60649 -1.46997,2.07134 -1.46997,2.07134 l -4.07588,-2.87315 c -2.20086,-2.18995 -4.26854,-2.44869 -6.34765,-2.87315 -2.705,-0.53388 -5.40459,-1.05758 -7.61717,-0.66817 -2.59307,-0.20212 -4.49705,-0.0332 -6.28084,0.20045 -2.38947,0.20418 -4.12457,1.26408 -4.87767,3.60814 -1.38612,1.75008 -1.64104,3.38314 -1.20272,4.94449 -2.76478,1.96456 -3.53309,3.84039 -3.4745,5.67947 0,0 0.15426,2.00887 0.91587,2.11929 0.42268,0.0613 0.82138,-0.98339 0.82138,-0.98339 0,0 0.0933,1.53423 0.66818,1.60362 0.52186,0.063 0.93543,-1.26953 0.93543,-1.26953 0,0 0.37192,1.75324 1.06908,1.80407 0.60018,0.0438 1.13591,-1.40317 1.13591,-1.40317 0,0 -0.004,1.79452 0.66818,2.00452 0.74407,0.23243 1.87087,-1.40316 1.87087,-1.40316 0,0 0.77651,1.68375 1.46999,1.5368 1.15788,-0.24536 1.34446,-3.29362 1.34446,-3.29362 l 0.19235,-2.31904 c 1.60318,-0.79449 2.46323,-0.82017 3.47448,-1.00226 0.72539,0.60408 -0.0356,1.46193 3.00681,1.67043 l 2.3386,0.46772 c 1.48668,0.40807 1.03834,1.09256 1.33635,1.67044 -2.20432,0.70087 -3.67726,1.73418 -5.21176,2.73951 0,0 -1.90056,2.50833 -3.07361,3.54132 -1.32589,1.16758 -4.40994,2.93997 -4.40994,2.93997 0,0 -0.97045,2.61947 -1.71293,3.79041 -0.94449,1.48954 -3.432,4.02722 -3.432,4.02722 0,0 -3.23841,1.86508 -4.81087,2.87315 -1.88792,1.2103 -5.54582,3.80859 -5.54582,3.80859 0,0 -0.63103,2.46205 -1.26955,3.54132 -0.39367,0.66541 -1.68553,1.30286 -1.53678,1.73725 0.41638,1.21592 -0.35234,0.90608 -0.53454,1.26953 -0.46916,0.93585 -0.53486,1.89324 -0.66818,2.80633 -0.7105,-0.48877 -0.84226,0.63007 -1.00227,1.67044 -2.73862,0.97999 -3.25829,1.95997 -3.54131,2.93996 -0.47194,0.67027 -0.94409,1.34064 -1.93779,2.27179 z"
       id="path1120"
       sodipodi:nodetypes="cccscsccccccccccccccccccccccccccccccccccccccccccscccccccccscccccscccscccsccccccccccccscccccccsccccccsccccssccccccccscscscscscccccccscscscssscccc" />
    <path
       style="fill:#ff0000;stroke:#000000;stroke-width:0;stroke-linecap:butt;stroke-linejoin:miter;stroke-miterlimit:4;stroke-dasharray:none;stroke-opacity:1"
       d="m 232.02481,123.44388 1.1359,-1.10249 c 3.09755,-0.42429 4.42161,0.33375 5.98017,0.93545 1.41177,0.59435 3.02096,1.61174 4.74403,2.87314 1.17839,1.30939 2.2161,2.64435 2.90656,4.04245 0.43074,1.38916 0.42231,2.72952 0.4677,4.07586 l -0.93543,0.96886 c -0.18259,-1.57263 0.0216,-3.17749 -0.63477,-4.71063 -0.72385,-1.22032 -1.44771,-2.26487 -2.17156,-3.04019 -1.79967,-1.53269 -3.47645,-2.32807 -5.14493,-3.0736 -1.32935,-0.52741 -3.78562,-1.36814 -5.06143,-1.16931 z"
       id="path1137"
       sodipodi:nodetypes="ccccccccccsc" />
    <path
       style="fill:#ff0000;fill-opacity:1;stroke:#000000;stroke-width:0;stroke-linecap:butt;stroke-linejoin:miter;stroke-miterlimit:4;stroke-dasharray:none;stroke-opacity:1"
       d="m 246.63594,138.59632 0.40159,-0.92132 c 0.68438,-0.47155 0.81254,-0.91221 2.52772,-1.44103 3.09162,0.18234 4.91801,0.87077 6.44922,1.67727 2.73612,1.52002 3.83809,3.03919 5.55151,4.55934 0.82763,1.13149 0.73501,2.79979 0.85045,4.34672 l -1.13392,1.18118 c 0,0 0.45278,-2.83895 -0.0945,-4.08687 -0.74258,-1.69324 -2.43918,-2.67829 -3.99238,-3.85063 -1.40867,-0.70232 -2.10508,-1.48844 -4.46484,-2.07887 -1.01939,-0.23235 -2.65462,-0.80963 -3.96875,-0.56696 -0.79725,0.14722 -2.1261,1.18117 -2.1261,1.18117 z"
       id="path1139"
       sodipodi:nodetypes="cccccccaccac" />
    <path
       style="fill:#333333;fill-opacity:1;stroke:#000000;stroke-width:0;stroke-linecap:butt;stroke-linejoin:miter;stroke-miterlimit:4;stroke-dasharray:none;stroke-opacity:1"
       d="m 284.69411,81.12368 c -0.54006,0.78765 -1.14521,1.55089 -2.38667,2.07551 l -0.89771,0.75595 c -0.58765,2.61401 -0.36938,5.28174 0.37799,7.98475 2.00071,2.73032 4.13667,5.22877 6.75632,6.89806 3.30056,-0.53312 6.45764,-1.85533 9.40215,-4.34672 1.16006,-1.64174 2.52382,-2.71484 2.59861,-5.85864 0.0498,-2.09494 -0.009,-4.21702 -1.89564,-6.39554 -1.8346,-2.11887 -4.68139,-2.93446 -7.6793,-3.42946 -3.04457,-0.5027 -5.23072,0.12167 -6.77256,1.55677 z"
       id="path1162"
       sodipodi:nodetypes="ccccccssscc" />
    <path
       style="opacity:1;fill:#000080;fill-opacity:1;stroke:#000000;stroke-width:0;stroke-linecap:butt;stroke-linejoin:miter;stroke-miterlimit:4;stroke-dasharray:none;stroke-opacity:1"
       d="m 263.26688,79.60841 c 1.65864,0.37022 3.13764,0.45302 5.07905,1.27567 1.73287,0.99521 1.28734,2.30616 0.42524,2.05525 -0.30589,0.15125 -3.53567,-0.46941 -3.85064,-1.11031 l -0.75594,0.47247 c -0.35232,0.0983 -0.54295,-0.12679 -0.70871,-0.4016 z"
       id="path1164"
       sodipodi:nodetypes="ccccccc" />
    <path
       style="fill:#999999;fill-opacity:1;stroke:#000000;stroke-width:0;stroke-linecap:butt;stroke-linejoin:miter;stroke-miterlimit:4;stroke-dasharray:none;stroke-opacity:1"
       d="m 248.66755,110.83869 c 5.72189,6.43388 12.28578,12.49353 19.13506,18.42634 0.8523,-0.60356 2.407,-0.1535 2.12611,-2.45684 -5.69087,-6.38267 -12.13725,-12.35853 -19.46579,-17.85938 -1.48014,0.3895 -1.67479,1.12959 -1.79538,1.88988 z"
       id="path1166"
       sodipodi:nodetypes="ccccc" />
    <path
       id="path1168"
       style="fill:#cccccc;fill-opacity:1;stroke:#000000;stroke-width:0;stroke-linecap:butt;stroke-linejoin:miter;stroke-miterlimit:4;stroke-dasharray:none;stroke-opacity:1"
       d="m 279.86587,93.476447 -1.20251,1.035595 -1.50325,-0.902271 -4.17598,4.243152 -1.53685,-1.102776 -1.87122,1.436606 -3.30729,3.741887 2.13836,2.17145 1.23611,-1.0356 6.44768,5.74642 -1.10228,1.16944 3.5078,2.83962 5.34543,-4.77749 4.3098,-4.71082 -3.87573,-4.075721 0.96893,-1.035597 z m -0.0346,0.974101 4.48291,3.934126 -1.00457,0.861963 3.71759,4.191473 -3.75894,4.1057 -4.62089,4.43073 -2.59832,-1.82004 1.12035,-1.37821 -7.41143,-6.77168 -1.43607,1.22938 -1.11364,-1.27589 3.36053,-3.502113 0.88209,-0.807704 1.49554,1.120347 4.34546,-4.168738 1.29966,0.77928 z" />
    <path
       style="opacity:1;fill:#999999;fill-opacity:1;stroke:#000000;stroke-width:0;stroke-linecap:butt;stroke-linejoin:miter;stroke-miterlimit:4;stroke-dasharray:none;stroke-opacity:1"
       d="m 270.93957,98.76567 -1.70249,1.83872 4.78893,4.35886 1.76402,-1.91044 z"
       id="path1186" />
    <path
       style="fill:#cccccc;fill-opacity:1;stroke:#000000;stroke-width:0;stroke-linecap:butt;stroke-linejoin:miter;stroke-miterlimit:4;stroke-dasharray:none;stroke-opacity:1"
       d="m 281.22074,84.66384 -3.16553,2.31511 c -1.39724,-0.13608 -2.03046,-0.65417 -2.74034,-1.13393 1.02698,-1.51684 1.87833,-3.22283 4.01601,-3.54353 l 2.17336,1.7009 z"
       id="path1188"
       sodipodi:nodetypes="cccccc" />
    <path
       style="fill:#cccccc;fill-opacity:1;stroke:#000000;stroke-width:0;stroke-linecap:butt;stroke-linejoin:miter;stroke-miterlimit:4;stroke-dasharray:none;stroke-opacity:1"
       d="m 279.25087,86.05312 c 1.3701,2.9352 2.11563,5.96653 4.55742,8.79292 3.06125,3.54343 6.15441,4.61284 7.63388,4.69392 0.0617,0.80905 -0.3328,1.29889 -1.41987,1.13589 -3.22123,-1.18598 -5.34002,-2.66762 -7.04922,-4.66051 -2.39874,-2.79688 -4.08599,-6.15687 -5.01132,-8.98693 z"
       id="path1190"
       sodipodi:nodetypes="csccscc" />
    <path
       style="fill:#666666;stroke:#000000;stroke-width:0;stroke-linecap:butt;stroke-linejoin:miter;stroke-miterlimit:4;stroke-dasharray:none;stroke-opacity:1"
       d="m 279.06426,86.19319 c 1.02772,2.82489 2.73261,5.77957 4.49522,8.4634 2.30816,3.51451 4.83102,3.80284 7.32329,5.1263 l 0.28347,-0.30711 c -3.17529,-1.39272 -5.72193,-2.76832 -7.31146,-5.01999 -1.84093,-2.6078 -3.53232,-5.63216 -4.61841,-8.46903 z"
       id="path1192"
       sodipodi:nodetypes="csccscc" />
    <path
       style="fill:#000080;fill-opacity:1;stroke:#000000;stroke-width:0;stroke-linecap:butt;stroke-linejoin:miter;stroke-miterlimit:4;stroke-dasharray:none;stroke-opacity:1"
       d="m 296.00246,109.36212 -2.17157,-0.31739 c 0,0 1.38374,1.97004 1.70384,3.10701 0.22358,0.79413 0.11694,2.47224 0.11694,2.47224 0.70804,0.52498 1.42273,1.10312 2.08804,1.28624 0,0 0.32598,-1.17935 0.25056,-1.77066 -0.21823,-1.71097 -1.98781,-4.77744 -1.98781,-4.77744 z"
       id="path1194"
       sodipodi:nodetypes="ccsccsc" />
    <path
       style="fill:#000000;stroke:#000000;stroke-width:0;stroke-linecap:butt;stroke-linejoin:miter;stroke-miterlimit:4;stroke-dasharray:none;stroke-opacity:1"
       d="m 290.15043,79.27768 6.99257,1.55915 c 3.09546,2.75608 2.81967,5.51215 3.44903,8.26823 l -8.92969,2.12612 c -1.13326,1.03428 -1.97888,1.93581 -3.63802,3.2128 -0.34038,-0.40947 -0.54715,-0.81895 -1.08667,-1.22842 l -0.37799,0.0945 -0.75594,-1.70089 h -0.42524 l -0.0945,-0.51972 0.99219,-0.70871 c 0.091,-0.45672 0.20693,-0.91344 -0.0473,-1.37016 l -0.56695,0.56696 c -0.73346,-0.89469 -1.54257,-1.58764 -2.40961,-2.12611 l -1.46465,-1.03944 0.0945,-0.51971 c 1.30339,-0.18374 1.21323,-0.34672 1.79541,-0.51972 l 1.03942,-1.46466 1.41742,-0.47247 0.23622,-0.56696 -1.13392,0.47247 0.90456,-0.95625 0.74908,-0.79189 -0.56695,-0.56697 0.94494,-0.37797 c 0,0 1.32291,-0.28349 1.79538,-0.28349 0.47247,0 1.08667,-1.08668 1.08667,-1.08668 z"
       id="path1196"
       sodipodi:nodetypes="cccccccccccccccccccccccccscc" />
    <path
       style="fill:#999999;fill-opacity:1;stroke:#000000;stroke-width:0;stroke-linecap:butt;stroke-linejoin:miter;stroke-miterlimit:4;stroke-dasharray:none;stroke-opacity:1"
       d="m 230.5247,128.83981 6.42559,4.15774 5.38617,5.10268 -4.34673,-5.00819 z"
       id="path1238" />
    <path
       style="fill:#999999;fill-opacity:1;stroke:#000000;stroke-width:0;stroke-linecap:butt;stroke-linejoin:miter;stroke-miterlimit:4;stroke-dasharray:none;stroke-opacity:1"
       d="m 226.93393,132.2416 c 0,0 3.02646,4.84469 5.10268,6.75632 1.49464,1.37615 5.14993,3.26004 5.14993,3.26004 0,0 -3.55367,-2.13655 -5.05545,-3.54352 -2.01929,-1.89181 -5.19716,-6.47284 -5.19716,-6.47284 z"
       id="path1240"
       sodipodi:nodetypes="cscsc" />
    <path
       style="fill:#999999;fill-opacity:1;stroke:#000000;stroke-width:0;stroke-linecap:butt;stroke-linejoin:miter;stroke-miterlimit:4;stroke-dasharray:none;stroke-opacity:1"
       d="m 226.51237,139.98118 c 0,0 2.37822,2.52399 3.87543,3.34087 1.17232,0.63962 3.84199,1.13589 3.84199,1.13589 0,0 -2.59756,-0.80902 -3.77518,-1.46998 -1.44119,-0.80889 -3.94224,-3.00678 -3.94224,-3.00678 z"
       id="path1242"
       sodipodi:nodetypes="cscsc" />
    <path
       style="fill:#999999;fill-opacity:1;stroke:#000000;stroke-width:0;stroke-linecap:butt;stroke-linejoin:miter;stroke-miterlimit:4;stroke-dasharray:none;stroke-opacity:1"
       d="m 224.04013,140.34868 c 0,0 3.44719,3.60623 5.44563,5.07812 0.93979,0.69217 3.04019,1.73725 3.04019,1.73725 0,0 -2.41804,-0.75644 -3.44109,-1.46998 -2.00951,-1.40156 -5.04473,-5.34539 -5.04473,-5.34539 z"
       id="path1244"
       sodipodi:nodetypes="cscsc" />
    <path
       style="fill:#999999;fill-opacity:1;stroke:#000000;stroke-width:0;stroke-linecap:butt;stroke-linejoin:miter;stroke-miterlimit:4;stroke-dasharray:none;stroke-opacity:1"
       d="m 223.37198,143.22182 c 0,0 2.73949,1.77066 2.87314,1.77066 0.13364,0 1.82808,1.82812 2.97336,2.37202 0.61758,0.29329 2.00453,0.43431 2.00453,0.43431 0,0 -1.70383,-0.86862 -1.97112,-1.00226 -0.26725,-0.13363 -1.93999,-1.56723 -3.00677,-2.20497 -0.91066,-0.54441 -2.87314,-1.36976 -2.87314,-1.36976 z"
       id="path1246"
       sodipodi:nodetypes="csscssc" />
    <path
       style="fill:#999999;fill-opacity:1;stroke:#000000;stroke-width:0;stroke-linecap:butt;stroke-linejoin:miter;stroke-miterlimit:4;stroke-dasharray:none;stroke-opacity:1"
       d="m 214.25139,150.67196 8.28535,4.67722 c 0,0 -2.89819,-1.08437 -4.24288,-1.83748 -1.43675,-0.80467 -4.04247,-2.83974 -4.04247,-2.83974 z"
       id="path1248"
       sodipodi:nodetypes="ccsc" />
    <path
       sodipodi:nodetypes="ccsc"
       id="path1248-7"
       d="m 214.1625,153.32143 7.92052,5.27152 c 0,0 -2.81098,-1.29373 -4.0969,-2.14331 -1.37395,-0.90775 -3.82362,-3.12821 -3.82362,-3.12821 z"
       style="display:inline;opacity:1;fill:#999999;fill-opacity:1;stroke:#000000;stroke-width:0;stroke-linecap:butt;stroke-linejoin:miter;stroke-miterlimit:4;stroke-dasharray:none;stroke-opacity:1" />
    <path
       style="fill:#999999;fill-opacity:1;stroke:#000000;stroke-width:0;stroke-linecap:butt;stroke-linejoin:miter;stroke-miterlimit:4;stroke-dasharray:none;stroke-opacity:1"
       d="m 247.76032,143.78977 c 0,0 3.89218,1.40607 5.41221,2.73951 1.66255,1.45846 3.74176,5.47903 3.74176,5.47903 0,0 -1.2181,-4.19161 -2.73952,-5.61266 -1.68659,-1.57532 -6.41445,-2.60588 -6.41445,-2.60588 z"
       id="path1265"
       sodipodi:nodetypes="cscsc" />
    <path
       style="fill:#999999;fill-opacity:1;stroke:#000000;stroke-width:0;stroke-linecap:butt;stroke-linejoin:miter;stroke-miterlimit:4;stroke-dasharray:none;stroke-opacity:1"
       d="m 254.87804,153.86704 -1.6387,-3.39553 c 0.94169,0.26303 1.93167,0.6951 3.24637,2.26368 z"
       id="path1267"
       sodipodi:nodetypes="cccc" />
    <path
       style="fill:#999999;fill-opacity:1;stroke:#000000;stroke-width:0;stroke-linecap:butt;stroke-linejoin:miter;stroke-miterlimit:4;stroke-dasharray:none;stroke-opacity:1"
       d="m 250.65192,149.53401 c 0,0 1.67603,1.15104 2.36236,1.88988 0.68232,0.73453 1.7009,2.48047 1.7009,2.48047 0,0 -0.71411,-2.06333 -1.44105,-2.83483 -0.69463,-0.73721 -2.62221,-1.53552 -2.62221,-1.53552 z"
       id="path1269"
       sodipodi:nodetypes="cacac" />
    <path
       style="fill:#999999;fill-opacity:1;stroke:#000000;stroke-width:0;stroke-linecap:butt;stroke-linejoin:miter;stroke-miterlimit:4;stroke-dasharray:none;stroke-opacity:1"
       d="m 245.52562,149.34502 c 0,0 2.8295,3.36329 4.58298,4.65383 0.92751,0.68264 3.16553,1.63002 3.07105,1.58277 -0.0945,-0.0472 -2.39176,-0.58587 -3.37818,-1.27566 -1.78907,-1.25108 -4.27585,-4.96094 -4.27585,-4.96094 z"
       id="path1273"
       sodipodi:nodetypes="casac" />
    <path
       style="fill:#999999;fill-opacity:1;stroke:#000000;stroke-width:0;stroke-linecap:butt;stroke-linejoin:miter;stroke-miterlimit:4;stroke-dasharray:none;stroke-opacity:1"
       d="m 222.60358,151.574 c 0,0 3.03156,-1.69177 4.71061,-1.97112 0.82572,-0.13738 2.50566,0.16705 2.50566,0.16705 -0.77925,1.01227 -0.16493,1.06905 -3.0569,3.44109 l -4.05915,3.34087 c -0.13642,-0.6459 -0.51902,-1.2918 -0.16706,-1.9377 l 3.64157,-2.37202 c -0.5341,-0.41996 -2.21178,-0.49686 -3.57473,-0.66817 z"
       id="path1275"
       sodipodi:nodetypes="cscccccc" />
    <path
       style="fill:#999999;fill-opacity:1;stroke:#000000;stroke-width:0;stroke-linecap:butt;stroke-linejoin:miter;stroke-miterlimit:4;stroke-dasharray:none;stroke-opacity:1"
       d="m 213.09053,153.73899 c 0,0 1.61994,3.06718 2.88208,4.20499 0.93169,0.83992 3.3073,1.79538 3.3073,1.79538 0,0 -1.93324,-1.32876 -2.78757,-2.12611 -1.25641,-1.17261 -3.40181,-3.87426 -3.40181,-3.87426 z"
       id="path1277"
       sodipodi:nodetypes="cscsc" />
    <path
       style="opacity:1;fill:#999999;fill-opacity:1;stroke:#000000;stroke-width:0;stroke-linecap:butt;stroke-linejoin:miter;stroke-miterlimit:4;stroke-dasharray:none;stroke-opacity:1"
       d="m 205.52934,166.74845 c 0,0 4.7546,1.01024 5.33941,0.49423 l 4.60205,-3.98817 -1.96227,2.126 -2.08017,2.9563 c -0.81351,0.37737 -1.74078,0.61064 -3.2156,0.15033 0,0 -0.35031,-0.11302 -0.81379,-0.29928 -0.55717,-0.36088 -1.64674,-1.15189 -1.86963,-1.43941 z"
       id="path1279"
       sodipodi:nodetypes="cscccccc" />
    <path
       style="fill:#999999;fill-opacity:1;stroke:#000000;stroke-width:0;stroke-linecap:butt;stroke-linejoin:miter;stroke-miterlimit:4;stroke-dasharray:none;stroke-opacity:1"
       d="m 231.79097,168.24493 c 2.3484,-0.84787 3.9285,-1.76078 5.49388,-2.27478 1.97104,-1.21387 3.0176,-2.50726 4.39508,-3.77219 1.86116,-0.71168 2.6159,-1.36803 3.64154,-2.03793 1.68477,-0.5271 3.00544,-1.13884 3.80859,-1.87089 1.5341,-0.84656 3.19251,-1.68356 4.17608,-2.57247 1.22868,-1.64627 2.72943,-2.53364 3.64157,-3.40768 l 4.30972,-4.34313 c 0,0 0.2186,-2.25667 -0.23387,-3.24065 -0.72048,-1.56682 -3.67495,-3.64154 -3.67495,-3.64154 0,0 2.83999,2.29417 3.34086,3.94222 0.31612,1.04016 -0.3675,3.24065 -0.3675,3.24065 l -1.33633,1.23612 c 0,0 0.49275,-1.75592 0.16703,-2.53907 -0.39708,-0.9547 -2.3386,-2.03792 -2.3386,-2.03792 0,0 1.33569,1.34058 1.63703,2.20497 0.1137,0.32615 0.0334,1.03567 0.0334,1.03567 l -0.66815,0.53454 c -0.35626,-0.25613 -0.0226,-0.51227 -1.06908,-0.7684 l -0.20047,0.63476 c 0,0 0.79026,1.09629 0.83523,1.73725 0.036,0.51294 -0.46773,1.46999 -0.46773,1.46999 l -0.56795,0.60135 c 0,0 -1.69865,0.48097 -2.57247,0.56795 -0.58743,0.0585 -1.77067,-0.0334 -1.77067,-0.0334 l 1.0691,0.83522 -1.73725,-0.23386 -1.57022,1.63703 -3.07359,-1.70385 3.70835,3.4411 -0.20045,0.23386 -3.37428,-0.20045 0.93546,1.1693 c 0,0 -1.92233,-0.50061 -2.90656,-0.60136 -0.38775,-0.0397 -1.16932,0 -1.16932,0 l -1.43656,-1.5368 1.67042,3.47451 c 0,0 -1.08835,0.1761 -1.60361,0.0334 -0.44367,-0.12287 -0.79489,-0.46711 -1.1693,-0.73499 -0.92083,-0.65881 -2.6393,-2.13816 -2.6393,-2.13816 l 3.20725,3.27405 -0.80182,0.30068 1.60362,1.43657 c 0,0 -0.48913,0.21879 -0.73499,0.16705 -0.42065,-0.0885 -1.03566,-0.7684 -1.03566,-0.7684 l -1.10249,2.60587 -0.96885,0.53454 -1.43658,-1.23612 -0.96885,0.60136 1.1693,0.86862 c 0,0 -2.02335,0.68794 -2.97336,1.16931 -0.22323,0.11311 -0.63477,0.4009 -0.63477,0.4009 l -0.93546,-1.10248 -0.43431,0.36749 0.46773,0.60136 -0.10022,0.26727 -1.97112,-1.87089 c 0,0 1.9377,2.33861 1.90431,2.47225 -0.0334,0.13363 -0.33409,0.16704 -0.33409,0.16704 l -2.87316,-2.3052 1.33635,2.07134 -2.87313,-2.00453 z"
       id="path1281"
       sodipodi:nodetypes="ccccccccscsccscsccccsccscccccccccscccssccccsccccccsccccccsccccc" />
    <path
       style="fill:#999999;fill-opacity:1;stroke:#000000;stroke-width:0;stroke-linecap:butt;stroke-linejoin:miter;stroke-miterlimit:4;stroke-dasharray:none;stroke-opacity:1"
       d="m 227.66625,166.23583 c 0.0472,0.1719 4.06325,1.94632 4.06325,1.91351 -0.34775,0.2049 -1.03357,0.95961 -1.55916,1.58277 -0.7425,1.31649 -1.50174,2.70091 -2.22059,3.9215 -0.73434,1.18288 -1.47968,2.46165 -2.197,3.49628 -0.43194,0.54333 -1.14228,1.49589 -1.29929,1.46466 -0.18083,0.15369 -0.42213,0.23469 -0.68135,0.32255 -0.96284,0.32634 -1.1565,0.1908 -1.61012,0.26804 l 2.00797,-2.59859 0.68509,0.16537 c 0,0 0.23624,-1.2048 0.33073,-1.2048 0.0945,0 1.08669,-0.14174 1.08669,-0.14174 l -0.40161,-1.27567 c 0.0109,0.1524 1.87409,-3.45762 1.84264,-3.80339 -0.009,-0.0941 0.25985,1.96075 0.25985,1.96075 0,0 0.25987,-1.84263 0.35435,-1.9135 0.16314,-0.9975 0.75004,-1.37167 1.29929,-1.84264 -0.79372,-0.7717 -1.38597,-1.5434 -1.96074,-2.3151 z"
       id="path1283"
       sodipodi:nodetypes="ccccccscccsccscccc" />
    <path
       style="fill:#ececec;stroke:#000000;stroke-width:0.01;stroke-linecap:butt;stroke-linejoin:miter;stroke-miterlimit:4;stroke-dasharray:none;stroke-opacity:1"
       d="m 289.78845,127.01861 1.06908,-2.93997 4.40994,-5.87993 c 2.5467,0.75596 3.59518,2.58045 5.01137,4.14268 l -3.80865,5.67948 h -0.30067 l -0.53457,1.77066 z"
       id="path1384"
       sodipodi:nodetypes="cccccccc" />
    <path
       style="fill:#999999;fill-opacity:1;stroke:#000000;stroke-width:0;stroke-linecap:butt;stroke-linejoin:miter;stroke-miterlimit:4;stroke-dasharray:none;stroke-opacity:1"
       d="m 290.32241,127.27186 c 1.67552,0.79468 3.28061,1.55595 5.31254,2.51967 0.17523,-0.59751 0.38617,-1.2079 0.51446,-1.78846 0.0831,0.0229 0.17317,0.0386 0.34913,-0.0343 0.47083,-0.70294 1.0634,-1.65196 1.4417,-2.08608 0.1762,1.65302 -0.95999,3.3777 -1.65121,5.07809 l -0.88786,1.53683 c -0.31365,1.02787 -0.82275,1.87744 -1.80409,2.53906 -0.87297,2.07083 -1.67744,2.89601 -2.5064,4.16667 -0.89479,1.15522 -1.93828,2.05767 -3.33015,2.36793 0,0 1.84658,-1.81742 1.89381,-1.91191 0.0472,-0.0945 0.003,-0.98301 0.33072,-1.27567 0.28801,-0.2573 1.14709,-0.16301 1.14709,-0.16301 l 2.2405,-3.32575 0.22743,-2.7006 1.71732,-0.20367 -0.13455,-0.83576 -1.32292,0.0709 c 0,0 -0.92131,-1.37987 -1.55916,-1.88987 -0.64087,-0.51241 -2.19697,-1.11031 -2.19697,-1.11031 0.003,-0.30636 0.0288,-0.61637 0.21861,-0.95378 z"
       id="path1401"
       sodipodi:nodetypes="ccccccccccssccccccscc" />
    <path
       style="fill:#999999;fill-opacity:1;stroke:#000000;stroke-width:0;stroke-linecap:butt;stroke-linejoin:miter;stroke-miterlimit:4;stroke-dasharray:none;stroke-opacity:1"
       d="m 286.1844,121.71151 c 0,0 3.2168,-2.34827 5.07403,-2.97826 1.87594,-0.63634 5.89769,-0.73079 5.89769,-0.73079 0,0 -4.36356,-0.77468 -6.36543,-0.071 -1.87385,0.65868 -4.60629,3.78005 -4.60629,3.78005 z"
       id="path1403"
       sodipodi:nodetypes="cscsc" />
    <path
       style="fill:#999999;fill-opacity:1;stroke:#000000;stroke-width:0;stroke-linecap:butt;stroke-linejoin:miter;stroke-miterlimit:4;stroke-dasharray:none;stroke-opacity:1"
       d="m 290.18935,117.22986 c 0,0 2.98287,-0.6985 4.47675,-0.53454 0.92457,0.10147 2.63297,0.9239 2.63297,0.9239 0,0 -1.66215,-1.3249 -2.66636,-1.45844 -1.51009,-0.20081 -4.44336,1.06908 -4.44336,1.06908 z"
       id="path1405"
       sodipodi:nodetypes="cscsc" />
    <path
       style="fill:#999999;fill-opacity:1;stroke:#000000;stroke-width:0;stroke-linecap:butt;stroke-linejoin:miter;stroke-miterlimit:4;stroke-dasharray:none;stroke-opacity:1"
       d="m 284.69906,119.0219 c 0,0 2.86929,-3.18295 4.78869,-3.9636 1.91071,-0.77712 6.16773,-0.50169 6.16773,-0.50169 0,0 -4.13968,0.38955 -6.03408,1.16986 -1.82573,0.75202 -4.92234,3.29543 -4.92234,3.29543 z"
       id="path1407"
       sodipodi:nodetypes="cscsc" />
    <path
       style="fill:#999999;fill-opacity:1;stroke:#000000;stroke-width:0;stroke-linecap:butt;stroke-linejoin:miter;stroke-miterlimit:4;stroke-dasharray:none;stroke-opacity:1"
       d="m 290.7573,110.24745 c 0,0 2.01848,-0.97831 3.10629,-1.19794 0.67475,-0.13623 2.06415,-0.0627 2.06415,-0.0627 0,0 -1.46497,-0.75697 -2.23046,-0.64369 -1.15504,0.17092 -2.93998,1.90433 -2.93998,1.90433 z"
       id="path1409"
       sodipodi:nodetypes="cscsc" />
    <path
       style="fill:#999999;fill-opacity:1;stroke:#000000;stroke-width:0;stroke-linecap:butt;stroke-linejoin:miter;stroke-miterlimit:4;stroke-dasharray:none;stroke-opacity:1"
       d="m 254.24271,106.25573 c 0,0 8.46332,3.65441 12.00074,6.52009 3.52406,2.85486 8.8352,10.3471 8.8352,10.3471 0,0 -4.61649,-8.16609 -8.17376,-11.0558 -3.60457,-2.92815 -12.66218,-5.81139 -12.66218,-5.81139 z"
       id="path1411"
       sodipodi:nodetypes="cscsc" />
    <path
       style="fill:#d38d5f;stroke:#000000;stroke-width:0;stroke-linecap:butt;stroke-linejoin:miter;stroke-miterlimit:4;stroke-dasharray:none;stroke-opacity:1"
       d="m 267.76251,103.81714 c -0.0624,0.74814 0.0144,1.37045 0.37083,2.20236 1.97618,3.01139 3.51129,5.95977 4.86643,8.88244 l 4.53572,6.85082 0.5089,1.07346 c 0.61771,-0.54844 1.01016,-0.63489 1.94035,-1.82418 l 0.73306,-0.16903 c -1.91784,-1.92215 -2.61194,-4.21997 -3.9855,-6.12006 l -2.83483,-3.9215 -1.7009,-3.26005 c -1.59064,-1.67066 -2.05936,-3.53257 -2.61591,-5.37503 z"
       id="path1413"
       sodipodi:nodetypes="cccccccscccc" />
    <path
       style="fill:#ffffff;stroke:#000000;stroke-width:0;stroke-linecap:butt;stroke-linejoin:miter;stroke-miterlimit:4;stroke-dasharray:none;stroke-opacity:1"
       d="m 275.19577,116.94441 1.42964,-1.18453 c 0.84459,0.89611 1.75056,2.19121 2.77293,4.2429 l -1.67044,1.23612 c -0.76315,-1.4315 -1.35649,-2.86299 -2.53213,-4.29449 z"
       id="path1415"
       sodipodi:nodetypes="ccccc" />
    <path
       style="opacity:1;fill:#999999;fill-opacity:1;stroke:#000000;stroke-width:0;stroke-linecap:butt;stroke-linejoin:miter;stroke-miterlimit:4;stroke-dasharray:none;stroke-opacity:1"
       d="m 257.19565,98.90882 1.25203,1.48828 3.40181,-0.0236 c 0,0 2.24267,0.52613 3.33091,0.89769 1.2594,0.43 3.68525,1.53553 3.68525,1.53553 -0.0814,-0.0862 -0.84827,1.73628 -1.11029,1.53553 0,0 -2.09629,-1.71037 -3.28366,-2.03163 -1.03427,-0.27984 -2.83483,0.18899 -2.83483,0.18899 l -4.37036,0.92132 -2.62221,0.14174 c 0,0 0.23625,-0.73233 0.94493,-0.99219 0.70871,-0.25986 2.64584,-0.59058 2.52773,-0.61421 -0.11811,-0.0236 -1.9135,-2.24423 -1.9135,-2.24423 z"
       id="path1417"
       sodipodi:nodetypes="cccscsscccsscc" />
    <path
       style="fill:#999999;fill-opacity:1;stroke:#000000;stroke-width:0;stroke-linecap:butt;stroke-linejoin:miter;stroke-miterlimit:4;stroke-dasharray:none;stroke-opacity:1"
       d="m 291.14262,108.78345 2.40961,-0.92132 1.34654,-0.18898 -1.65364,-0.18899 z"
       id="path1129" />
    <path
       style="fill:#999999;fill-opacity:1;stroke:#000000;stroke-width:0;stroke-linecap:butt;stroke-linejoin:miter;stroke-miterlimit:4;stroke-dasharray:none;stroke-opacity:1"
       d="m 292.69501,104.71831 c -0.40855,-0.0582 -1.38233,0.9758 -1.30294,1.00226 0.48826,-0.26749 0.8818,-0.54682 1.60361,-0.78511 z"
       id="path1131"
       sodipodi:nodetypes="cccc" />
    <path
       style="fill:#b3b3b3;stroke:#000000;stroke-width:0.01;stroke-linecap:butt;stroke-linejoin:miter;stroke-miterlimit:4;stroke-dasharray:none;stroke-opacity:1"
       d="m 285.49662,106.09037 0.35433,0.85045 0.73234,-0.37798 3.51991,9.70926 -0.61423,1.98438 -1.51188,0.77957 -1.67727,-0.7087 -0.51973,-1.74814 -0.87407,-1.13393 1.01581,-0.16536 -1.01581,-3.63802 -0.40159,-2.07888 -0.44886,-2.03162 z"
       id="path1133" />
    <path
       style="fill:#cccccc;stroke:#000000;stroke-width:0.01;stroke-linecap:butt;stroke-linejoin:miter;stroke-miterlimit:4;stroke-dasharray:none;stroke-opacity:1"
       d="m 286.59792,107.7585 c 1.14949,-0.4118 1.81478,0.2255 2.43883,0.95215 0,0 -1.14449,1.72923 -1.26953,2.7228 -0.15423,1.22546 0.68488,3.64155 0.68488,3.64155 l -2.37202,0.80181 c 0,0 -1.11558,-1.98153 -1.1359,-3.0736 -0.0329,-1.76931 1.65374,-5.04471 1.65374,-5.04471 z"
       id="path1135"
       sodipodi:nodetypes="ccsccsc" />
    <path
       style="fill:#d3bc5f;stroke:#000000;stroke-width:0.01;stroke-linecap:butt;stroke-linejoin:miter;stroke-miterlimit:4;stroke-dasharray:none;stroke-opacity:1"
       d="m 278.71667,111.59465 2.40959,-2.10249 1.34654,-0.0709 1.77176,2.38598 0.33073,1.01581 c 0,0 -2.07886,2.64583 -2.17337,2.64583 -0.0945,0 -2.008,-0.23623 -2.008,-0.23623 l -1.7245,-1.88988 z"
       id="path1138" />
    <path
       id="path1142"
       style="fill:#333333;fill-opacity:0.858824;fill-rule:evenodd;stroke:#333333;stroke-width:0;stroke-miterlimit:4;stroke-dasharray:none"
       inkscape:transform-center-x="-0.015918072"
       inkscape:transform-center-y="0.0054590457"
       d="m 281.38995,110.55425 -0.76634,0.27182 -0.58965,0.55966 -0.31057,0.75137 0.0217,0.81287 0.35038,0.73329 0.61855,0.52762 0.7798,0.23047 0.80563,-0.10645 0.693,-0.4253 0.46043,-0.67024 0.14729,-0.79943 -0.19018,-0.79014 -0.49506,-0.64492 -0.7147,-0.38757 z m 0.20775,0.35295 0.65423,0.1385 0.54155,0.39274 0.33486,0.57929 0.0703,0.66508 -0.20619,0.63613 -0.44701,0.49764 -0.61082,0.27286 -0.66921,5.1e-4 -0.61132,-0.27182 -0.44805,-0.4966 -0.20722,-0.63614 0.0698,-0.66508 0.33383,-0.57981 0.54104,-0.39377 z" />
    <path
       style="fill:#333333;stroke:#000000;stroke-width:0;stroke-linecap:butt;stroke-linejoin:miter;stroke-miterlimit:4;stroke-dasharray:none;stroke-opacity:1"
       d="m 279.94959,111.81766 1.40316,0.3842 0.25057,-1.41988 c 0,0 0.36751,-0.0835 0.3842,0.0334 0.0167,0.11693 0,1.43658 0,1.43658 l 1.30293,-0.0334 c 0,0 0.15034,0.66817 -0.0167,0.66817 -0.16706,0 -1.35305,0.0167 -1.35305,0.0167 l -0.15034,1.38647 -0.55126,-0.0501 0.10025,-1.36975 -1.48669,-0.46772 z"
       id="path1149"
       sodipodi:nodetypes="cccsccscccccc" />
    <path
       style="opacity:1;fill:#999999;fill-opacity:1;stroke:#000000;stroke-width:0;stroke-linecap:butt;stroke-linejoin:miter;stroke-miterlimit:4;stroke-dasharray:none;stroke-opacity:1"
       d="m 243.11651,94.84604 c 0.0282,-1.4761 0.28424,-2.86679 0.66818,-4.2095 -0.2744,1.42544 -0.44941,2.85088 -0.50115,4.27632 z"
       id="path1151"
       sodipodi:nodetypes="cccc" />
    <path
       sodipodi:nodetypes="cccc"
       id="path1151-2"
       d="m 244.89052,94.75074 c 0.0282,-1.4761 0.28424,-2.86679 0.66818,-4.2095 -0.2744,1.42544 -0.44941,2.85088 -0.50115,4.27632 z"
       style="display:inline;opacity:1;fill:#999999;fill-opacity:1;stroke:#000000;stroke-width:0;stroke-linecap:butt;stroke-linejoin:miter;stroke-miterlimit:4;stroke-dasharray:none;stroke-opacity:1" />
    <path
       style="display:inline;opacity:1;fill:#999999;fill-opacity:1;stroke:#000000;stroke-width:0;stroke-linecap:butt;stroke-linejoin:miter;stroke-miterlimit:4;stroke-dasharray:none;stroke-opacity:1"
       d="m 246.92714,95.5196 c 0.0282,-1.4761 0.28424,-2.86679 0.66818,-4.2095 -0.2744,1.42544 -0.44941,2.85088 -0.50115,4.27632 z"
       id="path1151-2-0"
       sodipodi:nodetypes="cccc" />
    <path
       style="opacity:1;fill:#999999;fill-opacity:1;stroke:#000000;stroke-width:0;stroke-linecap:butt;stroke-linejoin:miter;stroke-miterlimit:4;stroke-dasharray:none;stroke-opacity:1"
       d="m 249.6813,96.19909 c 0,0 -0.25535,-0.5188 -0.10023,-0.55124 0.0671,-0.014 0.97174,-2.73752 0.98558,-3.02349 0.0224,-0.46272 -0.75987,-1.43879 -0.76841,-1.33635 0,0 0.8018,-1.26953 0.81852,-1.1693 0.0167,0.10022 0.28397,2.47225 0.28397,2.47225 l -0.11692,1.82077 c 0,0 -0.58465,2.48894 -0.66818,2.43883 -0.0835,-0.0501 -0.43431,-0.65147 -0.43431,-0.65147 z"
       id="path1183"
       sodipodi:nodetypes="csscsccscc" />
    <path
       style="opacity:1;fill:#999999;fill-opacity:1;stroke:#000000;stroke-width:0;stroke-linecap:butt;stroke-linejoin:miter;stroke-miterlimit:4;stroke-dasharray:none;stroke-opacity:1"
       d="m 251.05107,89.40042 1.00224,1.5201 0.48443,1.20271 0.31739,-0.28397 -0.73498,-1.26953 z"
       id="path1185" />
    <path
       style="opacity:1;fill:#999999;fill-opacity:1;stroke:#000000;stroke-width:0;stroke-linecap:butt;stroke-linejoin:miter;stroke-miterlimit:4;stroke-dasharray:none;stroke-opacity:1"
       d="m 251.56889,88.23112 1.41988,1.80407 0.68488,1.58691 c 0,0 0.35078,-0.10022 0.35078,-0.16704 0,-0.0668 -0.88532,-1.46999 -0.88532,-1.46999 z"
       id="path1187" />
    <path
       style="opacity:1;fill:#999999;fill-opacity:1;stroke:#000000;stroke-width:0;stroke-linecap:butt;stroke-linejoin:miter;stroke-miterlimit:4;stroke-dasharray:none;stroke-opacity:1"
       d="m 245.66736,87.07344 c 0.18899,-0.11812 2.46919,-0.69435 3.66165,-0.4016 0.78266,0.19214 2.008,1.34654 2.008,1.34654 0,0 -1.10913,-1.39067 -1.9135,-1.6064 -1.22792,-0.32932 -3.75615,0.66146 -3.75615,0.66146 z"
       id="path1189"
       sodipodi:nodetypes="cscsc" />
    <path
       style="opacity:1;fill:#999999;fill-opacity:1;stroke:#000000;stroke-width:0;stroke-linecap:butt;stroke-linejoin:miter;stroke-miterlimit:4;stroke-dasharray:none;stroke-opacity:1"
       d="m 262.06208,87.68765 c 0,0 -1.01011,2.4557 -1.93712,3.35454 -0.69304,0.67198 -2.55135,1.37016 -2.55135,1.37016 l 1.44105,0.28349 c 0,0 1.51195,-0.7739 1.98438,-1.44104 0.71703,-1.01256 1.06304,-3.56715 1.06304,-3.56715 z"
       id="path1191"
       sodipodi:nodetypes="caccsc" />
    <path
       style="opacity:1;fill:#999999;fill-opacity:1;stroke:#000000;stroke-width:0;stroke-linecap:butt;stroke-linejoin:miter;stroke-miterlimit:4;stroke-dasharray:none;stroke-opacity:1"
       d="m 262.81805,94.84558 c 0,0 1.25108,0.29989 1.88986,0.33073 0.71786,0.0346 1.45168,0.006 2.14974,-0.16537 0.85665,-0.20986 2.43324,-1.03943 2.43324,-1.03943 0,0 -1.6377,1.01237 -2.55135,1.27567 -0.69945,0.20157 -2.07886,0.25985 -2.17337,0.21261 -0.0945,-0.0472 -2.12611,-0.37798 -2.12611,-0.37798 z"
       id="path1193"
       sodipodi:nodetypes="csscsscc" />
    <path
       style="opacity:1;fill:#999999;fill-opacity:1;stroke:#000000;stroke-width:0;stroke-linecap:butt;stroke-linejoin:miter;stroke-miterlimit:4;stroke-dasharray:none;stroke-opacity:1"
       d="m 269.69248,95.45979 c 0.21262,-0.0945 1.98606,-0.81036 3.00019,-1.15755 0.93337,-0.31954 2.83482,-0.85045 2.83482,-0.85045 0,0 -1.87541,0.77951 -2.83482,1.1103 -0.98686,0.34025 -3.00019,0.8977 -3.00019,0.8977 z"
       id="path1195"
       sodipodi:nodetypes="cscsc" />
    <path
       style="opacity:1;fill:#999999;fill-opacity:1;stroke:#000000;stroke-width:0;stroke-linecap:butt;stroke-linejoin:miter;stroke-miterlimit:4;stroke-dasharray:none;stroke-opacity:1"
       d="m 266.33793,83.3173 c 0,0 -0.15799,1.52632 -0.21259,2.29148 -0.0898,1.2583 -0.24838,2.51967 -0.18899,3.77977 0.0232,0.49279 0.21261,1.46465 0.21261,1.46465 0,0 -0.0887,-1.11796 -0.0709,-1.67727 0.0403,-1.26637 0.37768,-2.51297 0.40161,-3.77976 0.0131,-0.69444 -0.14174,-2.07887 -0.14174,-2.07887 z"
       id="path1197"
       sodipodi:nodetypes="csscssc" />
    <path
       style="opacity:1;fill:#999999;fill-opacity:1;stroke:#000000;stroke-width:0;stroke-linecap:butt;stroke-linejoin:miter;stroke-miterlimit:4;stroke-dasharray:none;stroke-opacity:1"
       d="m 269.31449,84.66384 c 0,0 -0.49084,1.71625 -0.80319,2.55134 -0.30391,0.81254 -1.03942,2.38598 -1.03942,2.38598 0,0 0.96081,-1.55707 1.27566,-2.4096 0.29915,-0.81003 0.56695,-2.52772 0.56695,-2.52772 z"
       id="path1199"
       sodipodi:nodetypes="cscsc" />
    <path
       style="opacity:1;fill:#999999;fill-opacity:1;stroke:#000000;stroke-width:0;stroke-linecap:butt;stroke-linejoin:miter;stroke-miterlimit:4;stroke-dasharray:none;stroke-opacity:1"
       d="m 271.58237,83.38817 c 0,0 0.53662,2.77731 0.21259,4.1105 -0.29504,1.21393 -1.88986,3.23642 -1.88986,3.23642 0,0 1.77467,-1.92352 2.07885,-3.14193 0.34106,-1.36611 -0.40158,-4.20499 -0.40158,-4.20499 z"
       id="path1201"
       sodipodi:nodetypes="cscsc" />
    <path
       style="opacity:1;fill:#999999;fill-opacity:1;stroke:#000000;stroke-width:0;stroke-linecap:butt;stroke-linejoin:miter;stroke-miterlimit:4;stroke-dasharray:none;stroke-opacity:1"
       d="m 270.61381,91.53828 2.3151,-1.63002 1.39377,-2.22061 -1.32291,2.71671 z"
       id="path1203" />
    <path
       style="fill:none;stroke:#000000;stroke-width:0;stroke-linecap:butt;stroke-linejoin:miter;stroke-miterlimit:4;stroke-dasharray:none;stroke-opacity:1"
       d="m 270.61185,92.90833 c 0,0 3.39816,-0.73736 4.51017,-1.9377 0.9358,-1.01013 1.33635,-3.90882 1.33635,-3.90882 0,0 0.11413,3.05632 -0.80182,4.10927 -1.16725,1.34184 -5.0447,1.73725 -5.0447,1.73725 z"
       id="path1205"
       sodipodi:nodetypes="cscsc" />
    <path
       style="opacity:1;fill:#999999;fill-opacity:1;stroke:#000000;stroke-width:0;stroke-linecap:butt;stroke-linejoin:miter;stroke-miterlimit:4;stroke-dasharray:none;stroke-opacity:1"
       d="m 257.07751,84.35674 c 0,0 -0.0335,1.50252 -0.14173,2.24423 -0.091,0.62374 -0.42522,1.84263 -0.42522,1.84263 0,0 0.70712,-1.29353 0.8032,-2.00799 0.093,-0.6912 -0.23625,-2.07887 -0.23625,-2.07887 z"
       id="path1207"
       sodipodi:nodetypes="cscsc" />
    <path
       sodipodi:nodetypes="cscsc"
       id="path1207-8"
       d="m 258.01327,83.20994 c 0,0 -0.0327,2.02319 -0.13822,3.02193 -0.0888,0.83988 -0.41471,2.48115 -0.41471,2.48115 0,0 0.68964,-1.74177 0.78334,-2.70382 0.0907,-0.93072 -0.23041,-2.79926 -0.23041,-2.79926 z"
       style="display:inline;opacity:1;fill:#999999;fill-opacity:1;stroke:#000000;stroke-width:0;stroke-linecap:butt;stroke-linejoin:miter;stroke-miterlimit:4;stroke-dasharray:none;stroke-opacity:1" />
    <path
       sodipodi:nodetypes="cscsc"
       id="path1207-9"
       d="m 258.74382,84.37572 c 0,0 -0.0335,1.50252 -0.14173,2.24423 -0.091,0.62374 -0.42522,1.84263 -0.42522,1.84263 0,0 0.70712,-1.29353 0.8032,-2.00799 0.093,-0.6912 -0.23625,-2.07887 -0.23625,-2.07887 z"
       style="display:inline;opacity:1;fill:#999999;fill-opacity:1;stroke:#000000;stroke-width:0;stroke-linecap:butt;stroke-linejoin:miter;stroke-miterlimit:4;stroke-dasharray:none;stroke-opacity:1" />
    <path
       style="fill:#999999;fill-opacity:1;stroke:#000000;stroke-width:0;stroke-linecap:butt;stroke-linejoin:miter;stroke-miterlimit:4;stroke-dasharray:none;stroke-opacity:1"
       d="m 243.37588,117.40603 c 0,0 4.42601,1.94981 5.85864,3.77976 1.73464,2.21572 2.74032,7.98475 2.74032,7.98475 0,0 -0.3302,-6.14378 -2.12611,-8.40997 -1.50935,-1.9046 -6.47285,-3.35454 -6.47285,-3.35454 z"
       id="path1458"
       sodipodi:nodetypes="cscsc" />
    <path
       style="fill:#999999;fill-opacity:1;stroke:#000000;stroke-width:0;stroke-linecap:butt;stroke-linejoin:miter;stroke-miterlimit:4;stroke-dasharray:none;stroke-opacity:1"
       d="m 246.32374,114.62398 c 0,0 1.31352,-0.11655 1.77067,0.26727 1.34043,1.12542 1.67042,4.9779 1.67042,4.9779 0.18145,0.0259 -0.14718,-5.44278 -1.26953,-5.57925 -0.16583,-0.0202 -2.17156,0.33408 -2.17156,0.33408 z"
       id="path1460"
       sodipodi:nodetypes="cscsc" />
    <path
       style="fill:#999999;fill-opacity:1;stroke:#000000;stroke-width:0;stroke-linecap:butt;stroke-linejoin:miter;stroke-miterlimit:4;stroke-dasharray:none;stroke-opacity:1"
       d="m 250.93542,115.30354 c 0,0 1.33392,2.98604 1.58277,4.58296 0.25954,1.6655 -0.11811,5.05543 -0.11811,5.05543 0,0 1.12001,-3.63021 0.80319,-5.43341 -0.27558,-1.56849 -2.26785,-4.20498 -2.26785,-4.20498 z"
       id="path1462"
       sodipodi:nodetypes="cscsc" />
    <path
       style="fill:#999999;fill-opacity:1;stroke:#000000;stroke-width:0;stroke-linecap:butt;stroke-linejoin:miter;stroke-miterlimit:4;stroke-dasharray:none;stroke-opacity:1"
       d="m 255.28213,119.67389 c 0,0 3.42257,4.72507 5.57517,6.66183 1.93205,1.73832 6.47282,4.34672 6.47282,4.34672 0,0 -4.42497,-3.3689 -6.47282,-5.24442 -1.97127,-1.80538 -5.57517,-5.76413 -5.57517,-5.76413 z"
       id="path1464"
       sodipodi:nodetypes="cscsc" />
    <path
       style="fill:#999999;fill-opacity:1;stroke:#000000;stroke-width:0;stroke-linecap:butt;stroke-linejoin:miter;stroke-miterlimit:4;stroke-dasharray:none;stroke-opacity:1"
       d="m 255.67816,129.99198 c 0,0 4.35458,0.33881 6.41448,1.00226 2.09057,0.67333 5.87994,2.97338 5.87994,2.97338 0,0 -3.77256,-1.76033 -5.7463,-2.40543 -2.13352,-0.69732 -6.54812,-1.57021 -6.54812,-1.57021 z"
       id="path1466"
       sodipodi:nodetypes="cscsc" />
    <path
       style="fill:#999999;fill-opacity:1;stroke:#000000;stroke-width:0;stroke-linecap:butt;stroke-linejoin:miter;stroke-miterlimit:4;stroke-dasharray:none;stroke-opacity:1"
       d="m 246.35715,139.71391 c 0,0 1.57296,-1.31811 2.53905,-1.46998 1.66579,-0.26187 4.94448,1.06908 4.94448,1.06908 0,0 -3.21086,-1.64136 -4.87765,-1.36976 -1.03651,0.16889 -2.60588,1.77066 -2.60588,1.77066 z"
       id="path1468"
       sodipodi:nodetypes="cscsc" />
    <path
       style="fill:#999999;fill-opacity:1;stroke:#000000;stroke-width:0;stroke-linecap:butt;stroke-linejoin:miter;stroke-miterlimit:4;stroke-dasharray:none;stroke-opacity:1"
       d="m 253.03889,128.42177 -1.23614,1.30294 -1.90428,1.60362 -1.00227,0.90203 c -0.30694,1.77565 -1.09881,3.63449 -1.8823,5.49189 l 1.29929,-0.96856 c 0,0 0.35436,-0.90951 0.36618,-0.95676 0.0119,-0.0472 0.48427,-1.61821 0.48427,-1.61821 l 0.69691,-0.96856 0.85043,-1.15755 1.47648,-2.24424 z"
       id="path1470"
       sodipodi:nodetypes="cccccccccccc" />
    <path
       style="fill:#999999;fill-opacity:1;stroke:#000000;stroke-width:0;stroke-linecap:butt;stroke-linejoin:miter;stroke-miterlimit:4;stroke-dasharray:none;stroke-opacity:1"
       d="m 262.41911,146.75661 3.01156,-4.95066 c 0.46332,-0.9259 0.82595,-1.53974 1.21846,-2.24617 1.67071,-1.71395 1.67586,-3.11637 1.89061,-4.41337 l -0.92612,1.72539 c -0.33523,-0.31093 -0.63284,-0.62938 -1.18118,-0.89769 l 0.89382,1.503 -2.24036,-1.1014 c 0.63364,0.66652 1.30527,1.32612 1.46465,2.07887 l -1.27566,-0.44885 c 0.21172,0.42545 0.80541,0.75541 0.54335,1.2993 l -0.40162,1.1103 -0.51972,-0.18899 -0.21262,1.91351 c 0,0 -0.14173,-1.22842 -0.14173,-1.32292 0,-0.0945 0.10703,-0.82915 -0.0709,-1.18117 -0.11098,-0.21956 -0.56697,-0.47248 -0.56697,-0.47248 l 0.35435,1.27567 c 0,0 -0.14195,0.69155 -0.11811,1.03944 0.0261,0.38108 0.28348,1.1103 0.28348,1.1103 l -0.44884,0.66146 -0.44887,-1.5119 c 0,0 -0.10001,0.99529 -0.25985,1.46466 -0.0658,0.19337 -0.10872,0.43755 -0.28347,0.54334 -0.24454,0.14804 -0.85757,-0.001 -0.85757,-0.001 l 0.003,0.0145 0.22765,3.11981 z"
       id="path1472"
       sodipodi:nodetypes="ccccccccccccccssccscccascccc" />
    <path
       style="fill:#999999;fill-opacity:1;stroke:#000000;stroke-width:0;stroke-linecap:butt;stroke-linejoin:miter;stroke-miterlimit:4;stroke-dasharray:none;stroke-opacity:1"
       d="m 265.06227,120.24085 c 0,0 2.20807,1.79817 3.1183,2.88207 1.25297,1.49204 3.1183,5.5279 3.16555,4.91369 0.0473,-0.61421 -0.90713,-4.15586 -2.26785,-5.66964 -1.01258,-1.12648 -4.016,-2.12612 -4.016,-2.12612 z"
       id="path1474"
       sodipodi:nodetypes="csssc" />
    <path
       style="fill:#b3b3b3;stroke:#000000;stroke-width:0;stroke-linecap:butt;stroke-linejoin:miter;stroke-miterlimit:4;stroke-dasharray:none;stroke-opacity:1"
       d="m 284.00874,79.7119 c 0.67827,-0.63476 1.29293,-1.26953 2.35532,-1.904294 3.67462,-1.811666 7.50823,-1.269536 9.73949,-0.254439 2.09755,1.105953 3.2461,2.118923 4.1749,3.343353 1.11902,1.55676 1.82989,3.49358 1.92238,5.37292 l 0.20761,1.32997 -1.03683,0.63158 c -0.0139,-1.77069 0.22795,-3.35192 -1.41742,-6.3311 -1.60752,-2.29377 -3.35001,-2.96787 -5.07905,-3.803383 l -3.7089,-0.637834 -0.46043,1.307827 c -0.50177,-0.0746 -0.94779,-0.0935 -1.40787,-0.1264 l -0.56492,-0.567215 -1.03944,-0.165365 -0.51586,0.91527 -2.72391,1.31533 -0.24569,0.21617 z"
       id="path1476"
       sodipodi:nodetypes="cccccccccccccccccc" />
    <path
       style="fill:#000000;stroke:#000000;stroke-width:0;stroke-linecap:butt;stroke-linejoin:miter;stroke-miterlimit:4;stroke-dasharray:none;stroke-opacity:1"
       d="m 290.52841,78.75797 0.54335,-1.25205 c 4.19731,0.09075 6.01174,1.38292 7.70125,2.90569 2.24752,2.02571 2.3752,4.17933 2.62221,6.28386 0.10178,1.03156 0.0914,2.06312 -0.3071,3.09468 l -1.4174,2.3151 c 0.53631,-1.35016 1.25483,-2.632 1.32292,-4.15774 0.10001,-2.43577 -0.70421,-5.06461 -2.76395,-7.20517 -1.92993,-2.00566 -4.49186,-2.34166 -6.85083,-2.645833 l -0.40161,0.732333 z"
       id="path1478"
       sodipodi:nodetypes="ccsccccsccc" />
    <path
       style="fill:#b3b3b3;fill-opacity:1;stroke:#000000;stroke-width:0;stroke-linecap:butt;stroke-linejoin:miter;stroke-miterlimit:4;stroke-dasharray:none;stroke-opacity:1"
       d="m 280.45073,80.69746 0.71826,1.06908 c 0.86643,-0.17973 1.40643,-0.82579 1.97112,-1.43658 l 1.21941,-1.21941 -1.01895,-0.88534 -1.5201,1.43658 c -0.36522,0.52795 -0.87595,0.76486 -1.36974,1.03567 z"
       id="path1480"
       sodipodi:nodetypes="ccccccc" />
    <path
       sodipodi:nodetypes="ccccccc"
       id="path1480-7"
       d="m 292.63727,99.53954 0.71826,1.06908 c 0.86643,-0.17973 1.46549,-0.82579 2.03018,-1.43658 0.59787,-0.38153 0.99123,-0.77536 1.4084,-1.17216 l -0.90084,-0.93259 -1.88626,1.43658 c -0.36522,0.52795 -0.87595,0.76486 -1.36974,1.03567 z"
       style="display:inline;opacity:1;fill:#b3b3b3;fill-opacity:1;stroke:#000000;stroke-width:0;stroke-linecap:butt;stroke-linejoin:miter;stroke-miterlimit:4;stroke-dasharray:none;stroke-opacity:1" />
    <path
       style="fill:#999999;fill-opacity:1;stroke:#000000;stroke-width:0;stroke-linecap:butt;stroke-linejoin:miter;stroke-miterlimit:4;stroke-dasharray:none;stroke-opacity:1"
       d="m 245.05366,85.16604 c 0,0 3.31073,-2.92991 5.2203,-2.58106 2.18138,0.3985 4.5357,4.86644 4.5357,4.86644 0,0 -1.86503,-4.91103 -4.06323,-5.38616 -2.11205,-0.45651 -5.69277,3.10078 -5.69277,3.10078 z"
       id="path1506"
       sodipodi:nodetypes="cscsc" />
  </g>
</svg>
