<?xml version="1.0" encoding="UTF-8" standalone="no"?>
<svg
   xmlns:dc="http://purl.org/dc/elements/1.1/"
   xmlns:cc="http://creativecommons.org/ns#"
   xmlns:rdf="http://www.w3.org/1999/02/22-rdf-syntax-ns#"
   xmlns:svg="http://www.w3.org/2000/svg"
   xmlns="http://www.w3.org/2000/svg"
   xmlns:sodipodi="http://sodipodi.sourceforge.net/DTD/sodipodi-0.dtd"
   xmlns:inkscape="http://www.inkscape.org/namespaces/inkscape"
   sodipodi:docname="html5.svg"
   inkscape:version="1.0 (4035a4fb49, 2020-05-01)"
   id="svg8"
   version="1.1"
   viewBox="0 0 100 100"
   height="100mm"
   width="100mm">
  <defs
     id="defs2" />
  <sodipodi:namedview
     inkscape:snap-nodes="false"
     inkscape:snap-bbox-midpoints="true"
     inkscape:snap-bbox-edge-midpoints="true"
     inkscape:bbox-nodes="true"
     inkscape:bbox-paths="true"
     inkscape:snap-bbox="false"
     inkscape:object-paths="true"
     inkscape:snap-intersection-paths="true"
     inkscape:snap-center="true"
     inkscape:snap-text-baseline="true"
     inkscape:window-maximized="1"
     inkscape:window-y="-8"
     inkscape:window-x="-8"
     inkscape:window-height="1027"
     inkscape:window-width="1920"
     showgrid="false"
     inkscape:document-rotation="0"
     inkscape:current-layer="layer2"
     inkscape:document-units="mm"
     inkscape:cy="154.86473"
     inkscape:cx="-18.644658"
     inkscape:zoom="0.98994949"
     inkscape:pageshadow="2"
     inkscape:pageopacity="0.0"
     borderopacity="1.0"
     bordercolor="#666666"
     pagecolor="#ffffff"
     id="base"
     showguides="false" />
  <metadata
     id="metadata5">
    <rdf:RDF>
      <cc:Work
         rdf:about="">
        <dc:format>image/svg+xml</dc:format>
        <dc:type
           rdf:resource="http://purl.org/dc/dcmitype/StillImage" />
        <dc:title />
      </cc:Work>
    </rdf:RDF>
  </metadata>
  <g
     style="display:inline;opacity:1"
     inkscape:label="html"
     id="layer2"
     inkscape:groupmode="layer">
    <path
       sodipodi:nodetypes="ccccccccccccccccc"
       id="path850"
       d="M 77.3787,18.589586 22.499041,18.472327 25.313383,51.89263 h 38.3454 L 62.251614,66.081603 50.056133,69.365001 37.691436,65.920371 36.862254,57.213948 H 25.917036 L 27.575401,74.792635 50.04627,81.011514 72.848809,74.543879 75.585114,40.879038 35.535561,40.7132 34.526315,29.446368 l 42.05382,0.07286 z"
       style="opacity:1;fill:#ffffff;fill-opacity:1;stroke:#000000;stroke-width:0;stroke-linecap:butt;stroke-linejoin:miter;stroke-miterlimit:4;stroke-dasharray:none;stroke-opacity:1" />
    <path
       sodipodi:nodetypes="ccccccccccccc"
       id="path901"
       d="m 106.9856,6.7892844 -0.011,13.3847256 4.50039,0.02767 0.0432,-4.571259 h 4.14267 v 4.579372 l 4.34313,-0.03578 0.0334,-13.438646 -4.2893,0.00835 -0.0236,4.417597 h -4.34672 l 0.0472,-4.3939734 z"
       style="opacity:1;fill:#ffffff;stroke:#000000;stroke-width:0;stroke-linecap:butt;stroke-linejoin:miter;stroke-miterlimit:4;stroke-dasharray:none;stroke-opacity:1" />
    <path
       id="path903"
       d="m 122.14217,6.7604206 c 0.43432,0.050113 12.2944,-0.016704 12.2944,-0.016704 l -0.0167,4.3932427 -3.95893,0.03341 0.0167,9.020347 h -4.44334 v -8.986938 l -3.89212,-0.06682 z"
       style="opacity:1;fill:#ffffff;stroke:#000000;stroke-width:0;stroke-linecap:butt;stroke-linejoin:miter;stroke-miterlimit:4;stroke-dasharray:none;stroke-opacity:1" />
    <path
       id="path905"
       d="m 136.63132,6.7200927 -0.0472,13.3945313 4.18136,0.04725 c 0,0 0.0945,-6.803573 0.0945,-6.709078 0,0.09449 3.2128,4.795573 3.2128,4.795573 l 3.09468,-4.701079 0.0945,6.59096 4.29947,0.04725 0.0236,-13.4654023 -4.58295,0.023618 -2.92932,4.7247028 -2.92931,-4.7719498 z"
       style="opacity:1;fill:#ffffff;stroke:#000000;stroke-width:0;stroke-linecap:butt;stroke-linejoin:miter;stroke-miterlimit:4;stroke-dasharray:none;stroke-opacity:1" />
    <path
       id="path907"
       d="m 154.01822,6.755528 -0.004,13.385074 10.62396,0.05011 0.0668,-4.293017 -6.36435,-0.15034 -0.0334,-9.0370505 z"
       style="opacity:1;fill:#ffffff;stroke:#000000;stroke-width:0;stroke-linecap:butt;stroke-linejoin:miter;stroke-miterlimit:4;stroke-dasharray:none;stroke-opacity:1" />
  </g>
  <g
     style="display:inline;opacity:1"
     inkscape:label="number-5"
     id="layer3"
     inkscape:groupmode="layer">
    <path
       d="M 6.0993664,5.0090949e-7 14.391227,89.883674 50.046241,100 86.032799,89.883674 93.930896,0.1455725 Z M 22.499041,18.472323 77.378608,18.589678 76.580204,29.519162 34.526411,29.446062 35.5358,40.713503 75.584924,40.878956 72.848543,74.54405 50.046241,81.011444 27.575483,74.792869 25.917111,57.213863 h 10.944874 l 0.829186,8.706778 12.364687,3.44436 L 62.25189,66.081603 63.658875,51.89245 H 25.313659 Z"
       style="display:inline;opacity:1;fill:#e44d26;fill-opacity:1;stroke:#000000;stroke-width:0;stroke-linecap:butt;stroke-linejoin:miter;stroke-miterlimit:4;stroke-dasharray:none;stroke-opacity:1"
       id="path848-2" />
    <path
       id="path852-6"
       d="M 49.914664,7.5847455 85.680253,7.4674865 79.23072,84.158294 50.14919,92.366784 Z"
       style="display:inline;opacity:0.37704918;fill:#ffaa85;fill-opacity:1;stroke:#000000;stroke-width:0;stroke-linecap:butt;stroke-linejoin:miter;stroke-miterlimit:4;stroke-dasharray:none;stroke-opacity:1" />
  </g>
</svg>
