<?xml version="1.0" encoding="UTF-8" standalone="no"?>
<svg
   xmlns:dc="http://purl.org/dc/elements/1.1/"
   xmlns:cc="http://creativecommons.org/ns#"
   xmlns:rdf="http://www.w3.org/1999/02/22-rdf-syntax-ns#"
   xmlns:svg="http://www.w3.org/2000/svg"
   xmlns="http://www.w3.org/2000/svg"
   xmlns:sodipodi="http://sodipodi.sourceforge.net/DTD/sodipodi-0.dtd"
   xmlns:inkscape="http://www.inkscape.org/namespaces/inkscape"
   width="100mm"
   height="100mm"
   viewBox="0 0 100 100"
   version="1.1"
   id="svg8"
   inkscape:version="1.0 (4035a4fb49, 2020-05-01)"
   sodipodi:docname="javascript.svg">
  <defs
     id="defs2" />
  <sodipodi:namedview
     id="base"
     pagecolor="#ffffff"
     bordercolor="#666666"
     borderopacity="1.0"
     inkscape:pageopacity="0.0"
     inkscape:pageshadow="2"
     inkscape:zoom="0.98994949"
     inkscape:cx="175.01051"
     inkscape:cy="324.15451"
     inkscape:document-units="mm"
     inkscape:current-layer="layer2"
     inkscape:document-rotation="0"
     showgrid="false"
     inkscape:window-width="1920"
     inkscape:window-height="1027"
     inkscape:window-x="-8"
     inkscape:window-y="-8"
     inkscape:window-maximized="1" />
  <metadata
     id="metadata5">
    <rdf:RDF>
      <cc:Work
         rdf:about="">
        <dc:format>image/svg+xml</dc:format>
        <dc:type
           rdf:resource="http://purl.org/dc/dcmitype/StillImage" />
        <dc:title />
      </cc:Work>
    </rdf:RDF>
  </metadata>
  <g
     inkscape:groupmode="layer"
     id="layer2"
     inkscape:label="JavaScript"
     style="display:inline;opacity:1">
    <path
       transform="scale(0.26458333)"
       d="M 9.0917969 8.0820312 L 9.0917969 368.86133 L 367.85156 368.86133 L 367.85156 8.0820312 L 9.0917969 8.0820312 z M 285.58594 171.95117 C 293.82309 171.87233 302.6117 173.45606 313.01172 179.90234 C 320.23737 185.84184 325.24065 192.08976 329.19922 198.48242 L 303.34961 215.35742 C 300.01142 210.77661 297.00667 205.63394 291.9082 203.25586 C 286.37713 200.676 279.90383 199.21141 272.92383 202.91406 C 266.49138 206.32627 264.75549 211.71765 265.21094 216.63672 C 266.02648 225.4451 269.02746 226.59503 272.33008 229.16602 C 279.97189 235.11494 294.02501 238.86684 304.70508 244.33594 C 313.94008 249.06504 323.01769 253.78877 330.4707 264.19336 C 334.66909 270.05441 338.78454 276.26206 338.94531 287.29102 C 339.06766 295.68374 339.26965 303.7425 334.70703 313.37109 C 330.10481 323.08324 322.30828 329.53757 313.01172 334.08203 C 294.59903 343.08276 274.95295 342.15016 255.46484 335.44531 C 243.12709 331.20053 231.89427 322.15816 222.15625 305.78516 L 249.53125 289.67773 C 253.76292 296.53343 258.28765 304.08355 270.29688 308.42773 C 277.36202 310.98346 284.86449 311.4939 294.70508 308.00195 C 302.55997 305.21463 305.90875 299.49875 305.97656 292.4043 C 306.05525 284.1745 300.0041 279.75705 294.02734 276.97852 L 259.19336 260.78516 C 249.32392 256.19695 241.54039 247.70743 237.58203 239.9043 C 231.96813 229.14442 231.47742 217.41721 233.51367 205.21484 C 236.89712 193.23364 243.71383 185.69289 251.82031 179.81836 C 257.93083 175.96354 267.40569 173.47368 279.95703 172.23242 C 281.81224 172.07642 283.68506 171.96937 285.58594 171.95117 z M 170.41797 173.69141 L 203.97852 173.69141 L 203.97852 259.99219 L 202.7793 302.17969 C 201.5094 309.96296 199.43369 317.84797 191.03516 326.52734 C 184.41628 332.20116 178.47612 338.08294 158.91211 339.78516 C 142.51867 341.65801 131.94077 337.1174 122.47656 331.34766 C 114.10409 325.46798 107.51724 318.18254 102.82031 309.41016 L 130.62695 292.53711 C 132.82646 296.27391 134.3961 299.9205 138.05664 303.86719 C 142.52937 307.50169 144.87436 312.47906 160.35156 309.16992 C 168.2295 306.48541 170.67272 298.33682 170.89844 287.95703 L 170.41797 173.69141 z "
       style="fill:#f0db4f;fill-opacity:1;fill-rule:evenodd;stroke:#333333;stroke-width:0"
       id="rect848" />
    <rect
       y="7.3293123"
       x="115.57346"
       height="95.456421"
       width="94.92189"
       id="rect848-7"
       style="display:inline;opacity:1;fill:#f0db4f;fill-opacity:1;fill-rule:evenodd;stroke:#333333;stroke-width:0" />
    <path
       sodipodi:nodetypes="ccccccccccccc"
       id="path850-6"
       d="m 158.25803,51.147188 0.12684,30.232421 c -0.0597,2.74632 -0.70629,4.902494 -2.79067,5.612771 -4.09501,0.875543 -4.71504,-0.441563 -5.89845,-1.403194 -0.96852,-1.044229 -1.38421,-2.009034 -1.96616,-2.997729 l -7.35722,4.464703 c 1.24273,2.321028 2.98558,4.248452 5.20079,5.804117 2.50408,1.526577 5.30307,2.727878 9.6405,2.232353 5.17631,-0.450379 6.74761,-2.006785 8.49886,-3.507983 2.22211,-2.296417 2.77179,-4.382606 3.10779,-6.44193 l 0.31712,-11.16176 V 51.147188 Z"
       style="display:inline;opacity:1;fill:#5e5a37;fill-opacity:1;stroke:#000000;stroke-width:0;stroke-linecap:butt;stroke-linejoin:miter;stroke-miterlimit:4;stroke-dasharray:none;stroke-opacity:1" />
    <path
       sodipodi:nodetypes="cssssssssssccsssssccccccc"
       id="path852-7"
       d="m 193.42918,62.171299 c -0.88323,-1.212009 -1.67825,-2.572922 -3.02722,-3.202123 -1.46343,-0.682588 -3.17616,-1.069869 -5.02295,-0.09021 -1.70192,0.902811 -2.16108,2.329071 -2.04058,3.630575 0.21578,2.330548 1.00979,2.634631 1.88361,3.314872 2.02189,1.573985 5.74015,2.566898 8.56592,4.01393 2.44343,1.251241 4.84492,2.501305 6.81686,5.254186 1.11082,1.550736 2.19985,3.193015 2.24239,6.111092 0.0324,2.220576 0.086,4.352785 -1.12119,6.900349 -1.21767,2.569673 -3.28081,4.277299 -5.74052,5.47969 -4.87169,2.381443 -10.06959,2.134793 -15.22581,0.360802 -3.26437,-1.123101 -6.23607,-3.515432 -8.81259,-7.847457 l 7.24291,-4.261975 c 1.11963,1.813902 2.31641,3.811638 5.49385,4.961036 1.86933,0.676203 3.85443,0.811159 6.45808,-0.11275 2.07828,-0.737478 2.96444,-2.249606 2.98238,-4.126682 0.0208,-2.177468 -1.58042,-3.346424 -3.16177,-4.081576 l -9.21621,-4.284533 c -2.61129,-1.213962 -4.67078,-3.460211 -5.71809,-5.524789 -1.48535,-2.846882 -1.61511,-5.94937 -1.07635,-9.177911 0.8952,-3.170026 2.69872,-5.165646 4.84356,-6.719949 1.61674,-1.019923 4.12385,-1.678548 7.44473,-2.006962 2.6179,-0.220131 5.35864,-0.06966 8.74531,2.029513 1.91179,1.571492 3.23559,3.224543 4.28296,4.915934 z"
       style="display:inline;opacity:1;fill:#5e5a37;fill-opacity:1;stroke:#000000;stroke-width:0;stroke-linecap:butt;stroke-linejoin:miter;stroke-miterlimit:4;stroke-dasharray:none;stroke-opacity:1" />
  </g>
</svg>
