<?xml version="1.0" encoding="UTF-8" standalone="no"?>
<svg
   xmlns:dc="http://purl.org/dc/elements/1.1/"
   xmlns:cc="http://creativecommons.org/ns#"
   xmlns:rdf="http://www.w3.org/1999/02/22-rdf-syntax-ns#"
   xmlns:svg="http://www.w3.org/2000/svg"
   xmlns="http://www.w3.org/2000/svg"
   xmlns:sodipodi="http://sodipodi.sourceforge.net/DTD/sodipodi-0.dtd"
   xmlns:inkscape="http://www.inkscape.org/namespaces/inkscape"
   sodipodi:docname="javascript.svg"
   inkscape:version="1.0 (4035a4fb49, 2020-05-01)"
   id="svg8"
   version="1.1"
   viewBox="0 0 100 100"
   height="100mm"
   width="100mm">
  <defs
     id="defs2" />
  <sodipodi:namedview
     inkscape:window-maximized="1"
     inkscape:window-y="-8"
     inkscape:window-x="-8"
     inkscape:window-height="1027"
     inkscape:window-width="1920"
     showgrid="false"
     inkscape:document-rotation="0"
     inkscape:current-layer="layer2"
     inkscape:document-units="mm"
     inkscape:cy="324.15451"
     inkscape:cx="175.01051"
     inkscape:zoom="0.98994949"
     inkscape:pageshadow="2"
     inkscape:pageopacity="0.0"
     borderopacity="1.0"
     bordercolor="#666666"
     pagecolor="#ffffff"
     id="base" />
  <metadata
     id="metadata5">
    <rdf:RDF>
      <cc:Work
         rdf:about="">
        <dc:format>image/svg+xml</dc:format>
        <dc:type
           rdf:resource="http://purl.org/dc/dcmitype/StillImage" />
        <dc:title />
      </cc:Work>
    </rdf:RDF>
  </metadata>
  <g
     style="display:inline;opacity:1"
     inkscape:label="JavaScript"
     id="layer2"
     inkscape:groupmode="layer">
    <rect
       y="2.1381562"
       x="2.4054258"
       height="95.456421"
       width="94.921883"
       id="rect848"
       style="fill:#f0db4f;fill-opacity:1;fill-rule:evenodd;stroke:#333333;stroke-width:0" />
    <path
       sodipodi:nodetypes="ccccccccccccc"
       id="path850"
       d="m 45.089991,45.956032 0.126846,30.232421 c -0.05972,2.746319 -0.706299,4.902493 -2.790671,5.612769 -4.095009,0.875544 -4.715049,-0.441562 -5.898458,-1.403192 -0.968519,-1.044229 -1.384201,-2.009036 -1.966154,-2.99773 l -7.357221,4.464704 c 1.242728,2.321027 2.985577,4.248451 5.200794,5.804115 2.504072,1.526579 5.303064,2.727878 9.640496,2.232353 5.176312,-0.450378 6.747613,-2.006784 8.498858,-3.507982 2.222112,-2.296417 2.771797,-4.382605 3.10779,-6.441929 l 0.317123,-11.16176 V 45.956032 Z"
       style="fill:#5e5a37;fill-opacity:1;stroke:#000000;stroke-width:0;stroke-linecap:butt;stroke-linejoin:miter;stroke-miterlimit:4;stroke-dasharray:none;stroke-opacity:1" />
    <path
       sodipodi:nodetypes="cssssssssssccsssssccccccc"
       id="path852"
       d="m 80.261141,56.980141 c -0.883228,-1.212007 -1.678253,-2.572922 -3.027223,-3.202122 -1.463431,-0.682588 -3.176158,-1.06987 -5.02295,-0.09021 -1.701919,0.902813 -2.161076,2.329071 -2.040573,3.630575 0.215778,2.33055 1.009789,2.634632 1.883606,3.314873 2.021895,1.573986 5.740153,2.566897 8.565922,4.013929 2.443427,1.251241 4.844917,2.501306 6.81686,5.254187 1.110824,1.550737 2.199849,3.193015 2.242388,6.111093 0.03237,2.220576 0.086,4.352783 -1.121192,6.900349 -1.217671,2.569671 -3.280802,4.277299 -5.740516,5.479689 -4.871691,2.381442 -10.069588,2.134793 -15.225815,0.360801 -3.264363,-1.123099 -6.236067,-3.51543 -8.812584,-7.847455 l 7.242912,-4.261976 c 1.119629,1.813902 2.31641,3.811638 5.493851,4.961036 1.869322,0.676203 3.854424,0.81116 6.458079,-0.112751 2.078273,-0.737478 2.964434,-2.249606 2.982376,-4.12668 0.02082,-2.177468 -1.580418,-3.346424 -3.161768,-4.081578 L 68.578298,68.99937 c -2.611289,-1.213963 -4.670773,-3.460211 -5.718088,-5.524789 -1.485344,-2.846884 -1.615107,-5.949371 -1.076348,-9.177913 0.895204,-3.170026 2.698721,-5.165645 4.84356,-6.719948 1.61674,-1.019922 4.123851,-1.678548 7.444727,-2.006963 2.6179,-0.22013 5.358641,-0.06966 8.745314,2.029513 1.911786,1.571493 3.235591,3.224543 4.282962,4.915936 z"
       style="fill:#5e5a37;fill-opacity:1;stroke:#000000;stroke-width:0;stroke-linecap:butt;stroke-linejoin:miter;stroke-miterlimit:4;stroke-dasharray:none;stroke-opacity:1" />
  </g>
</svg>
