<?xml version="1.0" encoding="UTF-8" standalone="no"?>
<svg
   xmlns:dc="http://purl.org/dc/elements/1.1/"
   xmlns:cc="http://creativecommons.org/ns#"
   xmlns:rdf="http://www.w3.org/1999/02/22-rdf-syntax-ns#"
   xmlns:svg="http://www.w3.org/2000/svg"
   xmlns="http://www.w3.org/2000/svg"
   xmlns:sodipodi="http://sodipodi.sourceforge.net/DTD/sodipodi-0.dtd"
   xmlns:inkscape="http://www.inkscape.org/namespaces/inkscape"
   inkscape:version="1.0 (4035a4fb49, 2020-05-01)"
   sodipodi:docname="linkedin.svg"
   viewBox="0 0 225 225"
   height="225"
   width="225"
   id="svg833"
   version="1.1">
  <metadata
     id="metadata839">
    <rdf:RDF>
      <cc:Work
         rdf:about="">
        <dc:format>image/svg+xml</dc:format>
        <dc:type
           rdf:resource="http://purl.org/dc/dcmitype/StillImage" />
        <dc:title />
      </cc:Work>
    </rdf:RDF>
  </metadata>
  <defs
     id="defs837" />
  <sodipodi:namedview
     inkscape:current-layer="layer1"
     inkscape:window-maximized="1"
     inkscape:window-y="-8"
     inkscape:window-x="-8"
     inkscape:cy="151.80254"
     inkscape:cx="164.56373"
     inkscape:zoom="2.56"
     showgrid="false"
     id="namedview835"
     inkscape:window-height="1027"
     inkscape:window-width="1920"
     inkscape:pageshadow="2"
     inkscape:pageopacity="0"
     guidetolerance="10"
     gridtolerance="10"
     objecttolerance="10"
     borderopacity="1"
     bordercolor="#666666"
     pagecolor="#ffffff"
     inkscape:document-rotation="0" />
  <g
     style="display:inline;opacity:1"
     inkscape:label="border"
     id="layer1"
     inkscape:groupmode="layer">
    <path
       sodipodi:nodetypes="cccccccccssccccccsscccccccccccccsccccc"
       d="M 14.005794,5e-7 C 5.2030335,2.4192455 3.2848295,6.7276755 0.9009235,10.908013 L 5.0045936e-7,211.35318 C 4.5306095,221.97752 10.682686,225.2387 17.615865,224.98661 l 193.825605,-0.45637 c 5.6741,-2.20856 10.86402,-5.5937 13.55853,-14.99612 L 224.54635,14.089786 C 221.66478,8.6255185 218.88256,3.1039835 211.89512,5e-7 Z M 50.489863,30.962817 h 0.007 c 0.0618,-2.98e-4 0.12353,-2.98e-4 0.18529,0 10.64772,-0.0027 19.28282,8.623762 19.28991,19.270601 l -19.28352,0.0128 h 19.28352 c 0,10.64687 -8.62938,19.279091 -19.27713,19.283461 -10.65023,0.003 -19.28636,-8.62768 -19.28991,-19.27703 -0.004,-10.575011 8.51013,-19.18044 19.08545,-19.289894 z M 151.22041,81.305499 c 14.19558,-0.26968 21.89909,4.2469 28.98276,11.78222 6.13557,7.606261 6.96078,15.212491 9.10508,22.818751 l 0.95839,76.33037 -33.54487,-0.32152 -0.47923,-67.49212 c -4.42523,-8.79404 -14.10475,-19.79814 -30.19041,-9.32034 -5.22097,3.78662 -6.20451,7.96041 -7.45654,12.11002 v 64.3682 H 86.743913 V 84.545138 h 31.851677 v 13.222011 c 6.27567,-7.63377 13.65927,-13.532081 23.59005,-15.446041 2.18322,-0.20903 7.0068,-0.97707 9.03477,-1.015609 z m -117.899147,3.49031 h 33.86438 V 194.06877 h -33.86438 z"
       style="fill:#8f8f8f;fill-opacity:0.93725491;stroke:#000000;stroke-width:0;stroke-linecap:butt;stroke-linejoin:miter;stroke-miterlimit:4;stroke-dasharray:none;stroke-opacity:1"
       id="path846" />
  </g>
</svg>
