<?xml version="1.0" encoding="UTF-8" standalone="no"?>
<svg
   xmlns:dc="http://purl.org/dc/elements/1.1/"
   xmlns:cc="http://creativecommons.org/ns#"
   xmlns:rdf="http://www.w3.org/1999/02/22-rdf-syntax-ns#"
   xmlns:svg="http://www.w3.org/2000/svg"
   xmlns="http://www.w3.org/2000/svg"
   xmlns:sodipodi="http://sodipodi.sourceforge.net/DTD/sodipodi-0.dtd"
   xmlns:inkscape="http://www.inkscape.org/namespaces/inkscape"
   inkscape:export-ydpi="37.391819"
   inkscape:export-xdpi="37.391819"
   inkscape:export-filename="D:\InkScape\web_assets\dice\baby_pig.png"
   width="188mm"
   height="168mm"
   viewBox="0 0 188 168"
   version="1.1"
   id="svg8"
   sodipodi:docname="baby_pig.svg"
   inkscape:version="1.0 (4035a4fb49, 2020-05-01)">
  <defs
     id="defs2">
    <rect
       id="rect846"
       height="1.1924937"
       width="21.195784"
       y="164.41965"
       x="39.309525" />
  </defs>
  <sodipodi:namedview
     id="base"
     pagecolor="#ffffff"
     bordercolor="#666666"
     borderopacity="1.0"
     inkscape:pageopacity="0.0"
     inkscape:pageshadow="2"
     inkscape:zoom="0.70710678"
     inkscape:cx="-86.895207"
     inkscape:cy="338.53747"
     inkscape:document-units="mm"
     inkscape:current-layer="layer2"
     inkscape:document-rotation="0"
     showgrid="true"
     inkscape:window-width="1920"
     inkscape:window-height="1027"
     inkscape:window-x="-8"
     inkscape:window-y="-8"
     inkscape:window-maximized="1"
     inkscape:snap-nodes="false">
    <inkscape:grid
       type="xygrid"
       id="grid865" />
  </sodipodi:namedview>
  <metadata
     id="metadata5">
    <rdf:RDF>
      <cc:Work
         rdf:about="">
        <dc:format>image/svg+xml</dc:format>
        <dc:type
           rdf:resource="http://purl.org/dc/dcmitype/StillImage" />
        <dc:title />
      </cc:Work>
    </rdf:RDF>
  </metadata>
  <g
     inkscape:groupmode="layer"
     id="layer2"
     inkscape:label="pig_tracing"
     style="display:inline;opacity:1">
    <path
       sodipodi:nodetypes="ccaacc"
       id="path884-9"
       d="M 49.942153,14.460965 C 43.646283,11.089746 37.769017,7.5530888 21.621269,8.075602 12.484036,10.508025 3.7586201,12.536411 1.0933678,19.907303 -3.182928,31.733626 5.8881617,45.88685 14.398492,55.214612 c 5.160386,5.656051 14.016969,7.672427 20.71795,10.141467 z"
       style="display:inline;opacity:0.619672;fill:#ffcec1;fill-opacity:1;stroke:#000000;stroke-width:0;stroke-linecap:butt;stroke-linejoin:miter;stroke-miterlimit:4;stroke-dasharray:none;stroke-opacity:1" />
    <path
       style="display:inline;opacity:0.285246;fill:#856d6a;fill-opacity:0.972549;stroke:#000000;stroke-width:0;stroke-linecap:butt;stroke-linejoin:miter;stroke-miterlimit:4;stroke-dasharray:none;stroke-opacity:1"
       d="M 40.245222,23.33201 C 35.864174,21.7277 31.774425,20.04465 20.53784,20.293311 14.179606,21.450867 8.107919,22.416145 6.2532905,25.923856 c -2.9756999,5.627987 3.3365008,12.363328 9.2585055,16.802288 3.590918,2.691636 9.753858,3.651211 14.416811,4.826187 z"
       id="path884-2-2"
       sodipodi:nodetypes="ccaacc" />
    <path
       style="fill:#ffcec1;fill-opacity:1;stroke:#000000;stroke-width:0;stroke-linecap:butt;stroke-linejoin:miter;stroke-miterlimit:4;stroke-dasharray:none;stroke-opacity:1"
       d="m 138.05785,21.785286 c 6.29587,-3.371219 12.17313,-6.907876 28.32088,-6.385363 9.13723,2.432424 17.86265,4.460809 20.5279,11.831701 4.2763,11.826316 -4.79479,25.979539 -13.30512,35.307302 -5.16039,5.656051 -14.01697,7.672427 -20.71795,10.141468 z"
       id="path884"
       sodipodi:nodetypes="ccaacc" />
    <path
       sodipodi:nodetypes="ccaacc"
       id="path884-2"
       d="m 143.75387,30.806575 c 4.38105,-1.604317 8.4708,-3.287366 19.70738,-3.038706 6.35824,1.157557 12.42991,2.122836 14.28455,5.630552 2.9757,5.627988 -3.33651,12.363328 -9.2585,16.802288 -3.59092,2.691636 -9.75386,3.651211 -14.41682,4.826188 z"
       style="display:inline;opacity:0.285246;fill:#856d6a;fill-opacity:0.972549;stroke:#000000;stroke-width:0;stroke-linecap:butt;stroke-linejoin:miter;stroke-miterlimit:4;stroke-dasharray:none;stroke-opacity:1" />
    <path
       style="opacity:1;fill:#f6d5cc;fill-opacity:0.99;stroke:#000000;stroke-width:0;stroke-linecap:butt;stroke-linejoin:miter;stroke-miterlimit:4;stroke-dasharray:none;stroke-opacity:1"
       d="M 85.274654,5.0095492e-7 C 149.54477,2.5453385 176.03718,61.625301 141.09565,107.79896 128.87786,120.12688 107.57229,137.39618 87.100271,136.80071 69.276221,136.28226 50.839515,123.98875 41.670318,108.86133 4.0376503,54.837323 35.298244,6.7625381 85.274654,5.0095492e-7 Z"
       id="path863"
       sodipodi:nodetypes="ccacc" />
    <path
       style="fill:#f8b1a8;fill-opacity:0.996078;stroke:#000000;stroke-width:0;stroke-linecap:butt;stroke-linejoin:miter;stroke-miterlimit:4;stroke-dasharray:none;stroke-opacity:1"
       d="m 66.525912,107.4095 c 0.03999,-8.71234 3.945265,-24.662933 13.223811,-30.829215 5.185415,-3.446105 14.672635,-3.382357 19.359389,0.595672 8.219978,6.976956 12.738768,23.814583 10.616018,32.245803 -3.27787,13.01921 -43.260448,11.33376 -43.199218,-2.01226 z"
       id="path1048"
       sodipodi:nodetypes="sssss" />
    <path
       sodipodi:nodetypes="aaaaaaaaa"
       id="path901-3"
       d="m 67.592316,111.33444 c 3.78141,7.5226 11.82286,15.11759 20.315806,15.21205 8.430942,0.0938 17.045928,-7.04328 20.505668,-14.64864 1.30496,-2.86864 0.9692,-6.88137 -0.94934,-9.39015 -4.06259,-5.312424 -12.434127,-9.506251 -18.796851,-7.324319 -1.661474,0.569754 -0.90259,4.406951 -2.65815,4.507278 -1.579592,0.09023 -1.289258,-3.487473 -2.848011,-3.756059 -6.121754,-1.054823 -12.621558,4.73046 -15.569122,10.14136 -0.840589,1.54308 -0.788961,3.68895 0,5.25848 z"
       style="display:inline;opacity:0.87541;fill:#f8b1a8;fill-opacity:1;stroke:#ff8f8f;stroke-width:0.0999176;stroke-linecap:butt;stroke-linejoin:miter;stroke-miterlimit:4;stroke-dasharray:none;stroke-opacity:1"
       inkscape:transform-center-x="8.9953536"
       inkscape:transform-center-y="-14.341977" />
    <path
       style="fill:#f79bba;fill-opacity:0.968627;stroke:#ff95b2;stroke-width:0.0999176;stroke-linecap:butt;stroke-linejoin:miter;stroke-miterlimit:4;stroke-dasharray:none;stroke-opacity:1"
       d="m 67.806856,102.72827 c 3.78141,-7.52259 11.822861,-15.117586 20.315809,-15.21204 8.430943,-0.09381 17.045935,7.043277 20.505665,14.64863 1.30496,2.86864 0.96921,6.88137 -0.94934,9.39015 -4.06259,5.31243 -12.434123,9.50626 -18.796858,7.32433 -1.661464,-0.56976 -0.902589,-4.40696 -2.658139,-4.50728 -1.579596,-0.0902 -1.289262,3.48747 -2.848015,3.75605 -6.121754,1.05484 -12.621557,-4.73046 -15.569122,-10.14135 -0.840588,-1.54309 -0.78896,-3.68896 0,-5.25849 z"
       id="path901"
       sodipodi:nodetypes="aaaaaaaaa" />
    <path
       transform="matrix(0.9996629,0.02596303,0.2789404,0.96030841,0,0)"
       d="m 36.829436,81.121651 a 8.6218653,11.646063 0 0 1 -8.620774,11.646062 8.6218653,11.646063 0 0 1 -8.622956,-11.643115 8.6218653,11.646063 0 0 1 8.618592,-11.649009 8.6218653,11.646063 0 0 1 8.625137,11.640168 l -8.621864,0.0059 z"
       sodipodi:arc-type="slice"
       sodipodi:end="6.2826792"
       sodipodi:start="0"
       sodipodi:ry="11.646063"
       sodipodi:rx="8.6218653"
       sodipodi:cy="81.121651"
       sodipodi:cx="28.207571"
       sodipodi:type="arc"
       id="path867-86"
       style="display:inline;opacity:1;fill:#ddb3a8;fill-opacity:1;fill-rule:evenodd;stroke:#ff0000;stroke-width:0" />
    <path
       style="fill:#000000;fill-opacity:1;fill-rule:evenodd;stroke:#ff0000;stroke-width:0"
       id="path867"
       sodipodi:type="arc"
       sodipodi:cx="18.356197"
       sodipodi:cy="92.637024"
       sodipodi:rx="3.8387764"
       sodipodi:ry="7.8249874"
       sodipodi:start="0"
       sodipodi:end="6.2826792"
       sodipodi:arc-type="slice"
       d="m 22.194974,92.637024 a 3.8387764,7.8249874 0 0 1 -3.838291,7.824986 3.8387764,7.8249874 0 0 1 -3.839262,-7.823006 3.8387764,7.8249874 0 0 1 3.837319,-7.826967 3.8387764,7.8249874 0 0 1 3.840233,7.821027 l -3.838776,0.004 z"
       transform="matrix(0.92830943,-0.37180854,0.35549005,0.93468006,0,0)" />
    <path
       style="display:inline;opacity:1;fill:#ddb3a8;fill-opacity:1;fill-rule:evenodd;stroke:#ff0000;stroke-width:0"
       id="path867-86-9"
       sodipodi:type="arc"
       sodipodi:cx="-156.51115"
       sodipodi:cy="86.545937"
       sodipodi:rx="8.6218643"
       sodipodi:ry="11.646063"
       sodipodi:start="0"
       sodipodi:end="6.2826792"
       sodipodi:arc-type="slice"
       d="m -147.88929,86.545937 a 8.6218643,11.646063 0 0 1 -8.62077,11.646062 8.6218643,11.646063 0 0 1 -8.62296,-11.643115 8.6218643,11.646063 0 0 1 8.61859,-11.649009 8.6218643,11.646063 0 0 1 8.62514,11.640167 l -8.62186,0.0059 z"
       transform="matrix(-0.9996629,0.02596303,-0.27894042,0.96030841,0,0)" />
    <path
       transform="matrix(-0.92831291,-0.37179988,-0.35549846,0.93467686,0,0)"
       d="m -147.34758,24.791475 a 3.8387649,7.8248072 0 0 1 -3.83827,7.824807 3.8387649,7.8248072 0 0 1 -3.83926,-7.822827 3.8387649,7.8248072 0 0 1 3.83731,-7.826786 3.8387649,7.8248072 0 0 1 3.84022,7.820846 l -3.83876,0.004 z"
       sodipodi:arc-type="slice"
       sodipodi:end="6.2826792"
       sodipodi:start="0"
       sodipodi:ry="7.8248072"
       sodipodi:rx="3.8387649"
       sodipodi:cy="24.791475"
       sodipodi:cx="-151.18634"
       sodipodi:type="arc"
       id="path867-8"
       style="display:inline;opacity:1;fill:#000000;fill-opacity:1;fill-rule:evenodd;stroke:#ff0000;stroke-width:0"
       inkscape:transform-center-x="-50.621257"
       inkscape:transform-center-y="-3.9653413" />
    <path
       style="opacity:1;fill:#af5b6c;fill-opacity:1;fill-rule:evenodd;stroke:#ff0000;stroke-width:0"
       id="path903"
       sodipodi:type="arc"
       sodipodi:cx="-0.72038382"
       sodipodi:cy="131.48241"
       sodipodi:rx="3.5492122"
       sodipodi:ry="1.6284964"
       sodipodi:start="0"
       sodipodi:end="6.2826792"
       sodipodi:arc-type="slice"
       d="m 2.8288284,131.48241 a 3.5492122,1.6284964 0 0 1 -3.54876315,1.62849 3.5492122,1.6284964 0 0 1 -3.54966115,-1.62808 3.5492122,1.6284964 0 0 1 3.54786487,-1.62891 3.5492122,1.6284964 0 0 1 3.55055893,1.62767 l -3.54921172,8.3e-4 z"
       transform="matrix(0.80039822,-0.59946868,0.61677576,0.78713891,0,0)" />
    <path
       transform="matrix(-0.80039823,-0.59946866,-0.61677577,0.7871389,0,0)"
       d="m -136.56263,25.849731 a 3.5492122,1.6284964 0 0 1 -3.54877,1.628497 3.5492122,1.6284964 0 0 1 -3.54966,-1.628084 3.5492122,1.6284964 0 0 1 3.54787,-1.628909 3.5492122,1.6284964 0 0 1 3.55055,1.627672 l -3.54921,8.24e-4 z"
       sodipodi:arc-type="slice"
       sodipodi:end="6.2826792"
       sodipodi:start="0"
       sodipodi:ry="1.6284964"
       sodipodi:rx="3.5492122"
       sodipodi:cy="25.849731"
       sodipodi:cx="-140.11185"
       sodipodi:type="arc"
       id="path903-0"
       style="display:inline;opacity:1;fill:#af5b6c;fill-opacity:1;fill-rule:evenodd;stroke:#ff0000;stroke-width:0"
       inkscape:transform-center-x="-10.062968"
       inkscape:transform-center-y="-26.292435" />
    <path
       style="fill:#ee9c86;fill-opacity:1;stroke:#000000;stroke-width:0;stroke-linecap:butt;stroke-linejoin:miter;stroke-miterlimit:4;stroke-dasharray:none;stroke-opacity:1"
       d="m 78.468531,79.92655 c 7.352075,-2.50698 14.70415,-2.471494 22.056219,0.05724 l -0.0213,0.278572 C 93.281254,78.72387 85.915508,78.53523 78.360304,80.128844 Z"
       id="path1166"
       sodipodi:nodetypes="ccccc" />
    <path
       sodipodi:nodetypes="ccccc"
       id="path1166-3"
       d="m 77.138104,85.52879 c 8.153681,-4.402231 16.30736,-4.339924 24.461046,0.100507 l -0.0236,0.489173 C 93.565882,83.416897 85.397046,83.085647 77.018089,85.884009 Z"
       style="display:inline;opacity:1;fill:#ee9c86;fill-opacity:1;stroke:#000000;stroke-width:0;stroke-linecap:butt;stroke-linejoin:miter;stroke-miterlimit:4;stroke-dasharray:none;stroke-opacity:1" />
  </g>
</svg>
